<svg aria-hidden="true" width="100" height="28" viewBox="0 0 100 28" fill="none" xmlns="http://www.w3.org/2000/svg"><path d="M94.6674 9.1805C91.3238 9.1805 89.3401 11.5739 89.3401 14.4792C89.3401 17.3844 91.3238 19.7778 94.6674 19.7778C98.0109 19.7778 99.9918 17.4149 99.9918 14.4792C99.9918 11.5435 98.0082 9.1805 94.6646 9.1805H94.6674ZM94.6646 18.5133C92.2716 18.5133 90.7798 16.7702 90.7798 14.4792C90.7798 12.1882 92.2716 10.445 94.6646 10.445C97.0576 10.445 98.5494 12.2048 98.5494 14.4792C98.5494 16.7536 97.0603 18.5216 94.6674 18.5216L94.6646 18.5133ZM47.9615 10.4533C49.8297 10.4533 51.154 11.7537 51.2391 13.104H52.6293C52.5442 11.1367 50.8463 9.1888 48.0302 9.1888C44.6206 9.1888 42.6865 11.5988 42.6865 14.5041C42.6865 17.3595 44.519 19.7861 48.1153 19.7861C50.2721 19.7861 51.8491 18.7928 52.6293 17.8188L51.7144 16.9888C50.7656 17.9592 49.4731 18.5105 48.1208 18.5216C45.4229 18.5216 44.1508 16.7425 44.1508 14.5041C44.1508 12.1107 45.6262 10.4533 47.967 10.4533H47.9615ZM63.4623 9.5319V13.8179C63.4623 16.8781 61.6463 18.5216 59.616 18.5216C57.9346 18.5216 57.0197 17.307 57.0197 15.2733V9.5236H53.7228V10.7189H55.624V15.6081C55.624 18.0347 56.9977 19.7778 59.5116 19.7778C61.4622 19.7778 62.7865 18.7679 63.4486 17.3319V19.4347H64.8388V9.5236L63.4623 9.5319ZM87.0488 9.5319L83.4772 18.0236L79.8286 9.5319H77.1114V10.7272H78.8368L82.7244 19.8027C82.1474 21.2194 81.2133 22.091 80.0429 22.091C79.6446 22.1095 79.248 22.0277 78.889 21.853V23.1341C79.324 23.2914 79.7841 23.3665 80.2462 23.3555C81.9276 23.3555 83.0816 22.3649 83.8783 20.5194L88.5489 9.5319H87.0488ZM70.8254 11.3276V9.53467H66.6521V10.73H69.4352V18.245H66.6521V19.4403H74.2184V18.245H70.8254V13.5965C71.1001 11.9723 72.5233 10.4671 74.2706 10.4671C74.8922 10.4445 75.5113 10.5558 76.0867 10.7936V9.52914C75.6186 9.29146 75.0996 9.17362 74.5756 9.18603C73.8205 9.18856 73.0788 9.38693 72.4219 9.76204C71.765 10.1371 71.2152 10.6763 70.8254 11.3276ZM36.4471 11.3276V9.53467H32.2711V10.73H35.0542V18.245H32.2711V19.4403H39.8402V18.245H36.4471V13.5965C36.6999 11.9723 38.1423 10.4671 39.9089 10.4671C40.5241 10.4457 41.1367 10.557 41.7057 10.7936V9.52914C41.2326 9.29171 40.7092 9.17395 40.1808 9.18603C39.4291 9.19403 38.6917 9.39486 38.0384 9.76958C37.3851 10.1443 36.8375 10.6805 36.4471 11.3276ZM17.6796 18.245V13.2147C17.6796 10.9403 16.2372 9.1805 14.064 9.1805C11.8908 9.1805 10.8578 10.564 10.366 11.6707C10.1367 10.9393 9.67917 10.302 9.06144 9.85332C8.44372 9.40468 7.69876 9.16872 6.93726 9.1805C5.01408 9.1805 4.00028 10.3094 3.45905 11.3332V9.5236H-0.0136719V10.7189H2.05512V19.4347H3.44806V13.6076C3.58268 12.4621 4.54702 10.4616 6.67076 10.4616C8.2148 10.4616 9.18189 11.3332 9.18189 13.6242V19.4347H10.5748V13.555C10.7616 12.4482 11.6738 10.4616 13.781 10.4616C15.3416 10.4616 16.2757 11.3332 16.2757 13.6242V19.4347H19.2456V18.245H17.6796ZM25.7213 9.18603C22.4628 9.18603 20.4792 11.596 20.4792 14.5013C20.4792 17.4757 22.3777 19.7834 25.9081 19.7834C28.106 19.7834 29.6748 18.707 30.3039 17.8687L29.3863 17.0386C28.5401 17.9627 27.367 18.5106 25.8147 18.5106C23.6167 18.5106 22.1331 17.0386 21.9683 14.9385H30.8781C30.8972 14.7851 30.9082 14.6309 30.9111 14.4764C30.9111 11.5545 29.0099 9.17773 25.735 9.17773L25.7213 9.18603ZM29.4522 13.7404H21.9875C22.2623 11.8035 23.7019 10.4422 25.7213 10.4422C26.6418 10.4101 27.5398 10.7338 28.2309 11.347C28.9221 11.9603 29.3542 12.8166 29.4385 13.7404" fill="#fff"></path></svg>
