<?xml version="1.0" encoding="utf-8"?>
<!-- Generator: Adobe Illustrator 24.1.2, SVG Export Plug-In . SVG Version: 6.00 Build 0)  -->
<svg version="1.1" id="Слой_2" xmlns="http://www.w3.org/2000/svg" xmlns:xlink="http://www.w3.org/1999/xlink" x="0px" y="0px"
	 viewBox="0 0 150 80" style="enable-background:new 0 0 150 80;" xml:space="preserve">
<style type="text/css">
	.st0{fill:#FFFFFF;}
</style>
<path class="st0" d="M148.4,49l-6.2-1.1c-0.1,1.4-0.5,2.7-1.1,3.4c-0.6,0.7-1.7,1.1-2.8,1.1c-0.9,0-1.9-0.3-2.5-1
	c-0.7-0.6-1-1.6-1-2.9v-9.4h11.5v-7.6h-11.5v-6.9h-8.4v23.8c0,3.4,1,6.1,3,8.1c2,2,4.9,3.1,8.8,3.1c3.3,0,6.2-0.9,8.2-2.8
	c0.8-0.7,1.5-1.6,2-2.6c0.9-1.6,1.4-3.3,1.6-5L148.4,49z M66.5,35c-1.4-2.4-3.4-4.4-5.8-5.8c-2.4-1.4-5.2-2.1-8.4-2.1
	c-3.2,0-6,0.7-8.4,2.1c-2.4,1.4-4.4,3.4-5.8,5.8c-1.4,2.5-2.1,5.3-2.1,8.4c0,3.1,0.7,5.9,2.1,8.4c1.4,2.4,3.4,4.4,5.8,5.8
	c2.5,1.4,5.3,2.1,8.4,2.1c3.2,0,6-0.7,8.4-2.1c2.4-1.4,4.4-3.4,5.8-5.8c1.4-2.5,2.1-5.3,2.1-8.4C68.6,40.3,67.9,37.5,66.5,35z
	 M59.3,48.1c-0.7,1.3-1.7,2.4-2.9,3.2c-1.3,0.7-2.7,1.1-4.2,1.1c-1.5,0-2.9-0.4-4.2-1.1c-1.2-0.8-2.2-1.9-2.9-3.2
	c-0.7-1.4-1.1-3-1.1-4.9c0-1.9,0.4-3.5,1.1-4.9c0.6-1.3,1.6-2.5,2.9-3.2c1.3-0.7,2.7-1.1,4.2-1.1c1.5,0,2.9,0.4,4.2,1.1
	c1.3,0.8,2.3,1.9,2.9,3.2c0.7,1.4,1.1,3,1.1,4.9C60.4,45.1,60,46.7,59.3,48.1z M70.6,59l9.8-38.7h8.9L79.5,59H70.6z M8.9,27.8
	L17.4,51l9-23.3h8.9L22.5,59H12.3L0,27.8H8.9z M114.2,46.9c-0.4,1.6-1.6,3.1-2.8,4.1c-1.2,1-2.8,1.4-4.9,1.4c-1.4,0-3.1-0.3-4.3-0.8
	c-1.2-0.6-2.3-1.4-3-2.5C98.4,48,98,46.6,97.9,45h21.9c0.1-0.6,0.2-1.2,0.2-1.8c0.1-0.7,0.1-1.3,0.1-2c0-2.9-0.6-5.4-1.8-7.4
	c-1.2-2.1-2.9-3.8-5-4.9c-2.1-1.1-4.7-1.7-7.6-1.7h-0.6c-3.1,0-5.8,0.7-8.1,2.2c-2.3,1.4-4.2,3.4-5.5,5.8c-1.3,2.4-1.9,5.1-1.9,8.1
	c0,3.3,0.7,6.3,2.1,8.8c1.4,2.4,3.4,4.4,5.9,5.7c2.5,1.3,5.7,2,9,2c3.8,0,6.9-0.9,9.3-2.6c2.5-1.8,4.6-4.3,5.6-7.3L114.2,46.9z
	 M100.5,35.3c1.3-0.9,2.8-1.4,4.4-1.4h0.6c1.1,0,2.3,0.2,3.3,0.6c0.9,0.3,1.7,0.9,2.2,1.7c0.6,0.8,0.9,1.7,0.9,2.7
	c0,0.1,0,0.2-0.1,0.3H98C98.5,37.5,99.2,36.2,100.5,35.3L100.5,35.3z"/>
</svg>

