<?xml version="1.0" encoding="utf-8"?>
<!-- Generator: Adobe Illustrator 24.1.2, SVG Export Plug-In . SVG Version: 6.00 Build 0)  -->
<svg version="1.1" xmlns="http://www.w3.org/2000/svg" xmlns:xlink="http://www.w3.org/1999/xlink" x="0px" y="0px"
	 viewBox="0 0 1000 600" style="enable-background:new 0 0 1000 600;" xml:space="preserve">
<style type="text/css">
	.st0{fill:#1F2129;}
	.st1{fill:#1F2128;}
	.st2{fill:#1E2128;}
	.st3{fill:#1E2027;}
	.st4{fill:#1D1F26;}
	.st5{fill:#1C1E25;}
	.st6{fill:#1C1E24;}
	.st7{fill:#1B1D24;}
	.st8{fill:#1B1D23;}
	.st9{fill:#1A1C23;}
	.st10{fill:#1A1C22;}
	.st11{fill:#191C22;}
	.st12{fill:#191B21;}
	.st13{fill:#181A20;}
	.st14{fill:#17191F;}
	.st15{fill:#16181E;}
	.st16{fill:#15181D;}
	.st17{fill:#15171D;}
	.st18{fill:#15171C;}
	.st19{fill:#14161C;}
	.st20{fill:#14161B;}
	.st21{fill:#13151A;}
	.st22{fill:#121419;}
	.st23{fill:url(#SVGID_1_);}
	.st24{fill:#6D6F76;}
	.st25{fill:url(#SVGID_2_);}
	.st26{fill:url(#SVGID_3_);}
</style>
<g>
	<rect x="-79.4" y="-62.9" class="st0" width="1173.4" height="753.7"/>
</g>
<g>
	<g>
		<g>
			<path class="st0" d="M389.8,444V278.8H331L206,444v47.6h130.2v34.2h53.6v-34.2h22.9V444H389.8z M336.2,444h-66.1
				c0,0,64-81.4,66.1-85.1C336.2,362.1,336.2,444,336.2,444z"/>
			<path class="st1" d="M387.3,439.7V274.5h-58.8l-125,165.2v47.6h130.2v34.2h53.6v-34.2h22.9v-47.6H387.3z M333.6,439.7h-66.1
				c0,0,64-81.4,66.1-85.1C333.6,357.7,333.6,439.7,333.6,439.7z"/>
			<path class="st2" d="M384.7,435.3V270.1h-58.8l-125,165.2v47.6h130.2v34.2h53.6v-34.2h22.9v-47.6H384.7z M331.1,435.3H265
				c0,0,64-81.4,66.1-85.1C331.1,353.4,331.1,435.3,331.1,435.3z"/>
			<path class="st3" d="M382.1,431V265.8h-58.8L198.3,431v47.6h130.2v34.2h53.6v-34.2H405V431H382.1z M328.5,431h-66.1
				c0,0,64-81.4,66.1-85.1C328.5,349.1,328.5,431,328.5,431z"/>
			<path class="st3" d="M379.6,426.7V261.5h-58.8l-125,165.2v47.6h130.2v34.2h53.6v-34.2h22.9v-47.6H379.6z M325.9,426.7h-66.1
				c0,0,64-81.4,66.1-85.1C326,344.7,325.9,426.7,325.9,426.7z"/>
			<path class="st4" d="M377,422.3V257.1h-58.8l-125,165.2v47.6h130.2v34.2H377v-34.2h22.9v-47.6H377z M323.4,422.3h-66.1
				c0,0,64-81.4,66.1-85.1C323.4,340.4,323.4,422.3,323.4,422.3z"/>
			<path class="st4" d="M374.5,418V252.8h-58.8L190.6,418v47.6h130.2v34.2h53.6v-34.2h22.9V418H374.5z M320.8,418h-66.1
				c0,0,64-81.4,66.1-85.1C320.8,336,320.8,418,320.8,418z"/>
			<path class="st5" d="M371.9,413.6V248.4h-58.8l-125,165.2v47.6h130.2v34.2h53.6v-34.2h22.9v-47.6H371.9z M318.3,413.6h-66.1
				c0,0,64-81.4,66.1-85.1C318.3,331.7,318.3,413.6,318.3,413.6z"/>
			<path class="st6" d="M369.3,409.3V244.1h-58.8l-125,165.2v47.6h130.2v34.2h53.6v-34.2h22.9v-47.6H369.3z M315.7,409.3h-66.1
				c0,0,64-81.4,66.1-85.1C315.7,327.4,315.7,409.3,315.7,409.3z"/>
			<path class="st7" d="M366.8,405V239.7H308L183,405v47.6h130.2v34.2h53.6v-34.2h22.9V405H366.8z M313.1,405h-66.1
				c0,0,64-81.4,66.1-85.1C313.2,323,313.1,405,313.1,405z"/>
			<path class="st8" d="M364.2,400.6V235.4h-58.8l-125,165.2v47.6h130.2v34.2h53.6v-34.2h22.9v-47.6H364.2z M310.6,400.6h-66.1
				c0,0,64-81.4,66.1-85.1C310.6,318.7,310.6,400.6,310.6,400.6z"/>
			<path class="st9" d="M361.7,396.3V231.1h-58.8l-125,165.2v47.6H308V478h53.6v-34.2h22.9v-47.6H361.7z M308,396.3H242
				c0,0,64-81.4,66.1-85.1C308,314.3,308,396.3,308,396.3z"/>
			<path class="st10" d="M359.1,391.9V226.7h-58.8l-125,165.2v47.6h130.2v34.2h53.6v-34.2H382v-47.6H359.1z M305.5,391.9h-66.1
				c0,0,64-81.4,66.1-85.1C305.5,310,305.5,391.9,305.5,391.9z"/>
			<path class="st11" d="M356.5,387.6V222.4h-58.8l-125,165.2v47.6h130.2v34.2h53.6v-34.2h22.9v-47.6H356.5z M302.9,387.6h-66.1
				c0,0,64-81.4,66.1-85.1C302.9,305.6,302.9,387.6,302.9,387.6z"/>
			<path class="st12" d="M354,383.3V218h-58.8l-125,165.2v47.6h130.2V465H354v-34.2h22.9v-47.6H354z M300.3,383.3h-66.1
				c0,0,64-81.4,66.1-85.1C300.4,301.3,300.3,383.3,300.3,383.3z"/>
			<path class="st12" d="M351.4,378.9V213.7h-58.8l-125,165.2v47.6h130.2v34.2h53.6v-34.2h22.9v-47.6H351.4z M297.8,378.9h-66.1
				c0,0,64-81.4,66.1-85.1C297.8,297,297.8,378.9,297.8,378.9z"/>
			<path class="st13" d="M348.9,374.6V209.4h-58.8l-125,165.2v47.6h130.2v34.2h53.6v-34.2h22.9v-47.6H348.9z M295.2,374.6h-66.1
				c0,0,64-81.4,66.1-85.1C295.2,292.6,295.2,374.6,295.2,374.6z"/>
			<path class="st13" d="M346.3,370.2V205h-58.8l-125,165.2v47.6h130.2V452h53.6v-34.2h22.9v-47.6H346.3z M292.7,370.2h-66.1
				c0,0,64-81.4,66.1-85.1C292.7,288.3,292.7,370.2,292.7,370.2z"/>
			<path class="st14" d="M343.7,365.9V200.7h-58.8l-125,165.2v47.6h130.2v34.2h53.6v-34.2h22.9v-47.6H343.7z M290.1,365.9H224
				c0,0,64-81.4,66.1-85.1C290.1,283.9,290.1,365.9,290.1,365.9z"/>
			<path class="st14" d="M341.2,361.5V196.3h-58.8l-125,165.2v47.6h130.2v34.2h53.6v-34.2h22.9v-47.6H341.2z M287.5,361.5h-66.1
				c0,0,64-81.4,66.1-85.1C287.6,279.6,287.5,361.5,287.5,361.5z"/>
			<path class="st15" d="M338.6,357.2V192h-58.8l-125,165.2v47.6H285V439h53.6v-34.2h22.9v-47.6H338.6z M285,357.2h-66.1
				c0,0,64-81.4,66.1-85.1C285,275.3,285,357.2,285,357.2z"/>
			<path class="st15" d="M336.1,352.9V187.7h-58.8l-125,165.2v47.6h130.2v34.2h53.6v-34.2H359v-47.6H336.1z M282.4,352.9h-66.1
				c0,0,64-81.4,66.1-85.1C282.4,270.9,282.4,352.9,282.4,352.9z"/>
			<path class="st16" d="M333.5,348.5V183.3h-58.8l-125,165.2v47.6h130.2v34.2h53.6v-34.2h22.9v-47.6H333.5z M279.9,348.5h-66.1
				c0,0,64-81.4,66.1-85.1C279.9,266.6,279.9,348.5,279.9,348.5z"/>
			<path class="st17" d="M330.9,344.2V179h-58.8l-125,165.2v47.6h130.2v34.2h53.6v-34.2h22.9v-47.6H330.9z M277.3,344.2h-66.1
				c0,0,64-81.4,66.1-85.1C277.3,262.2,277.3,344.2,277.3,344.2z"/>
			<path class="st18" d="M328.4,339.8V174.6h-58.8l-125,165.2v47.6h130.2v34.2h53.6v-34.2h22.9v-47.6H328.4z M274.7,339.8h-66.1
				c0,0,64-81.4,66.1-85.1C274.8,257.9,274.7,339.8,274.7,339.8z"/>
			<path class="st19" d="M325.8,335.5V170.3H267L142,335.5v47.6h130.2v34.2h53.6v-34.2h22.9v-47.6H325.8z M272.2,335.5h-66.1
				c0,0,64-81.4,66.1-85.1C272.2,253.6,272.2,335.5,272.2,335.5z"/>
			<path class="st20" d="M323.3,331.2V165.9h-58.8l-125,165.2v47.6h130.2v34.2h53.6v-34.2h22.9v-47.6H323.3z M269.6,331.2h-66.1
				c0,0,64-81.4,66.1-85.1C269.6,249.2,269.6,331.2,269.6,331.2z"/>
			<path class="st21" d="M320.7,326.8V161.6h-58.8l-125,165.2v47.6h130.2v34.2h53.6v-34.2h22.9v-47.6H320.7z M267.1,326.8H201
				c0,0,64-81.4,66.1-85.1C267.1,244.9,267.1,326.8,267.1,326.8z"/>
			<path class="st21" d="M318.1,322.5V157.3h-58.8l-125,165.2v47.6h130.2v34.2h53.6v-34.2H341v-47.6H318.1z M264.5,322.5h-66.1
				c0,0,64-81.4,66.1-85.1C264.5,240.5,264.5,322.5,264.5,322.5z"/>
			<path class="st22" d="M315.6,318.1V152.9h-58.8l-125,165.2v47.6h130.2v34.2h53.6v-34.2h22.9v-47.6H315.6z M261.9,318.1h-66.1
				c0,0,64-81.4,66.1-85.1C262,236.2,261.9,318.1,261.9,318.1z"/>
			<path class="st22" d="M313,313.8V148.6h-58.8l-125,165.2v47.6h130.2v34.2H313v-34.2h22.9v-47.6H313z M259.4,313.8h-66.1
				c0,0,64-81.4,66.1-85.1C259.4,231.8,259.4,313.8,259.4,313.8z"/>
		</g>
		<linearGradient id="SVGID_1_" gradientUnits="userSpaceOnUse" x1="387.0593" y1="372.9251" x2="140.0811" y2="197.3806">
			<stop  offset="0" style="stop-color:#1E2029"/>
			<stop  offset="4.695699e-02" style="stop-color:#23252D"/>
			<stop  offset="0.1145" style="stop-color:#26282F"/>
			<stop  offset="1" style="stop-color:#34363A"/>
		</linearGradient>
		<path class="st23" d="M313,313.8V148.6h-58.8l-125,165.2v47.6h130.2v34.2H313v-34.2h22.9v-47.6H313z M259.4,313.8h-66.1
			c0,0,64-81.4,66.1-85.1C259.4,231.8,259.4,313.8,259.4,313.8z"/>
		<g>
			<polygon class="st24" points="313,148.6 313,149.9 254.9,149.9 130.6,314.2 130.6,361.4 129.2,361.4 129.2,313.8 254.2,148.6 			
				"/>
			<path class="st24" d="M259.4,228.7c0,3.1-0.1,85.1-0.1,85.1h-66.1c0,0,0.4-0.5,1.1-1.3H258l0.1-81.9
				C258.8,229.6,259.3,229,259.4,228.7z"/>
			<rect x="258" y="361.4" class="st24" width="1.3" height="33.4"/>
			<rect x="313" y="312.5" class="st24" width="22.9" height="1.3"/>
		</g>
	</g>
	<g>
		<g>
			<path class="st0" d="M573.6,471.9c-38.4,0-69.6-31.1-69.6-69.6c0-38.4,31.2-69.6,69.6-69.6c38.4,0,69.6,31.2,69.6,69.6
				C643.2,440.8,612,471.9,573.6,471.9z M573.6,278.8c-68.2,0-123.5,55.3-123.5,123.5s55.3,123.5,123.5,123.5
				c68.2,0,123.5-55.3,123.5-123.5S641.8,278.8,573.6,278.8z"/>
			<path class="st1" d="M571.1,467.7c-38.4,0-69.6-31.1-69.6-69.6c0-38.4,31.2-69.6,69.6-69.6c38.4,0,69.6,31.2,69.6,69.6
				C640.7,436.5,609.5,467.7,571.1,467.7z M571.1,274.6c-68.2,0-123.5,55.3-123.5,123.5s55.3,123.5,123.5,123.5
				s123.5-55.3,123.5-123.5S639.3,274.6,571.1,274.6z"/>
			<path class="st2" d="M568.7,463.4c-38.4,0-69.6-31.1-69.6-69.6c0-38.4,31.2-69.6,69.6-69.6c38.4,0,69.6,31.2,69.6,69.6
				C638.2,432.3,607.1,463.4,568.7,463.4z M568.7,270.4c-68.2,0-123.5,55.3-123.5,123.5s55.3,123.5,123.5,123.5
				s123.5-55.3,123.5-123.5S636.9,270.4,568.7,270.4z"/>
			<path class="st3" d="M566.2,459.2c-38.4,0-69.6-31.1-69.6-69.6c0-38.4,31.2-69.6,69.6-69.6c38.4,0,69.6,31.2,69.6,69.6
				C635.8,428.1,604.6,459.2,566.2,459.2z M566.2,266.1c-68.2,0-123.5,55.3-123.5,123.5S498,513.1,566.2,513.1
				s123.5-55.3,123.5-123.5S634.4,266.1,566.2,266.1z"/>
			<path class="st3" d="M563.7,455c-38.4,0-69.6-31.1-69.6-69.6c0-38.4,31.2-69.6,69.6-69.6c38.4,0,69.6,31.2,69.6,69.6
				C633.3,423.8,602.1,455,563.7,455z M563.7,261.9c-68.2,0-123.5,55.3-123.5,123.5s55.3,123.5,123.5,123.5s123.5-55.3,123.5-123.5
				S631.9,261.9,563.7,261.9z"/>
			<path class="st4" d="M561.3,450.8c-38.4,0-69.6-31.1-69.6-69.6c0-38.4,31.2-69.6,69.6-69.6c38.4,0,69.6,31.2,69.6,69.6
				C630.8,419.6,599.7,450.8,561.3,450.8z M561.3,257.7c-68.2,0-123.5,55.3-123.5,123.5s55.3,123.5,123.5,123.5
				s123.5-55.3,123.5-123.5S629.5,257.7,561.3,257.7z"/>
			<path class="st4" d="M558.8,446.5c-38.4,0-69.6-31.1-69.6-69.6c0-38.4,31.2-69.6,69.6-69.6c38.4,0,69.6,31.2,69.6,69.6
				C628.4,415.4,597.2,446.5,558.8,446.5z M558.8,253.5c-68.2,0-123.5,55.3-123.5,123.5s55.3,123.5,123.5,123.5
				s123.5-55.3,123.5-123.5S627,253.5,558.8,253.5z"/>
			<path class="st5" d="M556.3,442.3c-38.4,0-69.6-31.1-69.6-69.6c0-38.4,31.2-69.6,69.6-69.6c38.4,0,69.6,31.2,69.6,69.6
				C625.9,411.2,594.8,442.3,556.3,442.3z M556.3,249.2c-68.2,0-123.5,55.3-123.5,123.5s55.3,123.5,123.5,123.5
				s123.5-55.3,123.5-123.5S624.5,249.2,556.3,249.2z"/>
			<path class="st6" d="M553.9,438.1c-38.4,0-69.6-31.1-69.6-69.6c0-38.4,31.2-69.6,69.6-69.6c38.4,0,69.6,31.2,69.6,69.6
				C623.5,406.9,592.3,438.1,553.9,438.1z M553.9,245c-68.2,0-123.5,55.3-123.5,123.5S485.7,492,553.9,492s123.5-55.3,123.5-123.5
				S622.1,245,553.9,245z"/>
			<path class="st7" d="M551.4,433.8c-38.4,0-69.6-31.1-69.6-69.6c0-38.4,31.2-69.6,69.6-69.6c38.4,0,69.6,31.2,69.6,69.6
				C621,402.7,589.8,433.8,551.4,433.8z M551.4,240.8c-68.2,0-123.5,55.3-123.5,123.5s55.3,123.5,123.5,123.5
				c68.2,0,123.5-55.3,123.5-123.5S619.6,240.8,551.4,240.8z"/>
			<path class="st8" d="M549,429.6c-38.4,0-69.6-31.1-69.6-69.6c0-38.4,31.2-69.6,69.6-69.6c38.4,0,69.6,31.2,69.6,69.6
				C618.5,398.5,587.4,429.6,549,429.6z M549,236.5c-68.2,0-123.5,55.3-123.5,123.5S480.8,483.5,549,483.5S672.4,428.2,672.4,360
				S617.1,236.5,549,236.5z"/>
			<path class="st9" d="M546.5,425.4c-38.4,0-69.6-31.1-69.6-69.6c0-38.4,31.2-69.6,69.6-69.6c38.4,0,69.6,31.2,69.6,69.6
				C616.1,394.2,584.9,425.4,546.5,425.4z M546.5,232.3c-68.2,0-123.5,55.3-123.5,123.5s55.3,123.5,123.5,123.5S670,424,670,355.8
				S614.7,232.3,546.5,232.3z"/>
			<path class="st10" d="M544,421.2c-38.4,0-69.6-31.1-69.6-69.6c0-38.4,31.2-69.6,69.6-69.6c38.4,0,69.6,31.2,69.6,69.6
				C613.6,390,582.4,421.2,544,421.2z M544,228.1c-68.2,0-123.5,55.3-123.5,123.5S475.8,475.1,544,475.1s123.5-55.3,123.5-123.5
				S612.2,228.1,544,228.1z"/>
			<path class="st11" d="M541.6,416.9c-38.4,0-69.6-31.1-69.6-69.6c0-38.4,31.2-69.6,69.6-69.6c38.4,0,69.6,31.2,69.6,69.6
				C611.1,385.8,580,416.9,541.6,416.9z M541.6,223.9c-68.2,0-123.5,55.3-123.5,123.5s55.3,123.5,123.5,123.5
				s123.5-55.3,123.5-123.5S609.8,223.9,541.6,223.9z"/>
			<path class="st12" d="M539.1,412.7c-38.4,0-69.6-31.1-69.6-69.6c0-38.4,31.2-69.6,69.6-69.6c38.4,0,69.6,31.2,69.6,69.6
				C608.7,381.6,577.5,412.7,539.1,412.7z M539.1,219.6c-68.2,0-123.5,55.3-123.5,123.5s55.3,123.5,123.5,123.5
				s123.5-55.3,123.5-123.5S607.3,219.6,539.1,219.6z"/>
			<path class="st12" d="M536.6,408.5c-38.4,0-69.6-31.1-69.6-69.6c0-38.4,31.2-69.6,69.6-69.6c38.4,0,69.6,31.2,69.6,69.6
				C606.2,377.3,575.1,408.5,536.6,408.5z M536.6,215.4c-68.2,0-123.5,55.3-123.5,123.5s55.3,123.5,123.5,123.5
				s123.5-55.3,123.5-123.5S604.8,215.4,536.6,215.4z"/>
			<path class="st13" d="M534.2,404.3c-38.4,0-69.6-31.1-69.6-69.6c0-38.4,31.2-69.6,69.6-69.6c38.4,0,69.6,31.2,69.6,69.6
				C603.8,373.1,572.6,404.3,534.2,404.3z M534.2,211.2c-68.2,0-123.5,55.3-123.5,123.5S466,458.2,534.2,458.2
				s123.5-55.3,123.5-123.5S602.4,211.2,534.2,211.2z"/>
			<path class="st13" d="M531.7,400c-38.4,0-69.6-31.1-69.6-69.6c0-38.4,31.2-69.6,69.6-69.6c38.4,0,69.6,31.2,69.6,69.6
				C601.3,368.9,570.1,400,531.7,400z M531.7,207c-68.2,0-123.5,55.3-123.5,123.5s55.3,123.5,123.5,123.5s123.5-55.3,123.5-123.5
				S599.9,207,531.7,207z"/>
			<path class="st14" d="M529.2,395.8c-38.4,0-69.6-31.1-69.6-69.6c0-38.4,31.2-69.6,69.6-69.6c38.4,0,69.6,31.2,69.6,69.6
				C598.8,364.7,567.7,395.8,529.2,395.8z M529.2,202.7c-68.2,0-123.5,55.3-123.5,123.5S461,449.7,529.2,449.7
				s123.5-55.3,123.5-123.5S597.4,202.7,529.2,202.7z"/>
			<path class="st14" d="M526.8,391.6c-38.4,0-69.6-31.1-69.6-69.6c0-38.4,31.2-69.6,69.6-69.6c38.4,0,69.6,31.2,69.6,69.6
				C596.4,360.4,565.2,391.6,526.8,391.6z M526.8,198.5c-68.2,0-123.5,55.3-123.5,123.5s55.3,123.5,123.5,123.5
				S650.3,390.2,650.3,322S595,198.5,526.8,198.5z"/>
			<path class="st15" d="M524.3,387.3c-38.4,0-69.6-31.1-69.6-69.6c0-38.4,31.2-69.6,69.6-69.6c38.4,0,69.6,31.2,69.6,69.6
				C593.9,356.2,562.7,387.3,524.3,387.3z M524.3,194.3c-68.2,0-123.5,55.3-123.5,123.5s55.3,123.5,123.5,123.5
				S647.8,386,647.8,317.8S592.5,194.3,524.3,194.3z"/>
			<path class="st15" d="M521.9,383.1c-38.4,0-69.6-31.1-69.6-69.6c0-38.4,31.2-69.6,69.6-69.6c38.4,0,69.6,31.2,69.6,69.6
				C591.4,352,560.3,383.1,521.9,383.1z M521.9,190c-68.2,0-123.5,55.3-123.5,123.5S453.7,437,521.9,437s123.5-55.3,123.5-123.5
				S590.1,190,521.9,190z"/>
			<path class="st16" d="M519.4,378.9c-38.4,0-69.6-31.1-69.6-69.6c0-38.4,31.2-69.6,69.6-69.6c38.4,0,69.6,31.2,69.6,69.6
				C589,347.7,557.8,378.9,519.4,378.9z M519.4,185.8c-68.2,0-123.5,55.3-123.5,123.5s55.3,123.5,123.5,123.5
				s123.5-55.3,123.5-123.5S587.6,185.8,519.4,185.8z"/>
			<path class="st17" d="M516.9,374.7c-38.4,0-69.6-31.1-69.6-69.6c0-38.4,31.2-69.6,69.6-69.6c38.4,0,69.6,31.2,69.6,69.6
				C586.5,343.5,555.3,374.7,516.9,374.7z M516.9,181.6c-68.2,0-123.5,55.3-123.5,123.5s55.3,123.5,123.5,123.5
				c68.2,0,123.5-55.3,123.5-123.5S585.1,181.6,516.9,181.6z"/>
			<path class="st18" d="M514.5,370.4c-38.4,0-69.6-31.1-69.6-69.6c0-38.4,31.2-69.6,69.6-69.6c38.4,0,69.6,31.2,69.6,69.6
				C584,339.3,552.9,370.4,514.5,370.4z M514.5,177.4c-68.2,0-123.5,55.3-123.5,123.5s55.3,123.5,123.5,123.5S638,369,638,300.8
				S582.7,177.4,514.5,177.4z"/>
			<path class="st19" d="M512,366.2c-38.4,0-69.6-31.1-69.6-69.6c0-38.4,31.2-69.6,69.6-69.6c38.4,0,69.6,31.2,69.6,69.6
				C581.6,335.1,550.4,366.2,512,366.2z M512,173.1c-68.2,0-123.5,55.3-123.5,123.5S443.8,420.1,512,420.1s123.5-55.3,123.5-123.5
				S580.2,173.1,512,173.1z"/>
			<path class="st20" d="M509.5,362c-38.4,0-69.6-31.1-69.6-69.6c0-38.4,31.2-69.6,69.6-69.6c38.4,0,69.6,31.2,69.6,69.6
				C579.1,330.8,548,362,509.5,362z M509.5,168.9c-68.2,0-123.5,55.3-123.5,123.5s55.3,123.5,123.5,123.5S633,360.6,633,292.4
				S577.7,168.9,509.5,168.9z"/>
			<path class="st21" d="M507.1,357.7c-38.4,0-69.6-31.1-69.6-69.6c0-38.4,31.2-69.6,69.6-69.6c38.4,0,69.6,31.2,69.6,69.6
				C576.7,326.6,545.5,357.7,507.1,357.7z M507.1,164.7c-68.2,0-123.5,55.3-123.5,123.5s55.3,123.5,123.5,123.5
				s123.5-55.3,123.5-123.5S575.3,164.7,507.1,164.7z"/>
			<path class="st21" d="M504.6,353.5c-38.4,0-69.6-31.1-69.6-69.6c0-38.4,31.2-69.6,69.6-69.6c38.4,0,69.6,31.2,69.6,69.6
				C574.2,322.4,543,353.5,504.6,353.5z M504.6,160.4c-68.2,0-123.5,55.3-123.5,123.5s55.3,123.5,123.5,123.5
				s123.5-55.3,123.5-123.5S572.8,160.4,504.6,160.4z"/>
			<path class="st22" d="M502.2,349.3c-38.4,0-69.6-31.1-69.6-69.6c0-38.4,31.2-69.6,69.6-69.6c38.4,0,69.6,31.2,69.6,69.6
				C571.7,318.2,540.6,349.3,502.2,349.3z M502.2,156.2c-68.2,0-123.5,55.3-123.5,123.5S434,403.2,502.2,403.2
				s123.5-55.3,123.5-123.5S570.3,156.2,502.2,156.2z"/>
			<path class="st22" d="M499.7,345.1c-38.4,0-69.6-31.1-69.6-69.6c0-38.4,31.2-69.6,69.6-69.6c38.4,0,69.6,31.2,69.6,69.6
				C569.3,313.9,538.1,345.1,499.7,345.1z M499.7,152c-68.2,0-123.5,55.3-123.5,123.5S431.5,399,499.7,399s123.5-55.3,123.5-123.5
				S567.9,152,499.7,152z"/>
		</g>
		<linearGradient id="SVGID_2_" gradientUnits="userSpaceOnUse" x1="625.3037" y1="381.6836" x2="421.2617" y2="209.1788">
			<stop  offset="0" style="stop-color:#1E2029"/>
			<stop  offset="4.695699e-02" style="stop-color:#23252D"/>
			<stop  offset="0.1145" style="stop-color:#26282F"/>
			<stop  offset="1" style="stop-color:#34363A"/>
		</linearGradient>
		<path class="st25" d="M499.7,152c-68.2,0-123.5,55.3-123.5,123.5S431.5,399,499.7,399s123.5-55.3,123.5-123.5S567.9,152,499.7,152
			z M499.7,345.1c-38.4,0-69.6-31.1-69.6-69.6c0-38.4,31.2-69.6,69.6-69.6c38.4,0,69.6,31.2,69.6,69.6
			C569.3,313.9,538.1,345.1,499.7,345.1z"/>
		<g>
			<path class="st24" d="M570.5,279.2c0,3.5-0.7,6.9-1.2,10.4c-0.8,3.3-1.5,6.8-2.8,10c-1,3.3-2.7,6.4-4.2,9.6c-1.8,3-3.4,6-5.6,8.8
				c-2,2.9-4.5,5.3-6.8,7.9c-2.6,2.3-5.1,4.8-8,6.7c-2.7,2.2-5.8,3.8-8.8,5.6l-4.7,2.3c-1.5,0.8-3.2,1.3-4.9,1.9l-2.4,0.9
				c-0.8,0.3-1.7,0.4-2.5,0.7c-1.7,0.4-3.4,0.9-5.1,1.3c-3.4,0.5-6.9,1.1-10.3,1.2c-3.5,0.3-6.9,0-10.4-0.2l-5.1-0.8
				c-1.7-0.2-3.4-0.8-5.1-1.1c-6.7-1.8-13.1-4.4-19-8c-5.9-3.7-11.2-8.1-15.8-13.2c-9.2-10.2-15-23.2-16.8-36.5
				c5.2,33.2,34,58.7,68.7,58.7c38.4,0,69.6-31.1,69.6-69.6c0-38.4-31.2-69.6-69.6-69.6c-3.2,0-6.3,0.2-9.3,0.6c-0.1,0-0.2,0-0.2,0
				c6.7-1.1,13.6-1.1,20.4-0.2c3.4,0.3,6.7,1.3,10.1,2.1c3.2,1.2,6.6,2.1,9.6,3.7c3.2,1.3,6.1,3.3,9,5c2.8,2,5.6,4,8.1,6.4
				c1.3,1.1,2.6,2.3,3.7,3.6c1.2,1.3,2.4,2.5,3.5,3.8l3.1,4.1c1.1,1.4,1.9,2.9,2.8,4.4c3.6,5.9,6.5,12.3,8,19.1l0.6,2.5l0.4,2.6
				c0.2,1.7,0.6,3.4,0.7,5.2C570.5,272.3,570.9,275.8,570.5,279.2z"/>
			<path class="st24" d="M620.3,249.1c-3-12.3-7.9-24.2-14.4-35c-6.5-10.9-14.8-20.7-24.3-29.1c-18.8-16.9-43-27.7-68.1-30.1
				c-3.1-0.5-6.3-0.4-9.4-0.6l-4.7-0.2l-4.7,0.3l-4.7,0.2c-1.6,0.1-3.1,0.1-4.7,0.4l-9.3,1.5c-12.3,2.6-24.2,7-35.2,13.1
				c-11,6.1-20.8,14.1-29.4,23.2l-3.1,3.5c-1,1.2-2.1,2.3-3,3.6l-5.6,7.5c-3.3,5.3-6.7,10.6-9.3,16.3c-5.3,11.3-9.3,23.4-10.7,35.9
				c-0.6,3.1-0.7,6.2-0.8,9.4c-0.1,3.1-0.5,6.3-0.2,9.4l0.4,9.4l1.4,9.3c2.3,12.3,6.3,24.4,12.1,35.5c6,11,13.5,21.3,22.4,30.1
				l6.9,6.4c2.5,1.9,5,3.8,7.5,5.7l1.9,1.5c0.6,0.4,1.3,0.8,2,1.3l8,5l4.2,2.1l4.3,2.1l2.1,1l2.2,0.8l8.9,3.3
				c6.1,1.6,12.2,3.5,18.5,4.3c25,4.4,51.3,0.3,74.2-10.8c-16.9,8.6-36,13.5-56.2,13.5c-68.2,0-123.5-55.3-123.5-123.5
				S431.5,152,499.7,152C558.8,152,608.2,193.6,620.3,249.1z"/>
		</g>
	</g>
	<g>
		<g>
			<path class="st0" d="M924.1,444V278.8h-58.8L740.2,444v47.6h130.2v34.2h53.6v-34.2H947V444H924.1z M870.4,444h-66.1
				c0,0,64-81.4,66.1-85.1C870.4,362.1,870.4,444,870.4,444z"/>
			<path class="st1" d="M921.5,439.7V274.5h-58.8l-125,165.2v47.6h130.2v34.2h53.6v-34.2h22.9v-47.6H921.5z M867.9,439.7h-66.1
				c0,0,64-81.4,66.1-85.1C867.9,357.7,867.9,439.7,867.9,439.7z"/>
			<path class="st2" d="M918.9,435.3V270.1h-58.8l-125,165.2v47.6h130.2v34.2h53.6v-34.2h22.9v-47.6H918.9z M865.3,435.3h-66.1
				c0,0,64-81.4,66.1-85.1C865.3,353.4,865.3,435.3,865.3,435.3z"/>
			<path class="st3" d="M916.4,431V265.8h-58.8L732.6,431v47.6h130.2v34.2h53.6v-34.2h22.9V431H916.4z M862.7,431h-66.1
				c0,0,64-81.4,66.1-85.1C862.8,349.1,862.7,431,862.7,431z"/>
			<path class="st3" d="M913.8,426.7V261.5H855L730,426.7v47.6h130.2v34.2h53.6v-34.2h22.9v-47.6H913.8z M860.2,426.7h-66.1
				c0,0,64-81.4,66.1-85.1C860.2,344.7,860.2,426.7,860.2,426.7z"/>
			<path class="st4" d="M911.3,422.3V257.1h-58.8l-125,165.2v47.6h130.2v34.2h53.6v-34.2h22.9v-47.6H911.3z M857.6,422.3h-66.1
				c0,0,64-81.4,66.1-85.1C857.6,340.4,857.6,422.3,857.6,422.3z"/>
			<path class="st4" d="M908.7,418V252.8h-58.8L724.9,418v47.6h130.2v34.2h53.6v-34.2h22.9V418H908.7z M855.1,418H789
				c0,0,64-81.4,66.1-85.1C855.1,336,855.1,418,855.1,418z"/>
			<path class="st5" d="M906.1,413.6V248.4h-58.8l-125,165.2v47.6h130.2v34.2h53.6v-34.2H929v-47.6H906.1z M852.5,413.6h-66.1
				c0,0,64-81.4,66.1-85.1C852.5,331.7,852.5,413.6,852.5,413.6z"/>
			<path class="st6" d="M903.6,409.3V244.1h-58.8l-125,165.2v47.6h130.2v34.2h53.6v-34.2h22.9v-47.6H903.6z M849.9,409.3h-66.1
				c0,0,64-81.4,66.1-85.1C850,327.4,849.9,409.3,849.9,409.3z"/>
			<path class="st7" d="M901,405V239.7h-58.8L717.2,405v47.6h130.2v34.2H901v-34.2h22.9V405H901z M847.4,405h-66.1
				c0,0,64-81.4,66.1-85.1C847.4,323,847.4,405,847.4,405z"/>
			<path class="st8" d="M898.5,400.6V235.4h-58.8l-125,165.2v47.6h130.2v34.2h53.6v-34.2h22.9v-47.6H898.5z M844.8,400.6h-66.1
				c0,0,64-81.4,66.1-85.1C844.8,318.7,844.8,400.6,844.8,400.6z"/>
			<path class="st9" d="M895.9,396.3V231.1h-58.8l-125,165.2v47.6h130.2V478h53.6v-34.2h22.9v-47.6H895.9z M842.3,396.3h-66.1
				c0,0,64-81.4,66.1-85.1C842.3,314.3,842.3,396.3,842.3,396.3z"/>
			<path class="st10" d="M893.3,391.9V226.7h-58.8l-125,165.2v47.6h130.2v34.2h53.6v-34.2h22.9v-47.6H893.3z M839.7,391.9h-66.1
				c0,0,64-81.4,66.1-85.1C839.7,310,839.7,391.9,839.7,391.9z"/>
			<path class="st11" d="M890.8,387.6V222.4H832L707,387.6v47.6h130.2v34.2h53.6v-34.2h22.9v-47.6H890.8z M837.1,387.6h-66.1
				c0,0,64-81.4,66.1-85.1C837.2,305.6,837.1,387.6,837.1,387.6z"/>
			<path class="st12" d="M888.2,383.3V218h-58.8l-125,165.2v47.6h130.2V465h53.6v-34.2h22.9v-47.6H888.2z M834.6,383.3h-66.1
				c0,0,64-81.4,66.1-85.1C834.6,301.3,834.6,383.3,834.6,383.3z"/>
			<path class="st12" d="M885.7,378.9V213.7h-58.8l-125,165.2v47.6H832v34.2h53.6v-34.2h22.9v-47.6H885.7z M832,378.9H766
				c0,0,64-81.4,66.1-85.1C832,297,832,378.9,832,378.9z"/>
			<path class="st13" d="M883.1,374.6V209.4h-58.8l-125,165.2v47.6h130.2v34.2h53.6v-34.2H906v-47.6H883.1z M829.5,374.6h-66.1
				c0,0,64-81.4,66.1-85.1C829.5,292.6,829.5,374.6,829.5,374.6z"/>
			<path class="st13" d="M880.5,370.2V205h-58.8l-125,165.2v47.6h130.2V452h53.6v-34.2h22.9v-47.6H880.5z M826.9,370.2h-66.1
				c0,0,64-81.4,66.1-85.1C826.9,288.3,826.9,370.2,826.9,370.2z"/>
			<path class="st14" d="M878,365.9V200.7h-58.8l-125,165.2v47.6h130.2v34.2H878v-34.2h22.9v-47.6H878z M824.3,365.9h-66.1
				c0,0,64-81.4,66.1-85.1C824.4,283.9,824.3,365.9,824.3,365.9z"/>
			<path class="st14" d="M875.4,361.5V196.3h-58.8l-125,165.2v47.6h130.2v34.2h53.6v-34.2h22.9v-47.6H875.4z M821.8,361.5h-66.1
				c0,0,64-81.4,66.1-85.1C821.8,279.6,821.8,361.5,821.8,361.5z"/>
			<path class="st15" d="M872.9,357.2V192h-58.8l-125,165.2v47.6h130.2V439h53.6v-34.2h22.9v-47.6H872.9z M819.2,357.2h-66.1
				c0,0,64-81.4,66.1-85.1C819.2,275.3,819.2,357.2,819.2,357.2z"/>
			<path class="st15" d="M870.3,352.9V187.7h-58.8l-125,165.2v47.6h130.2v34.2h53.6v-34.2h22.9v-47.6H870.3z M816.7,352.9h-66.1
				c0,0,64-81.4,66.1-85.1C816.7,270.9,816.7,352.9,816.7,352.9z"/>
			<path class="st16" d="M867.7,348.5V183.3h-58.8l-125,165.2v47.6h130.2v34.2h53.6v-34.2h22.9v-47.6H867.7z M814.1,348.5H748
				c0,0,64-81.4,66.1-85.1C814.1,266.6,814.1,348.5,814.1,348.5z"/>
			<path class="st17" d="M865.2,344.2V179h-58.8l-125,165.2v47.6h130.2v34.2h53.6v-34.2h22.9v-47.6H865.2z M811.5,344.2h-66.1
				c0,0,64-81.4,66.1-85.1C811.6,262.2,811.5,344.2,811.5,344.2z"/>
			<path class="st18" d="M862.6,339.8V174.6h-58.8l-125,165.2v47.6H809v34.2h53.6v-34.2h22.9v-47.6H862.6z M809,339.8h-66.1
				c0,0,64-81.4,66.1-85.1C809,257.9,809,339.8,809,339.8z"/>
			<path class="st19" d="M860.1,335.5V170.3h-58.8l-125,165.2v47.6h130.2v34.2h53.6v-34.2H883v-47.6H860.1z M806.4,335.5h-66.1
				c0,0,64-81.4,66.1-85.1C806.4,253.6,806.4,335.5,806.4,335.5z"/>
			<path class="st20" d="M857.5,331.2V165.9h-58.8l-125,165.2v47.6h130.2v34.2h53.6v-34.2h22.9v-47.6H857.5z M803.9,331.2h-66.1
				c0,0,64-81.4,66.1-85.1C803.9,249.2,803.9,331.2,803.9,331.2z"/>
			<path class="st21" d="M854.9,326.8V161.6h-58.8l-125,165.2v47.6h130.2v34.2h53.6v-34.2h22.9v-47.6H854.9z M801.3,326.8h-66.1
				c0,0,64-81.4,66.1-85.1C801.3,244.9,801.3,326.8,801.3,326.8z"/>
			<path class="st21" d="M852.4,322.5V157.3h-58.8l-125,165.2v47.6h130.2v34.2h53.6v-34.2h22.9v-47.6H852.4z M798.7,322.5h-66.1
				c0,0,64-81.4,66.1-85.1C798.8,240.5,798.7,322.5,798.7,322.5z"/>
			<path class="st22" d="M849.8,318.1V152.9H791L666,318.1v47.6h130.2v34.2h53.6v-34.2h22.9v-47.6H849.8z M796.2,318.1h-66.1
				c0,0,64-81.4,66.1-85.1C796.2,236.2,796.2,318.1,796.2,318.1z"/>
			<path class="st22" d="M847.3,313.8V148.6h-58.8l-125,165.2v47.6h130.2v34.2h53.6v-34.2h22.9v-47.6H847.3z M793.6,313.8h-66.1
				c0,0,64-81.4,66.1-85.1C793.6,231.8,793.6,313.8,793.6,313.8z"/>
		</g>
		<linearGradient id="SVGID_3_" gradientUnits="userSpaceOnUse" x1="921.2972" y1="372.9251" x2="674.319" y2="197.3806">
			<stop  offset="0" style="stop-color:#1E2029"/>
			<stop  offset="4.695699e-02" style="stop-color:#23252D"/>
			<stop  offset="0.1145" style="stop-color:#26282F"/>
			<stop  offset="1" style="stop-color:#34363A"/>
		</linearGradient>
		<path class="st26" d="M847.3,313.8V148.6h-58.8l-125,165.2v47.6h130.2v34.2h53.6v-34.2h22.9v-47.6H847.3z M793.6,313.8h-66.1
			c0,0,64-81.4,66.1-85.1C793.6,231.8,793.6,313.8,793.6,313.8z"/>
		<g>
			<polygon class="st24" points="847.3,148.6 847.3,149.9 789.1,149.9 664.8,314.2 664.8,361.4 663.5,361.4 663.5,313.8 
				788.5,148.6 			"/>
			<path class="st24" d="M793.7,228.7c0,3.1-0.1,85.1-0.1,85.1h-66.1c0,0,0.4-0.5,1.1-1.3h63.6l0.1-81.9
				C793.1,229.6,793.5,229,793.7,228.7z"/>
			<rect x="792.3" y="361.4" class="st24" width="1.3" height="33.4"/>
			<rect x="847.3" y="312.5" class="st24" width="22.9" height="1.3"/>
		</g>
	</g>
</g>
</svg>

