<svg version="1.1" xmlns="http://www.w3.org/2000/svg" xmlns:xlink="http://www.w3.org/1999/xlink" x="0px" y="0px"
	 viewBox="0 0 605 130" style="enable-background:new 0 0 605 130;" xml:space="preserve">
<style type="text/css">
	.st0{fill:#FFCE00;}
	.st1{fill:#B7991A;}
	.st2{fill:#7F6700;}
</style>
<path class="st0" d="M84.6,64.9v15.7l13.5,7.8V57.1L84.6,64.9z M97.5,87.4l-12.4-7.2V64.6l12.4-7.2V87.4z"/>
<path class="st0" d="M71.1,26v15.7l13.5-7.8V18.2L71.1,26z M84.1,33.5l-12.4,7.2l0-14.4l12.4-7.2L84.1,33.5z"/>
<path class="st0" d="M57.6,18.2v15.7l13.5,7.8V26L57.6,18.2z M70.6,40.7l-12.4-7.2V19.1l12.4,7.2V40.7z"/>
<path class="st0" d="M30.7,33.8l13.5,7.8l13.5-7.8V18.2L30.7,33.8z M31.2,34.1l25.9-15v14.4l-13.5,7.8"/>
<path class="st0" d="M17.2,72.7v15.7l13.5-7.8V64.9L17.2,72.7z M30.1,80.2l-12.4,7.2V73l12.4-7.2V80.2z"/>
<path class="st0" d="M30.7,80.5l-13.5,7.8l40.4,23.5V96.2L30.7,80.5z M57.1,110.9L18.2,88.4l12.4-7.2l26.4,15.3
	C57.1,96.5,57.1,110.9,57.1,110.9z"/>
<path class="st0" d="M84.6,80.5l-27,15.7v15.7l40.4-23.5L84.6,80.5z M58.1,96.5l26.4-15.3L97,88.4l-38.9,22.6L58.1,96.5z"/>
<path class="st0" d="M17.2,57.3L3.5,64.9l13.7,7.8l13.5-7.8L17.2,57.3z M4.6,64.9l12.6-7l12.4,7l-12.4,7.2L4.6,64.9z"/>
<polygon class="st1" points="111.8,33.8 57.6,64.9 30.7,49.5 3.5,33.8 57.6,2.5 84.6,18.2 71.1,26 57.6,18.2 30.7,33.8 44.1,41.6 
	57.6,49.5 71.1,41.6 84.6,33.8 98.3,26 "/>
<path class="st0" d="M57.6,64.9v15.7l13.5-7.8l27-15.7v31.3l-27,15.7l-13.5,7.8v15.7l54.1-31.3V33.8L57.6,64.9z"/>
<polygon class="st2" points="57.6,64.9 57.6,80.5 44.1,72.7 30.7,64.9 17.2,57.3 3.5,49.5 3.5,33.8 30.7,49.5 "/>
<polygon class="st2" points="57.6,111.8 57.6,127.5 3.5,96.2 3.5,64.9 17.2,72.7 17.2,88.4 44.1,104 "/>
<path class="st0" d="M137,86.2c3.5,2.2,8.7,3.9,14.1,3.9c8,0,12.8-4.3,12.8-10.4c0-5.7-3.3-8.9-11.5-12.2
	c-10-3.5-16.1-8.7-16.1-17.4c0-9.6,7.8-16.5,19.8-16.5c6.3,0,10.9,1.5,13.5,3l-2.2,6.5c-2-1.1-6.1-2.8-11.5-2.8
	c-8.3,0-11.5,5-11.5,9.1c0,5.7,3.7,8.5,12.2,11.7c10.4,3.9,15.7,8.9,15.7,18c0,9.3-7,17.6-21.3,17.6c-5.9,0-12.4-1.7-15.7-3.9
	L137,86.2z"/>
<path class="st0" d="M182.8,34.7h32.8v6.5h-25v20.2h23v6.5h-23v27.6h-7.8V34.7z"/>
<path class="st0" d="M279.1,64.7c0,21.1-12.8,32.2-28.5,32.2c-16.1,0-27.4-12.6-27.4-31.1c0-19.3,12-32.2,28.5-32.2
	C268.5,33.8,279.1,46.6,279.1,64.7z M231.7,65.8c0,13,7.2,24.8,19.6,24.8c12.6,0,19.6-11.5,19.6-25.4c0-12.2-6.3-24.8-19.6-24.8
	C238.3,40.3,231.7,52.3,231.7,65.8z"/>
<path class="st0" d="M289.3,34.2h15.2c8.5,0,13.9,1.5,17.6,5c3,2.8,4.8,7,4.8,11.5c0,8-5,13.5-11.5,15.7v0.2
	c4.8,1.7,7.2,6.1,8.9,12.4c2.4,8.5,4.8,16.7,4.8,16.7h-8c0,0-1.7-6.7-4.1-14.6c-2.4-8.3-5-11.5-12.2-12h-7.4v26.5h-7.8V34.2H289.3z
	 M297.4,63.4h8c8.5,0,13.7-4.6,13.7-11.5c0-7.8-5.7-11.3-14.1-11.5h-7.8v23C297.2,63.4,297.4,63.4,297.4,63.4z"/>
<path class="st0" d="M401.9,34.2h15.2c8.5,0,13.9,1.5,17.6,5c3,2.8,4.8,7,4.8,11.5c0,8-5,13.5-11.5,15.7v0.2
	c4.8,1.7,7.2,6.1,8.9,12.4c2.4,8.5,4.8,16.7,4.8,16.7h-8.3c0,0-1.7-6.7-4.1-14.6c-2.4-8.3-5-11.5-12.2-12h-7.4v26.5h-7.8V34.2z
	 M410,63.4h8c8.5,0,13.7-4.6,13.7-11.5c0-7.8-5.7-11.3-14.1-11.5h-7.8v23C409.8,63.4,410,63.4,410,63.4z"/>
<path class="st0" d="M336.1,91.2c0-3.3,2.2-5.7,5.4-5.7s5.4,2.4,5.4,5.7c0,3.3-2.2,5.7-5.4,5.7C338.3,96.8,336.1,94.5,336.1,91.2z"
	/>
<path class="st0" d="M368.7,41.4H350v-6.7h45.2v6.7h-18.7v54.3h-8V41.4H368.7z"/>
<path class="st0" d="M461.1,76.6l-6.3,19.1h-8.3l20.9-61.1h9.6l20.9,61.1h-8.5l-6.5-19.1H461.1z M481.3,70.5l-6.1-17.6
	c-1.3-3.9-2.2-7.6-3.3-11.1h-0.2c-0.9,3.7-2,7.4-3,11.1l-6.1,17.6H481.3z"/>
<path class="st0" d="M506.7,34.2c0,0,10.4,0,16.7,0c11.3,0,19.3,2.6,24.8,7.6s8.7,12,8.7,22s-3,18-8.7,23.7
	c-5.7,5.7-15.2,8.7-27,8.7h-14.3v-62H506.7z M514.5,90.3h8.5c18.5-0.4,25.4-9.8,25.4-26.3c0-14.3-8-24.1-24.6-24.1h-9.3V90.3z"/>
<path class="st0" d="M598.7,67.3H575v22h26.5v6.5h-34.3V34.7h33v6.5H575v19.3h23.7V67.3z"/>
</svg>
