<?xml version="1.0" encoding="utf-8"?>
<!-- Generator: Adobe Illustrator 24.1.2, SVG Export Plug-In . SVG Version: 6.00 Build 0)  -->
<svg version="1.1" id="Слой_1" xmlns="http://www.w3.org/2000/svg" xmlns:xlink="http://www.w3.org/1999/xlink" x="0px" y="0px"
	 viewBox="0 0 175 175" style="enable-background:new 0 0 175 175;" xml:space="preserve">
<style type="text/css">
	.st0{fill:#323C3D;}
	.st1{fill:#282E30;}
	.st2{fill:#111516;}
</style>
<path class="st0" d="M124.8,87.3V109l18.7,10.8V76.4L124.8,87.3z M142.9,118.7l-17.2-9.9V87l17.2-10.2V118.7z"/>
<path class="st0" d="M106.2,33.4v21.7l18.7-10.8l-0.1-21.7L106.2,33.4z M124.1,43.8l-17,9.8V33.7l17-9.8V43.8z"/>
<path class="st0" d="M87.5,22.6v21.7l18.7,10.8V33.4L87.5,22.6z M105.6,53.6l-17.2-9.9V23.8l17.2,9.9
	C105.6,33.7,105.6,53.6,105.6,53.6z"/>
<path class="st0" d="M50.2,44.3l18.7,10.8l18.7-10.8l-0.1-21.7L50.2,44.3z M86.9,43.7L68,54.6l-17.1-10l36-20.9V43.7z"/>
<path class="st0" d="M31.5,98.2v21.7L50.2,109V87.3L31.5,98.2z M49.2,108.7L32,118.6V98.8l17.2-9.9V108.7z"/>
<path class="st0" d="M50.2,109l-18.7,10.9l56,32.5v-21.7L50.2,109z M86.9,151.2L33,119.9l17.2-9.9l36.7,21V151.2z"/>
<path class="st0" d="M124.8,109l-37.3,21.7v21.7l56.3-32.5L124.8,109z M88.1,131l36.7-21.1l17.2,9.9l-53.9,31.3V131z"/>
<path class="st0" d="M31.5,76.8l-19,10.5l19,10.9l18.7-10.9L31.5,76.8z M14,87.3l17.4-9.7l17,9.7l-17.2,9.9L14,87.3z"/>
<polygon class="st1" points="162.5,44.3 87.5,87.3 50.2,66 12.5,44.3 87.5,0.9 124.8,22.6 106.2,33.4 87.5,22.6 50.2,44.3 
	68.8,55.1 87.5,66 106.2,55.1 124.8,44.3 143.8,33.4 "/>
<path class="st0" d="M87.5,87.3V109l18.7-10.8l37.3-21.7v43.4l-37.3,21.7l-18.7,10.8v21.7l75-43.4V44.3L87.5,87.3z"/>
<polygon class="st2" points="87.5,87.3 87.5,109 68.8,98.2 50.2,87.3 31.5,76.8 12.5,66 12.5,44.3 50.2,66 "/>
<polygon class="st2" points="87.5,152.4 87.5,174.1 12.5,130.7 12.5,87.3 31.5,98.2 31.5,119.9 68.8,141.6 "/>
</svg>
