<?xml version="1.0" encoding="utf-8"?>
<!-- Generator: Adobe Illustrator 24.1.2, SVG Export Plug-In . SVG Version: 6.00 Build 0)  -->
<svg version="1.1"
	 id="Слой_1" xmlns:cc="http://creativecommons.org/ns#" xmlns:dc="http://purl.org/dc/elements/1.1/" xmlns:inkscape="http://www.inkscape.org/namespaces/inkscape" xmlns:rdf="http://www.w3.org/1999/02/22-rdf-syntax-ns#" xmlns:sodipodi="http://sodipodi.sourceforge.net/DTD/sodipodi-0.dtd" xmlns:svg="http://www.w3.org/2000/svg"
	 xmlns="http://www.w3.org/2000/svg" xmlns:xlink="http://www.w3.org/1999/xlink" x="0px" y="0px" viewBox="0 0 36 36"
	 style="enable-background:new 0 0 36 36;" xml:space="preserve">
<g>
	<path d="M1.7,1.7C1,1.7,0.5,2.2,0.5,2.8c0,0,0,0,0,0v30.3c0,0.6,0.5,1.2,1.2,1.2c0.4,0,0.7-0.2,0.9-0.4l6.6-8.1h25.1
		c0.6,0,1.2-0.5,1.2-1.2V2.8c0-0.6-0.5-1.2-1.2-1.2H1.7z M2.8,4h30.3v19.4H8.7c-0.4,0-0.7,0.2-0.9,0.4l-4.9,6V4z M9.6,10.3
		c-1.8,0-3.2,1.5-3.2,3.2c0,1.8,1.5,3.2,3.2,3.2c1.8,0,3.2-1.5,3.2-3.2C12.8,11.8,11.4,10.3,9.6,10.3z M18,10.3
		c-1.8,0-3.2,1.5-3.2,3.2c0,1.8,1.5,3.2,3.2,3.2c1.8,0,3.2-1.5,3.2-3.2C21.2,11.8,19.8,10.3,18,10.3z M26.4,10.3
		c-1.8,0-3.2,1.5-3.2,3.2c0,1.8,1.5,3.2,3.2,3.2s3.2-1.5,3.2-3.2C29.7,11.8,28.2,10.3,26.4,10.3z M9.6,12.7c0.5,0,0.9,0.4,0.9,0.9
		c0,0.5-0.4,0.9-0.9,0.9c-0.5,0-0.9-0.4-0.9-0.9C8.7,13.1,9.1,12.7,9.6,12.7z M18,12.7c0.5,0,0.9,0.4,0.9,0.9c0,0.5-0.4,0.9-0.9,0.9
		c-0.5,0-0.9-0.4-0.9-0.9C17.1,13.1,17.5,12.7,18,12.7z M26.4,12.7c0.5,0,0.9,0.4,0.9,0.9c0,0.5-0.4,0.9-0.9,0.9
		c-0.5,0-0.9-0.4-0.9-0.9C25.5,13.1,25.9,12.7,26.4,12.7z"/>
</g>
</svg>

