<?xml version="1.0" encoding="utf-8"?>
<!-- Generator: Adobe Illustrator 24.1.2, SVG Export Plug-In . SVG Version: 6.00 Build 0)  -->
<svg version="1.1" xmlns="http://www.w3.org/2000/svg" xmlns:xlink="http://www.w3.org/1999/xlink" x="0px" y="0px"
	 viewBox="0 0 260 260" style="enable-background:new 0 0 260 260;" xml:space="preserve">
<style type="text/css">
	.st0{fill:url(#SVGID_1_);}
	.st1{fill:#EFF501;}
	.st2{fill:url(#SVGID_2_);}
	.st3{fill:url(#SVGID_3_);}
</style>
	<linearGradient id="SVGID_1_" gradientUnits="userSpaceOnUse" x1="10.4" y1="179.75" x2="232.5" y2="179.75">
		<stop  offset="0" style="stop-color:#31363E"/>
		<stop  offset="1" style="stop-color:#494E56"/>
	</linearGradient>
	<path class="st0" d="M153.4,196.9c0,20.4,16.6,37,37.1,37h41.9c-1,13.2-12,23.6-25.4,23.6H35.9c-14.1,0-25.5-11.4-25.5-25.5V102
		c0,14.1,11.4,20.1,25.5,20.1h196.6v37.7h-42C170.1,159.9,153.4,176.5,153.4,196.9z"/>
	<path class="st1" d="M190.5,233.9h41.9c-0.4,5.1-2.3,9.8-5.2,13.6c1.2-2.6,1.9-5.5,2.2-8.5h-41.9c-20.4,0-37.1-16.6-37.1-37
		c0-8,2.6-15.5,6.9-21.5c-2.5,4.9-3.8,10.5-3.8,16.4C153.4,217.3,170.1,233.9,190.5,233.9z M35.9,122.1c-14.1,0-25.5-6-25.5-20.1v16
		c4.3,6.3,12.8,9.2,22.4,9.2h196.6v32.6h3.1v-37.7C232.5,122.1,35.9,122.1,35.9,122.1z"/>
	
		<linearGradient id="SVGID_2_" gradientUnits="userSpaceOnUse" x1="73.4953" y1="65.628" x2="244.2072" y2="62.5521" gradientTransform="matrix(1 0 0 -1 0 259.8898)">
		<stop  offset="0" style="stop-color:#191B23"/>
		<stop  offset="0.1308" style="stop-color:#23252D"/>
		<stop  offset="1" style="stop-color:#363C44"/>
	</linearGradient>
	<path class="st2" d="M190.5,168.1c-8,0-15.2,3.2-20.4,8.4c-5.3,5.2-8.5,12.4-8.5,20.4c0,15.9,12.9,28.8,28.9,28.8h59.1v-57.6H190.5
		z M190.7,215c-10,0-18.2-8.1-18.2-18.2s8.1-18.2,18.2-18.2c10,0,18.2,8.1,18.2,18.2S200.7,215,190.7,215z"/>
	<path class="st1" d="M204.4,185c2.8,3.2,4.4,7.3,4.4,11.9c0,10-8.1,18.2-18.1,18.2c-4.5,0-8.7-1.7-11.9-4.4
		c3.3,3.8,8.2,6.2,13.7,6.2c10,0,18.2-8.1,18.2-18.1C210.6,193.2,208.2,188.3,204.4,185z M190.5,168.1c-8,0-15.2,3.2-20.4,8.4
		c-5.3,5.2-8.5,12.4-8.5,20.4c0,8.4,3.6,15.9,9.3,21.2c-4.7-5.1-7.5-11.9-7.5-19.4c0-8,3.2-15.2,8.5-20.4c5.2-5.2,12.4-8.4,20.4-8.4
		h57.3v-1.8H190.5z"/>
	
		<linearGradient id="SVGID_3_" gradientUnits="userSpaceOnUse" x1="221.2294" y1="132.5805" x2="74.2702" y2="206.06" gradientTransform="matrix(1 0 0 -1 0 259.8898)">
		<stop  offset="0" style="stop-color:#31363E"/>
		<stop  offset="1" style="stop-color:#494E56"/>
	</linearGradient>
	<path class="st3" d="M30.3,94.8h11v19.7h-11c-5.4,0-9.9-4.4-9.9-9.8v-0.1C20.4,99.2,24.9,94.8,30.3,94.8z M208.7,104.7L208.7,104.7
		c0-5.5,4.5-9.9,9.9-9.9h-22.8V76.5c0-40.8-33.2-74-74-74s-74,33.2-74,74v18.3v19.7H163V94.8H74.1V76.5c0-26.3,21.4-47.8,47.8-47.8
		c26.3,0,47.7,21.4,47.7,47.8v18.3v19.7h49.1C213.2,114.6,208.8,110.2,208.7,104.7z"/>
	<path class="st1" d="M30.3,94.8c-5.5,0-9.9,4.4-9.9,9.8v0.1c0,2.7,1.1,5,2.8,6.8c-0.6-1.2-0.9-2.6-0.9-4v-0.1
		c0.1-5.5,4.5-9.8,9.9-9.8h9v-2.8H30.3z M121.8,2.5c-40.8,0-74,33.2-74,74v38h1.9V79.3c0-40.8,33.2-74,74-74
		c24.8,0,46.8,12.3,60.2,31.1C170.8,16,147.9,2.5,121.8,2.5z M162.1,51c4.7,7.4,7.4,16.2,7.4,25.5v38h1.9V79.3
		C171.5,68.7,168,58.9,162.1,51z"/>
</svg>

