<?xml version="1.0" encoding="utf-8"?>
<!-- Generator: Adobe Illustrator 24.1.2, SVG Export Plug-In . SVG Version: 6.00 Build 0)  -->
<svg version="1.1" id="Слой_1" xmlns="http://www.w3.org/2000/svg" xmlns:xlink="http://www.w3.org/1999/xlink" x="0px" y="0px"
	 viewBox="0 0 131.8 131.8" style="enable-background:new 0 0 131.8 131.8;" xml:space="preserve">
<style type="text/css">
	.st0{fill:#FFCE00;}
	.st1{fill:#B7991A;}
	.st2{fill:#7F6700;}
</style>
<path class="st0" d="M92.9,65.8v15.7l13.5,7.8V58L92.9,65.8z M105.8,88.3l-12.4-7.2V65.5l12.4-7.2V88.3z"/>
<path class="st0" d="M79.4,26.9v15.7l13.5-7.8V19.1L79.4,26.9z M92.4,34.4L80,41.6V27.2L92.4,20V34.4z"/>
<path class="st0" d="M65.9,19.1v15.7l13.5,7.8V26.9L65.9,19.1z M78.9,41.6l-12.4-7.2V20l12.4,7.2V41.6z"/>
<path class="st0" d="M39,34.7l13.5,7.8L66,34.7V19.1L39,34.7z M39.5,35l25.9-15v14.4l-13.5,7.8"/>
<path class="st0" d="M25.5,73.6v15.7L39,81.5V65.8L25.5,73.6z M38.4,81.1L26,88.3V73.9l12.4-7.2V81.1z"/>
<path class="st0" d="M39,81.4l-13.5,7.8l40.4,23.5V97.1L39,81.4z M65.4,111.8L26.5,89.3l12.4-7.2l26.4,15.3
	C65.4,97.4,65.4,111.8,65.4,111.8z"/>
<path class="st0" d="M92.9,81.4l-27,15.7v15.7l40.4-23.5L92.9,81.4z M66.4,97.4l26.4-15.3l12.5,7.2l-38.9,22.6V97.4z"/>
<path class="st0" d="M25.5,58.2l-13.7,7.6l13.7,7.8L39,65.8L25.5,58.2z M12.9,65.8l12.6-7l12.4,7L25.5,73L12.9,65.8z"/>
<polygon class="st1" points="120.1,34.7 65.9,65.8 39,50.4 11.8,34.7 65.9,3.4 92.9,19.1 79.4,26.9 65.9,19.1 39,34.7 52.4,42.5 
	65.9,50.4 79.4,42.5 92.9,34.7 106.6,26.9 "/>
<path class="st0" d="M65.9,65.8v15.7l13.5-7.8l27-15.7v31.3l-27,15.7l-13.5,7.8v15.7L120,97.2V34.7L65.9,65.8z"/>
<polygon class="st2" points="65.9,65.8 65.9,81.4 52.4,73.6 39,65.8 25.5,58.2 11.8,50.4 11.8,34.7 39,50.4 "/>
<polygon class="st2" points="65.9,112.7 65.9,128.4 11.8,97.1 11.8,65.8 25.5,73.6 25.5,89.3 52.4,104.9 "/>
</svg>
