<?xml version="1.0" encoding="utf-8"?>
<!-- Generator: Adobe Illustrator 24.1.2, SVG Export Plug-In . SVG Version: 6.00 Build 0)  -->
<svg version="1.1" id="Слой_4" xmlns="http://www.w3.org/2000/svg" xmlns:xlink="http://www.w3.org/1999/xlink" x="0px" y="0px"
	 viewBox="0 0 130.4 130.4" style="enable-background:new 0 0 130.4 130.4;" xml:space="preserve">
<style type="text/css">
	.st0{fill:url(#SVGID_1_);}
	.st1{fill:url(#SVGID_2_);}
	.st2{fill:url(#SVGID_3_);}
	.st3{fill:#2E3035;}
	.st4{fill:url(#SVGID_4_);}
	.st5{fill:url(#SVGID_5_);}
	.st6{fill:#6D6F76;}
	.st7{fill:#45474C;}
	.st8{fill:#5B5D63;}
	.st9{fill:#4C4E54;}
	.st10{fill:#3A3D42;}
</style>
<linearGradient id="SVGID_1_" gradientUnits="userSpaceOnUse" x1="38.2977" y1="30.1479" x2="92.1976" y2="30.1479">
	<stop  offset="0" style="stop-color:#1E2029"/>
	<stop  offset="4.695699e-02" style="stop-color:#23252D"/>
	<stop  offset="0.1145" style="stop-color:#26282F"/>
	<stop  offset="1" style="stop-color:#34363A"/>
</linearGradient>
<path class="st0" d="M78.7,26.2l-13.4-7.7v-0.1l-0.1,0l0,0v0.1L38.3,34l0.5,0.3l25.9-15v14.4l-13.5,7.8l0.6,0.3l13.4-7.7v0l13.5,7.8
	l13.5-7.8V18.4L78.7,26.2z M78.2,40.9l-12.4-7.2V19.3l12.4,7.2V40.9z M91.7,33.7l-12.4,7.2V26.5l12.4-7.2V33.7z"/>
<linearGradient id="SVGID_2_" gradientUnits="userSpaceOnUse" x1="114.8335" y1="84.8513" x2="17.0463" y2="84.3407">
	<stop  offset="0" style="stop-color:#1E2029"/>
	<stop  offset="4.695699e-02" style="stop-color:#23252D"/>
	<stop  offset="0.1145" style="stop-color:#26282F"/>
	<stop  offset="1" style="stop-color:#34363A"/>
</linearGradient>
<path class="st1" d="M105.7,57.3l-0.6,0.3v30l-12.4-7.2V64.8l-0.5,0.3v15.6l-27,15.7L38.3,80.7V65.1l-13.5-7.6l-13.7,7.6l13.7,7.8
	v15.7l0.1,0L65.2,112v0.1l40.5-23.5l-5-2.9l5,2.9V57.3z M12.2,65.1l12.6-7l12.4,7l-12.4,7.2L12.2,65.1z M25.3,87.6V73.2L37.7,66
	v14.4L25.3,87.6z M25.8,88.6l12.4-7.2l26.4,15.3c0.1,0,0.1,14.4,0.1,14.4L25.8,88.6z M104.6,88.6l-38.9,22.6V96.7l26.4-15.3
	L104.6,88.6z"/>
<linearGradient id="SVGID_3_" gradientUnits="userSpaceOnUse" x1="116.8593" y1="14.2665" x2="53.0295" y2="38.5218">
	<stop  offset="8.379889e-03" style="stop-color:#2B2E34"/>
	<stop  offset="0.2374" style="stop-color:#35383D"/>
	<stop  offset="0.6927" style="stop-color:#424549"/>
	<stop  offset="0.9637" style="stop-color:#494E54"/>
</linearGradient>
<polygon class="st2" points="119.3,34 65.2,65.1 38.3,49.7 11.1,34 65.2,2.7 92.2,18.4 78.7,26.2 65.2,18.4 38.3,34 51.7,41.8 
	65.2,49.7 78.7,41.8 92.2,34 105.9,26.2 "/>
<path class="st3" d="M65.2,65.1v15.6L78.7,73l27-15.7v31.3l-27,15.7L65.2,112l0,15.7l54.1-31.2V34L65.2,65.1z"/>
<linearGradient id="SVGID_4_" gradientUnits="userSpaceOnUse" x1="27.4004" y1="119.8776" x2="35.8259" y2="70.8563">
	<stop  offset="0" style="stop-color:#1E2029"/>
	<stop  offset="4.695699e-02" style="stop-color:#23252D"/>
	<stop  offset="0.1145" style="stop-color:#26282F"/>
	<stop  offset="1" style="stop-color:#34363A"/>
</linearGradient>
<polygon class="st4" points="65.2,65.1 65.2,80.7 51.7,72.9 38.3,65.1 24.8,57.5 11.1,49.7 11.1,34 38.3,49.7 "/>
<linearGradient id="SVGID_5_" gradientUnits="userSpaceOnUse" x1="33.9195" y1="120.998" x2="42.345" y2="71.9768">
	<stop  offset="0" style="stop-color:#1E2029"/>
	<stop  offset="4.695699e-02" style="stop-color:#23252D"/>
	<stop  offset="0.1145" style="stop-color:#26282F"/>
	<stop  offset="1" style="stop-color:#34363A"/>
</linearGradient>
<polygon class="st5" points="65.2,112 65.2,127.7 11.1,96.4 11.1,65.1 24.8,72.9 24.8,88.6 51.7,104.2 "/>
<polygon class="st6" points="118.7,33.6 65.2,64.1 40.1,49.7 12.9,34 65.5,3.6 91.6,18.7 92.2,18.4 65.2,2.7 11.1,34 38.3,49.7 
	65.2,65.1 119.3,34 "/>
<polygon class="st7" points="65.2,65.1 65.2,65.9 38.3,50.5 11.1,34.8 11.1,34 38.3,49.7 "/>
<polygon class="st8" points="119.3,34 119.3,34.8 65.2,65.9 65.2,65.1 "/>
<polygon class="st8" points="119.3,34 119.3,96.5 65.2,127.7 65.2,126.3 118.4,95.5 118.4,34.5 "/>
<polygon class="st3" points="11.9,95.5 11.9,65.6 11.1,65.1 11.1,95 11.1,96.4 65.2,127.7 65.2,126.3 "/>
<polygon class="st9" points="65.2,65.9 65.2,80.7 66.1,80.2 66.1,65.3 "/>
<polygon class="st10" points="65.2,65.9 65.2,65.9 64.3,65.4 64.3,80.2 65.2,80.7 "/>
<polygon class="st7" points="65.2,112 65.2,126.3 66.1,125.8 66.1,111.5 "/>
<polygon class="st3" points="65.2,112 65.2,112 64.3,111.5 64.3,125.8 65.2,126.3 "/>
</svg>
