<?xml version="1.0" encoding="utf-8"?>
<!-- Generator: Adobe Illustrator 24.1.2, SVG Export Plug-In . SVG Version: 6.00 Build 0)  -->
<svg version="1.1" xmlns="http://www.w3.org/2000/svg" xmlns:xlink="http://www.w3.org/1999/xlink" x="0px" y="0px"
	 viewBox="0 0 260 260" style="enable-background:new 0 0 260 260;" xml:space="preserve">
<style type="text/css">
	.st0{fill:url(#SVGID_1_);}
	.st1{fill:url(#SVGID_2_);}
	.st2{fill:#EFF501;}
</style>
<linearGradient id="SVGID_1_" gradientUnits="userSpaceOnUse" x1="12.8485" y1="130.0021" x2="127.6997" y2="130.0021">
	<stop  offset="0" style="stop-color:#31363E"/>
	<stop  offset="1" style="stop-color:#494E56"/>
</linearGradient>
<path class="st0" d="M13.7,31.3l-0.1,2.9c0,0.7-0.1,1.6-0.2,2.8c-0.8,11.1-3.2,44.7,12.6,109.7c13.7,56.3,62.1,86.3,88.1,102.4
	l13.5,8.4V2.5L13.7,31.3z"/>
<linearGradient id="SVGID_2_" gradientUnits="userSpaceOnUse" x1="127.6997" y1="130.0021" x2="247.1479" y2="130.0021">
	<stop  offset="0" style="stop-color:#31363E"/>
	<stop  offset="1" style="stop-color:#494E56"/>
</linearGradient>
<path class="st1" d="M127.7,2.5v255l13.5-8.4c26-16.1,74.4-46.1,88.1-102.4c8.3-34.3,17.5-110.2,17.5-110.8l0.3-3.2L127.7,2.5z"/>
<path class="st2" d="M170.6,84c0-23.7-19.2-42.9-42.9-42.9C104,41,84.8,60.3,84.8,84c0,20.9,15.1,38.4,34.9,42.1v85.2
	c0,4.4,3.6,8,8,8c4.4,0,8-3.6,8-8v-85.2C155.5,122.3,170.6,104.9,170.6,84z M127.7,110.9c-14.8,0-26.9-12.1-26.9-26.9
	c0-14.8,12.1-26.9,26.9-26.9s26.9,12.1,26.9,26.9C154.6,98.8,142.5,110.9,127.7,110.9z M150.2,219.3L150.2,219.3c-4.4,0-8-3.6-8-8
	v-37.2c0-4.4,3.6-8,8-8h0c4.4,0,8,3.6,8,8v37.2C158.2,215.7,154.6,219.3,150.2,219.3z"/>
<path class="st2" d="M247.2,32.7l-0.3,3.2c0,0.1-0.2,2.1-0.7,5.5L127.7,13.6L21.9,40.3l-0.1,2.8c0,0.6-0.1,1.5-0.2,2.7
	C20.9,56.5,18.6,89,33.9,151.7c13.2,54.4,59.9,83.3,85,98.8l10.1,6.3l-1.3,0.8l-13.5-8.3c-26-16.1-74.4-46-88.1-102.4
	C10.3,81.8,12.7,48.1,13.5,37c0.1-1.2,0.2-2.2,0.2-2.8l0.1-2.9l114-28.8L247.2,32.7z"/>
</svg>

