<?xml version="1.0" encoding="utf-8"?>
<!-- Generator: Adobe Illustrator 24.1.2, SVG Export Plug-In . SVG Version: 6.00 Build 0)  -->
<svg version="1.1" id="Слой_1" xmlns="http://www.w3.org/2000/svg" xmlns:xlink="http://www.w3.org/1999/xlink" x="0px" y="0px"
	 viewBox="0 0 465 525" style="enable-background:new 0 0 465 525;" xml:space="preserve">
<style type="text/css">
	.st0{fill:#75B102;}
</style>
<g>
	<polygon class="st0" points="91.6,307.9 90.4,307.9 90.4,311.8 85.9,311.8 85.9,355.4 90.4,355.4 90.4,359.3 91.6,359.3 
		91.6,355.4 94.8,355.4 94.8,311.8 91.6,311.8 	"/>
	<polygon class="st0" points="270.2,237.6 269,237.6 269,260.5 264.6,260.5 264.6,299.6 269,299.6 269,300.1 270.2,300.1 
		270.2,299.6 273.5,299.6 273.5,260.5 270.2,260.5 	"/>
	<polygon class="st0" points="303.7,230.9 302.5,230.9 302.5,243.7 298.1,243.7 298.1,268.3 307,268.3 307,243.7 303.7,243.7 	"/>
	<rect x="18.9" y="354.3" class="st0" width="8.9" height="8.9"/>
</g>
</svg>

