<?xml version="1.0" encoding="utf-8"?>
<!-- Generator: Adobe Illustrator 24.1.2, SVG Export Plug-In . SVG Version: 6.00 Build 0)  -->
<svg version="1.1" id="Слой_1" xmlns="http://www.w3.org/2000/svg" xmlns:xlink="http://www.w3.org/1999/xlink" x="0px" y="0px"
	 viewBox="0 0 465 525" style="enable-background:new 0 0 465 525;" xml:space="preserve">
<style type="text/css">
	.st0{fill:#75B102;}
</style>
<g>
	<polygon class="st0" points="46.9,348.1 45.7,348.1 45.7,357.6 41.3,357.6 41.3,366.5 45.7,366.5 45.7,371.6 46.9,371.6 
		46.9,366.5 50.2,366.5 50.2,357.6 46.9,357.6 	"/>
	<polygon class="st0" points="80.4,325.8 79.2,325.8 79.2,342 74.8,342 74.8,359.9 79.2,359.9 79.2,367.1 80.4,367.1 80.4,359.9 
		83.7,359.9 83.7,342 80.4,342 	"/>
	<polygon class="st0" points="136.2,300.1 135,300.1 135,316.3 130.6,316.3 130.6,333.1 139.5,333.1 139.5,316.3 136.2,316.3 	"/>
	<polygon class="st0" points="203.2,172.8 202,172.8 202,176.7 197.6,176.7 197.6,231.4 202,231.4 202,237.6 203.2,237.6 
		203.2,231.4 206.5,231.4 206.5,176.7 203.2,176.7 	"/>
	<polygon class="st0" points="259.1,275.5 257.9,275.5 257.9,290.6 253.4,290.6 253.4,308.5 257.9,308.5 257.9,309 259.1,309 
		259.1,308.5 262.3,308.5 262.3,290.6 259.1,290.6 	"/>
	<polygon class="st0" points="314.9,182.9 313.7,182.9 313.7,191.2 309.3,191.2 309.3,254.9 313.7,254.9 313.7,262.1 314.9,262.1 
		314.9,254.9 318.2,254.9 318.2,191.2 314.9,191.2 	"/>
	<rect x="353.9" y="139.9" class="st0" width="8.9" height="17.9"/>
</g>
</svg>

