<?xml version="1.0" encoding="utf-8"?>
<!-- Generator: Adobe Illustrator 24.1.2, SVG Export Plug-In . SVG Version: 6.00 Build 0)  -->
<svg version="1.1" id="Слой_1" xmlns="http://www.w3.org/2000/svg" xmlns:xlink="http://www.w3.org/1999/xlink" x="0px" y="0px"
	 viewBox="0 0 465 409" style="enable-background:new 0 0 465 409;" xml:space="preserve">
<style type="text/css">
	.st0{fill:#EDEDEB;}
	.st1{fill:#FFFFFF;stroke:#828281;stroke-width:3.5353;stroke-miterlimit:10;}
	.st2{fill:none;stroke:#828281;stroke-width:3.5353;stroke-miterlimit:10;}
</style>
<g id="Слой_2_2_">
	<path class="st0" d="M429.2,440.8c0,0-50.4-65.6-52.3-84.5c-4.5-43.9,13.7-59.6,17.7-96.8L306.4,279l-53.2,45.4l88.4,137.5"/>
	<path class="st1" d="M290.7,437.9c-1.8-1.3-99.2-112.6-102.3-133.1c-3-20.5-9-62-11.4-75.6c-2.4-13.6,1.8-27.3,13.8-35.1
		c12.1-7.8,13-29.7,16.1-36.2c3.1-6.7,6.1-9.2,14.3-3.6c6.6,4.5,5.8,40.9,1.5,54.2c-4.3,13.2,6.1,22.5,6.7,30.7
		c0.6,9.2-2.2,27.4-5.4,35"/>
	<path class="st2" d="M429.2,440.8c0,0-50.4-65.6-52.3-84.5c-4.5-43.9,13.7-59.6,17.7-96.8c1.6-14.5-16.1-70.8-38.4-79.8
		c-1.4-0.6-3.4-0.5-6,1.6c-1,0.8,16.2,24.4,14.8,41.5"/>
	<path class="st1" d="M350.2,181.1c0,0-14.9-50.6-32.1-47.8c0,0-6.8-1-11.7,5.3"/>
	<path class="st1" d="M328.3,195.6c0,0-23.7-86.7-49-80.7c0,0-3.6-0.5-13.1,5.9"/>
	<path class="st1" d="M282.5,184c0,0-39.4-165.8-48.9-171.7c-8.1-4.9-15.9-4.9-21.6,8.2c-5.8,13.1,32,188.4,17.4,218.7"/>
	<path class="st1" d="M472,358.7"/>
</g>
</svg>

