<?xml version="1.0" encoding="utf-8"?>
<!-- Generator: Adobe Illustrator 24.1.2, SVG Export Plug-In . SVG Version: 6.00 Build 0)  -->
<svg version="1.1" id="Слой_1" xmlns="http://www.w3.org/2000/svg" xmlns:xlink="http://www.w3.org/1999/xlink" x="0px" y="0px"
	 viewBox="0 0 465 525" style="enable-background:new 0 0 465 525;" xml:space="preserve">
<style type="text/css">
	.st0{fill:#75B102;}
</style>
<g>
	<polygon class="st0" points="58,344.8 56.8,344.8 56.8,349.8 52.4,349.8 52.4,359.9 56.8,359.9 56.8,372.7 58,372.7 58,359.9 
		61.3,359.9 61.3,349.8 58,349.8 	"/>
	<polygon class="st0" points="147.4,225.3 146.2,225.3 146.2,230.3 141.8,230.3 141.8,319.6 150.7,319.6 150.7,230.3 147.4,230.3 	
		"/>
	<polygon class="st0" points="214.4,133.7 213.2,133.7 213.2,176.7 208.8,176.7 208.8,194.6 213.2,194.6 213.2,211.9 214.4,211.9 
		214.4,194.6 217.7,194.6 217.7,176.7 214.4,176.7 	"/>
	<polygon class="st0" points="326.1,132.6 324.9,132.6 324.9,187.9 320.4,187.9 320.4,205.8 324.9,205.8 324.9,211.9 326.1,211.9 
		326.1,205.8 329.3,205.8 329.3,187.9 326.1,187.9 	"/>
</g>
</svg>

