<?xml version="1.0" encoding="utf-8"?>
<!-- Generator: Adobe Illustrator 24.1.2, SVG Export Plug-In . SVG Version: 6.00 Build 0)  -->
<svg version="1.1" id="Слой_1" xmlns="http://www.w3.org/2000/svg" xmlns:xlink="http://www.w3.org/1999/xlink" x="0px" y="0px"
	 viewBox="0 0 465 525" style="enable-background:new 0 0 465 525;" xml:space="preserve">
<style type="text/css">
	.st0{fill:#FFFFFF;}
	.st1{fill-rule:evenodd;clip-rule:evenodd;fill:#157DD1;}
	.st2{fill:#53AE94;}
	.st3{fill-rule:evenodd;clip-rule:evenodd;fill:#F0F0F0;}
	.st4{fill-rule:evenodd;clip-rule:evenodd;fill:#343434;}
	.st5{fill-rule:evenodd;clip-rule:evenodd;fill:#8C8C8C;}
	.st6{fill-rule:evenodd;clip-rule:evenodd;fill:#3C3C3B;}
	.st7{fill-rule:evenodd;clip-rule:evenodd;fill:#141414;}
	.st8{fill-rule:evenodd;clip-rule:evenodd;fill:#393939;}
	.st9{fill-rule:evenodd;clip-rule:evenodd;fill:#F8921A;}
	.st10{fill-rule:evenodd;clip-rule:evenodd;fill:#FFFFFF;}
	.st11{fill:#FFCE00;}
	.st12{fill:#4C5A95;}
	.st13{fill-rule:evenodd;clip-rule:evenodd;fill:#BFBBBB;}
</style>
<rect class="st0" width="465" height="525"/>
<g id="dash">
	<g id="DASH">
		<path id="Rectangle-1" class="st1" d="M165.9,211.7L165.9,211.7c7.1,0,12.9,5.8,12.9,12.9l0,0c0,7.1-5.8,12.9-12.9,12.9l0,0
			c-7.1,0-12.9-5.8-12.9-12.9l0,0C153,217.5,158.8,211.7,165.9,211.7z"/>
	</g>
	<path id="Combined-Shape" class="st0" d="M168.1,218.7c4.9,0,5.7,2.7,5.1,6.4c-0.5,2.5-1.6,4.4-3.6,5.3c-0.9,0.4-1.7,0.6-3.7,0.6
		h-5.5l0.5-2.6h4.9c2.9,0,3.7-1.3,4.1-2.4c0.1-0.4,0.5-1.7,0.5-2.5c0-1.5-0.7-2.4-3.2-2.4h-5l0.5-2.6h5.4V218.7z M160.1,223.6h5.7
		c0,0-0.1,0.3-0.2,1.1c-0.1,0.6-0.3,1.5-1.8,1.5h-5.7c0,0,0.1-0.3,0.2-1.1C158.5,224.5,158.7,223.6,160.1,223.6z"/>
</g>
<g>
	<path class="st2" d="M210.7,94.3c4.8,0,8.7,3.9,8.7,8.7c0,4.8-3.9,8.7-8.7,8.7s-8.7-3.9-8.7-8.7S205.9,94.3,210.7,94.3"/>
	<path class="st0" d="M211.8,101.8v-1.3h3v-2h-8v2h3v1.3c-2.4,0.1-4.2,0.6-4.2,1.2s1.8,1,4.2,1.2v4.1h2.1v-4.1
		c2.4-0.1,4.2-0.6,4.2-1.2C216,102.4,214.2,101.9,211.8,101.8 M211.8,103.8L211.8,103.8c-0.1,0-0.4,0-1.1,0c-0.6,0-0.9,0-1.1,0l0,0
		c-2.1-0.1-3.7-0.5-3.7-0.9s1.6-0.8,3.7-0.9v1.4c0.1,0,0.5,0,1.1,0c0.7,0,1,0,1.1,0V102c2.1,0.1,3.7,0.5,3.7,0.9
		S213.9,103.7,211.8,103.8"/>
</g>
<g>
	<path class="st3" d="M207.3,238.5L207.3,238.5c5.9,0,10.7,4.8,10.7,10.7l0,0c0,5.9-4.8,10.7-10.7,10.7l0,0
		c-5.9,0-10.7-4.8-10.7-10.7l0,0C196.6,243.3,201.4,238.5,207.3,238.5z"/>
	<path class="st4" d="M207.2,241.9l-0.1,0.3v9.6l0.1,0.1l4.5-2.6L207.2,241.9z"/>
	<path class="st5" d="M207.2,241.9l-4.5,7.4l4.5,2.6v-4.7V241.9z"/>
	<path class="st6" d="M207.2,252.8L207.2,252.8l-0.1,3.5l0.1,0.2l4.5-6.3L207.2,252.8z"/>
	<path class="st5" d="M207.2,256.4v-3.6l-4.5-2.6L207.2,256.4z"/>
	<path class="st7" d="M207.2,251.9l4.5-2.6l-4.5-2V251.9z"/>
	<path class="st8" d="M202.7,249.3l4.5,2.6v-4.7L202.7,249.3z"/>
</g>
<g>
	<path class="st9" d="M248.6,33.6L248.6,33.6c6.7,0,12.1,5.4,12.1,12.1l0,0c0,6.7-5.4,12.1-12.1,12.1l0,0c-6.7,0-12.1-5.4-12.1-12.1
		l0,0C236.5,39,241.9,33.6,248.6,33.6z"/>
	<path class="st10" d="M254.4,43.8c0.3-1.8-1-2.8-2.8-3.5l0.6-2.4l-1.4-0.4l-0.6,2.4c-0.4-0.1-0.8-0.2-1.1-0.3l0.6-2.4l-1.4-0.4
		l-0.6,2.4c-0.3-0.1-0.6-0.2-0.9-0.2l0,0l-2-0.6l-0.4,1.6c0,0,1.1,0.3,1,0.3c0.6,0.2,0.7,0.6,0.6,0.9l-0.7,2.8c0,0,0.1,0,0.1,0.1
		h-0.1l-1,3.9c-0.1,0.2-0.3,0.5-0.7,0.3l-1-0.3l-0.8,1.7l1.8,0.5c0.3,0.1,0.7,0.2,1,0.3l-0.7,2.5l1.4,0.4l0.6-2.4
		c0.4,0.1,0.8,0.2,1.1,0.3l-0.6,2.4l1.4,0.4l0.7-2.5c2.4,0.5,4.3,0.4,5.1-1.9c0.7-1.8,0-2.9-1.2-3.7
		C253.5,45.7,254.2,45.1,254.4,43.8z M251,48.4c-0.5,1.8-3.4,0.8-4.4,0.5l0.9-3.3C248.4,46,251.5,46.5,251,48.4L251,48.4z
		 M247.9,44.2l0.8-3c0.8,0.2,3.4,0.7,2.9,2.4C251.1,45.3,248.7,44.4,247.9,44.2L247.9,44.2z"/>
</g>
<g id="Слой_1_1_">
	<circle class="st0" cx="333.9" cy="100.8" r="12.9"/>
	<polygon class="st11" points="329.1,101.9 327.4,104.7 340.4,104.8 338.7,101.9 333.1,101.9 329.9,96.4 333.9,89.3 338.4,97 
		335.9,96.9 333.9,93.5 332.3,96.4 334.3,99.8 340,99.8 344.1,106.9 323.8,106.9 328.2,99.2 329.7,101.9 	"/>
</g>
<g>
	<circle class="st12" cx="279.8" cy="88.2" r="6"/>
	<path class="st0" d="M284,86.4v-0.3V86.4l-0.6,0.3l-0.5,0.1l-0.2-0.1l0.5-0.6l0.5-0.1h-0.5l-0.7,0.5h-0.7l-1-0.5l-0.6,0.1l-1.8,1.4
		l-0.9,0.3l-0.4,0.3h-0.6l-0.3,0.6l-0.4,0.1l0.4,0.1l0.4-0.5l0.6,0.1V89l-0.3,0.8l-0.2,0.7l-0.2,0.3l0.5-0.1l-0.1-0.3l0.4-0.8
		l0.8-0.3l0.3-0.5l0.5-0.4l1,0.1l1-0.4l-0.2,0.7h-0.4l-0.1,0.6l0.4-0.2l0.6-0.3l0.5-0.8v-0.4L282,88l0.8,0.5l0.4-0.2v-1L283,87
		l0.6-0.1L284,86.4z"/>
</g>
<g>
	<circle class="st13" cx="283.8" cy="19.9" r="8.1"/>
	<path class="st10" d="M281,21.6l-0.7,0.3l0.3-1.4l0.7-0.3l1.1-4.3h2.6l-0.8,3.1l0.7-0.3l-0.3,1.4l-0.7,0.3l-0.4,1.8h3.9L287,24
		h-6.5L281,21.6z"/>
</g>
</svg>

