<?xml version="1.0" encoding="utf-8"?>
<!-- Generator: Adobe Illustrator 24.1.2, SVG Export Plug-In . SVG Version: 6.00 Build 0)  -->
<svg version="1.1" id="Слой_1" xmlns="http://www.w3.org/2000/svg" xmlns:xlink="http://www.w3.org/1999/xlink" x="0px" y="0px"
	 viewBox="0 0 465 525" style="enable-background:new 0 0 465 525;" xml:space="preserve">
<style type="text/css">
	.st0{fill:#75B102;}
</style>
<g>
	<polygon class="st0" points="69.2,333.6 68,333.6 68,349.8 63.6,349.8 63.6,353.2 72.5,353.2 72.5,349.8 69.2,349.8 	"/>
	<polygon class="st0" points="108.3,329.7 112.7,329.7 112.7,333.6 113.9,333.6 113.9,329.7 117.2,329.7 117.2,317.4 108.3,317.4 	
		"/>
	<polygon class="st0" points="152.9,248.2 157.4,248.2 157.4,268.8 158.6,268.8 158.6,248.2 161.8,248.2 161.8,230.3 152.9,230.3 	
		"/>
	<rect x="186.4" y="214.7" class="st0" width="8.9" height="44.7"/>
	<polygon class="st0" points="225.6,185.1 224.4,185.1 224.4,189 219.9,189 219.9,197.9 224.4,197.9 224.4,224.2 225.6,224.2 
		225.6,197.9 228.8,197.9 228.8,189 225.6,189 	"/>
	<polygon class="st0" points="247.9,288.9 246.7,288.9 246.7,298.4 242.3,298.4 242.3,308.5 246.7,308.5 246.7,333.6 247.9,333.6 
		247.9,308.5 251.2,308.5 251.2,298.4 247.9,298.4 	"/>
</g>
</svg>

