<?xml version="1.0" encoding="utf-8"?>
<!-- Generator: Adobe Illustrator 24.1.2, SVG Export Plug-In . SVG Version: 6.00 Build 0)  -->
<svg version="1.1" id="Слой_1" xmlns="http://www.w3.org/2000/svg" xmlns:xlink="http://www.w3.org/1999/xlink" x="0px" y="0px"
	 viewBox="0 0 465 525" style="enable-background:new 0 0 465 525;" xml:space="preserve">
<style type="text/css">
	.st0{fill:none;stroke:#EAEAEA;stroke-width:1.1168;stroke-miterlimit:10;}
	.st1{fill:#797B86;}
	.st2{fill:none;stroke:#797B86;stroke-width:1.1168;stroke-linecap:round;stroke-miterlimit:10;}
	.st3{fill:none;stroke:#797B86;stroke-width:1.1168;stroke-linecap:round;stroke-linejoin:round;stroke-miterlimit:10;}
	.st4{fill:none;stroke:#797B86;stroke-width:1.1168;stroke-miterlimit:10;}
	.st5{fill:#C2C2C2;}
	.st6{fill:none;stroke:#2B2E39;stroke-width:0.5584;stroke-miterlimit:10;}
	.st7{fill:#75B102;}
	.st8{fill:none;stroke:#75B102;stroke-width:1.1168;stroke-miterlimit:10;stroke-dasharray:1.1168;}
</style>
<g id="Слой_2">
	<rect x="12.8" y="57.8" class="st0" width="373.5" height="377.4"/>
	<line class="st0" x1="106.2" y1="57.8" x2="106.2" y2="441.4"/>
	<line class="st0" x1="199.6" y1="57.8" x2="199.6" y2="441.4"/>
	<line class="st0" x1="292.9" y1="57.8" x2="292.9" y2="441.4"/>
	<line class="st0" x1="386.3" y1="435.2" x2="452.8" y2="435.2"/>
	<line class="st0" x1="452.8" y1="468.4" x2="12.8" y2="468.4"/>
	<line class="st0" x1="386.3" y1="435.2" x2="386.3" y2="468.4"/>
</g>
<g id="Слой_3">
	<line class="st0" x1="386.6" y1="407.3" x2="12.8" y2="407.3"/>
	<line class="st0" x1="386.6" y1="378.3" x2="12.8" y2="378.3"/>
	<line class="st0" x1="386.6" y1="349.3" x2="12.8" y2="349.3"/>
	<line class="st0" x1="386.6" y1="320.3" x2="12.8" y2="320.3"/>
	<line class="st0" x1="386.6" y1="291.3" x2="12.8" y2="291.3"/>
	<line class="st0" x1="386.6" y1="262.3" x2="12.8" y2="262.3"/>
	<line class="st0" x1="386.6" y1="233.3" x2="12.8" y2="233.3"/>
	<line class="st0" x1="386.6" y1="204.3" x2="12.8" y2="204.3"/>
	<line class="st0" x1="386.6" y1="175.3" x2="12.8" y2="175.3"/>
	<line class="st0" x1="386.6" y1="146.3" x2="12.8" y2="146.3"/>
	<line class="st0" x1="386.6" y1="117.3" x2="12.8" y2="117.3"/>
	<line class="st0" x1="386.6" y1="88.3" x2="12.8" y2="88.3"/>
</g>
<g>
	<g transform="translate(405 -2921)">
		<path class="st1" d="M25.8,2941.4h-3l-0.4-1.1c-0.3-0.7-1-1.2-1.8-1.2H15c-0.8,0-1.5,0.5-1.8,1.2l-0.4,1.1h-3
			c-0.8,0-1.5,0.7-1.5,1.5v10.8c0,0.8,0.7,1.5,1.5,1.5h16.1c0.8,0,1.5-0.7,1.5-1.5V2943C27.3,2942.1,26.6,2941.4,25.8,2941.4z
			 M26.6,2953.7c0,0.4-0.3,0.8-0.8,0.8H9.7c-0.4,0-0.8-0.3-0.8-0.8V2943c0-0.4,0.3-0.8,0.8-0.8h3.6l0.6-1.6c0.2-0.4,0.6-0.7,1.1-0.7
			h5.6c0.5,0,0.9,0.3,1.1,0.7l0.6,1.6h3.6c0.4,0,0.8,0.3,0.8,0.8L26.6,2953.7z M17.7,2943.7c-2.3,0-4.2,1.9-4.2,4.2
			c0,2.3,1.9,4.2,4.2,4.2c2.3,0,4.2-1.9,4.2-4.2C22,2945.6,20.1,2943.7,17.7,2943.7L17.7,2943.7L17.7,2943.7z M17.7,2951.4
			c-1.9,0-3.5-1.5-3.5-3.5c0-1.9,1.5-3.5,3.5-3.5c1.9,0,3.5,1.5,3.5,3.5S19.6,2951.4,17.7,2951.4L17.7,2951.4z"/>
	</g>
	<g transform="translate(-4908.422 -2637.552) rotate(-45)">
		<path class="st1" d="M1869.7,5628c0,0.1,0,0.2-0.1,0.3l-2.2,2.2c-0.1,0.1-0.4,0.1-0.5,0s-0.1-0.4,0-0.5l1.5-1.5h-5.6
			c-0.2,0-0.4-0.2-0.4-0.4c0-0.2,0.2-0.4,0.4-0.4h5.6l-1.5-1.5c-0.1-0.1-0.1-0.4,0-0.5s0.4-0.1,0.5,0L1869.7,5628
			C1869.6,5627.8,1869.7,5627.9,1869.7,5628z M1852.9,5628.4h5.6c0.2,0,0.4-0.2,0.4-0.4c0-0.2-0.2-0.4-0.4-0.4h-5.6l1.5-1.5
			c0.1-0.1,0.1-0.4,0-0.5s-0.4-0.1-0.5,0l0,0l-2.2,2.2c-0.1,0.1-0.1,0.4,0,0.5l2.2,2.2c0.1,0.1,0.4,0.1,0.5,0s0.1-0.4,0-0.5
			L1852.9,5628.4z M1858.8,5621.8l1.5-1.5v5.6c0,0.2,0.2,0.4,0.4,0.4s0.4-0.2,0.4-0.4v-5.6l1.5,1.5c0.1,0.1,0.4,0.1,0.5,0
			s0.1-0.4,0-0.5l0,0l-2.2-2.2c-0.1-0.1-0.4-0.1-0.5,0l-2.2,2.2c-0.1,0.1-0.1,0.4,0,0.5C1858.4,5621.9,1858.6,5621.9,1858.8,5621.8
			L1858.8,5621.8L1858.8,5621.8z M1862.6,5634.2l-1.5,1.5v-5.6c0-0.2-0.2-0.4-0.4-0.4s-0.4,0.2-0.4,0.4v5.6l-1.5-1.5
			c-0.1-0.1-0.4-0.1-0.5,0s-0.1,0.4,0,0.5l2.2,2.2c0.1,0.1,0.4,0.1,0.5,0l2.2-2.2c0.1-0.1,0.1-0.4,0-0.5
			C1862.9,5634.1,1862.7,5634.1,1862.6,5634.2L1862.6,5634.2z"/>
	</g>
	<path class="st1" d="M38.6,30.4l-1.1-6.2l-2.1,6.3H35l-2.2-6.3l-1.1,6.2h-1.2l1.8-9.6h0.6l2.3,7l2.1-7h0.6l1.9,9.6H38.6z"/>
	<path class="st1" d="M93.9,30.4v-9.6h1.3v9.6H93.9z M101.6,30.4v-4.1c0-0.5-0.1-1.1-0.3-1.6c-0.3-0.3-0.7-0.5-1.1-0.4
		c-0.3,0-0.6,0.1-0.9,0.3c-0.3,0.1-0.5,0.4-0.7,0.6v5.2h-1.2v-7h0.9l0.4,0.9c0.4-0.7,1.2-1.1,2-1c1.5,0,2.3,0.9,2.3,2.8v4.3
		L101.6,30.4L101.6,30.4z M109,30.4v-0.5c-0.5,0.5-1.2,0.7-1.9,0.6c-0.8,0-1.6-0.3-2.1-0.9c-0.6-0.7-0.9-1.6-0.8-2.5
		c0-1,0.3-1.9,0.9-2.7c0.5-0.7,1.4-1.1,2.2-1.1c0.6,0,1.2,0.1,1.6,0.5v-3.3h1.2v9.9H109z M109,25c-0.3-0.4-0.8-0.7-1.3-0.7
		c-0.6,0-1.2,0.3-1.6,0.7c-0.4,0.5-0.6,1.2-0.6,1.9c0,1.7,0.8,2.5,2.3,2.5c0.2,0,0.5-0.1,0.7-0.2s0.4-0.2,0.5-0.4L109,25z
		 M113.3,20.8c0.2,0,0.4,0.1,0.5,0.2s0.2,0.3,0.2,0.5c0,0.4-0.3,0.8-0.8,0.8l0,0c-0.2,0-0.4-0.1-0.5-0.2c-0.3-0.3-0.3-0.8,0-1.1
		C112.9,20.8,113.1,20.8,113.3,20.8z M112.6,30.4v-6h-1v-1h2.2v7H112.6z M121.2,24l-0.6,0.9c-0.2-0.2-0.4-0.3-0.7-0.4
		s-0.6-0.2-0.9-0.2c-0.6,0-1.2,0.2-1.6,0.7c-0.4,0.6-0.6,1.2-0.6,1.9c0,0.7,0.2,1.3,0.6,1.9c0.4,0.4,1.1,0.7,1.7,0.6
		c0.6,0,1.2-0.3,1.7-0.6l0.5,1c-0.7,0.5-1.6,0.7-2.5,0.6c-0.9,0-1.7-0.3-2.4-1c-0.6-0.7-1-1.6-0.9-2.6c0-1,0.3-2,1-2.7
		c1-1,2.5-1.3,3.8-0.8C120.6,23.6,120.9,23.8,121.2,24z M126.5,29.6c-0.6,0.7-1.4,1-2.3,0.9c-0.5,0-1.1-0.2-1.4-0.6
		c-0.4-0.4-0.6-0.9-0.6-1.5c0-0.7,0.3-1.4,0.9-1.8c0.7-0.5,1.5-0.8,2.4-0.7c0.3,0,0.6,0.1,0.9,0.2c0-1.1-0.5-1.7-1.5-1.7
		c-0.7,0-1.3,0.2-1.8,0.6l-0.5-1c0.3-0.2,0.6-0.4,1-0.5s0.8-0.2,1.2-0.2c0.8-0.1,1.6,0.2,2.2,0.7c0.5,0.6,0.8,1.4,0.7,2.2v2.5
		c-0.1,0.5,0.1,1,0.5,1.2v0.6c-0.4,0-0.8-0.1-1.1-0.2C126.7,30.2,126.5,29.9,126.5,29.6z M126.3,27c-0.3-0.1-0.5-0.1-0.8-0.1
		c-0.6,0-1.1,0.1-1.5,0.5c-0.4,0.3-0.6,0.7-0.6,1.1c0,0.7,0.4,1.1,1.3,1.1c0.7,0,1.3-0.4,1.7-0.9V27H126.3z M130,24.4h-0.8v-1h0.8
		v-1.5l1.2-0.5v1.9h1.9v1h-1.9v3.5c0,0.4,0.1,0.9,0.3,1.3c0.2,0.3,0.6,0.4,1,0.4c0.3,0,0.7-0.1,1-0.2l0.2,1.1
		c-0.6,0.1-1.1,0.2-1.7,0.2c-0.5,0-1-0.2-1.4-0.6s-0.6-1-0.6-1.6V24.4z M134.4,26.9c0-1,0.3-1.9,0.9-2.6c1.2-1.3,3.3-1.3,4.6-0.1
		c0,0,0,0,0.1,0.1c0.6,0.8,0.9,1.7,0.8,2.7c0.1,1-0.2,1.9-0.9,2.7c-1.2,1.3-3.3,1.3-4.6,0.1c0,0,0,0-0.1-0.1
		C134.6,28.8,134.3,27.9,134.4,26.9z M135.7,26.9c0,1.8,0.6,2.6,1.9,2.6c0.5,0,1.1-0.3,1.4-0.7c0.4-0.6,0.5-1.3,0.5-1.9
		c0-1.7-0.6-2.6-1.9-2.6c-0.5,0-1.1,0.2-1.4,0.7C135.8,25.6,135.7,26.2,135.7,26.9L135.7,26.9z M145.9,24.6
		c-0.2-0.2-0.5-0.3-0.8-0.3c-0.5,0-0.9,0.2-1.2,0.6s-0.5,0.9-0.5,1.5v4h-1.2v-7h1.2v1.1c0.4-0.8,1.2-1.3,2-1.2c0.3,0,0.6,0.1,1,0.1
		L145.9,24.6z M146.8,30l0.4-1.2c0.5,0.4,1.1,0.6,1.7,0.7c0.8,0,1.2-0.3,1.2-1c0-0.5-0.4-0.9-1.1-1.2c-0.4-0.2-0.8-0.4-1.2-0.6
		c-0.2-0.1-0.4-0.3-0.5-0.5s-0.3-0.3-0.3-0.5c-0.1-0.2-0.1-0.4-0.1-0.6c0-0.5,0.2-1,0.6-1.3c0.5-0.3,1.1-0.5,1.6-0.5
		c0.7,0,1.3,0.2,1.9,0.5l-0.4,1.2c-0.4-0.4-0.9-0.6-1.5-0.6c-0.3,0-0.5,0.1-0.7,0.2s-0.3,0.3-0.3,0.5c0,0.5,0.3,0.9,0.8,1l0.9,0.4
		c0.5,0.2,0.9,0.5,1.2,0.9c0.3,0.3,0.4,0.8,0.4,1.2c0,0.6-0.2,1.1-0.7,1.5s-1.2,0.6-1.8,0.5C148.1,30.6,147.4,30.4,146.8,30
		L146.8,30z"/>
	<g transform="translate(567.835 1192)">
		<path class="st2" d="M-368.5-1159.6c0-3.8,0.1-7.5-5.3-7.6c-0.1,0-8.4,0-8.4,0"/>
		<path class="st3" d="M-379.3-1170.5l-3.4,3.6l3.4,3.8"/>
	</g>
	<g transform="translate(597.762 1192)">
		<path class="st2" d="M-379.2-1159.6c0-3.8-0.1-7.5,5.3-7.6c0.1,0,8.4,0,8.4,0"/>
		<path class="st3" d="M-368.4-1170.5l3.4,3.6l-3.4,3.8"/>
	</g>
	<g transform="translate(-1.354 8.634)">
		<g transform="translate(458.5 1178.5)">
			<rect x="-395.6" y="-1167.2" class="st4" width="5.2" height="13.1"/>
			<line class="st4" x1="-393" y1="-1166.7" x2="-393" y2="-1171.1"/>
			<line class="st4" x1="-393" y1="-1150.2" x2="-393" y2="-1154.5"/>
		</g>
		<g transform="translate(465.524 1180.061)">
			<rect x="-394.8" y="-1167" class="st4" width="5.2" height="7.8"/>
			<line class="st4" x1="-392.2" y1="-1166.5" x2="-392.2" y2="-1170.9"/>
			<line class="st4" x1="-392.2" y1="-1155.2" x2="-392.2" y2="-1159.6"/>
		</g>
	</g>
</g>
<g id="Слой_4">
	<path class="st5" d="M402.6,144.4h0.9v0.7h-0.9v1.5h-0.8v-1.5h-2.9v-0.5l2.8-4.4h0.9V144.4z M399.8,144.4h2v-3.1l-0.1,0.2
		L399.8,144.4z M404.3,146.1c0-0.1,0-0.3,0.1-0.3c0.1-0.1,0.2-0.2,0.4-0.1c0.1,0,0.3,0,0.4,0.1c0.1,0.1,0.1,0.2,0.1,0.3
		c0,0.1,0,0.2-0.1,0.3c-0.1,0.1-0.2,0.1-0.4,0.1C404.5,146.6,404.3,146.5,404.3,146.1C404.3,146.2,404.3,146.2,404.3,146.1z
		 M406.9,143.4l0.3-3.2h3.3v0.7h-2.6l-0.2,1.7c0.3-0.2,0.7-0.3,1.1-0.3c0.5,0,1,0.2,1.4,0.6s0.5,1,0.5,1.6s-0.2,1.1-0.5,1.5
		c-0.4,0.4-0.9,0.6-1.5,0.6c-0.5,0-1-0.1-1.4-0.5c-0.4-0.3-0.6-0.8-0.6-1.3h0.8c0,0.3,0.2,0.6,0.4,0.8c0.2,0.2,0.5,0.3,0.8,0.3
		s0.7-0.1,0.9-0.4s0.3-0.7,0.3-1.1s-0.1-0.7-0.3-1s-0.6-0.4-0.9-0.4c-0.3,0-0.6,0.1-0.8,0.2l-0.2,0.2L406.9,143.4z M415.5,143.9
		c0.1,0.7-0.1,1.5-0.5,2.1c-0.4,0.5-0.9,0.7-1.5,0.7s-1.1-0.2-1.5-0.7c-0.4-0.6-0.5-1.3-0.5-2v-1.1c-0.1-0.7,0.1-1.5,0.5-2.1
		c0.4-0.5,0.9-0.7,1.5-0.7s1.1,0.2,1.5,0.7c0.4,0.6,0.5,1.3,0.5,2V143.9z M414.7,142.7c0-0.5-0.1-1-0.3-1.5
		c-0.2-0.3-0.5-0.5-0.9-0.5s-0.7,0.2-0.9,0.5c-0.2,0.4-0.3,0.9-0.3,1.4v1.3c0,0.5,0.1,1,0.3,1.5c0.2,0.3,0.5,0.5,0.9,0.5
		s0.7-0.2,0.9-0.5c0.2-0.4,0.3-0.9,0.3-1.5V142.7z M420.5,143.9c0.1,0.7-0.1,1.5-0.5,2.1c-0.4,0.5-0.9,0.7-1.5,0.7s-1.1-0.2-1.5-0.7
		c-0.4-0.6-0.5-1.3-0.5-2v-1.1c-0.1-0.7,0.1-1.5,0.5-2.1c0.4-0.5,0.9-0.7,1.5-0.7s1.1,0.2,1.5,0.7c0.4,0.6,0.5,1.3,0.5,2V143.9z
		 M419.7,142.7c0-0.5-0.1-1-0.3-1.5c-0.2-0.3-0.5-0.5-0.9-0.5s-0.7,0.2-0.9,0.5c-0.2,0.4-0.3,0.9-0.3,1.4v1.3c0,0.5,0.1,1,0.3,1.5
		c0.2,0.3,0.5,0.5,0.9,0.5s0.7-0.2,0.9-0.5c0.2-0.4,0.3-0.9,0.3-1.5V142.7z M425.5,143.9c0.1,0.7-0.1,1.5-0.5,2.1
		c-0.4,0.5-0.9,0.7-1.5,0.7s-1.1-0.2-1.5-0.7c-0.4-0.6-0.5-1.3-0.5-2v-1.1c-0.1-0.7,0.1-1.5,0.5-2.1c0.4-0.5,0.9-0.7,1.5-0.7
		s1.1,0.2,1.5,0.7c0.4,0.6,0.5,1.3,0.5,2V143.9z M424.7,142.7c0-0.5-0.1-1-0.3-1.5c-0.2-0.3-0.5-0.5-0.9-0.5s-0.7,0.2-0.9,0.5
		c-0.2,0.4-0.3,0.9-0.3,1.4v1.3c0,0.5,0.1,1,0.3,1.5c0.2,0.3,0.5,0.5,0.9,0.5s0.7-0.2,0.9-0.5c0.2-0.4,0.3-0.9,0.3-1.5V142.7z"/>
	<path class="st5" d="M399.5,114.3l0.3-3.2h3.3v0.7h-2.6l-0.2,1.7c0.3-0.2,0.7-0.3,1.1-0.3c0.5,0,1,0.2,1.4,0.6s0.5,1,0.5,1.6
		s-0.2,1.1-0.5,1.5c-0.4,0.4-0.9,0.6-1.5,0.6c-0.5,0-1-0.1-1.4-0.5c-0.4-0.3-0.6-0.8-0.6-1.3h0.8c0,0.3,0.2,0.6,0.4,0.8
		c0.2,0.2,0.5,0.3,0.8,0.3s0.7-0.1,0.9-0.4s0.3-0.7,0.3-1c0-0.4-0.1-0.7-0.3-1s-0.6-0.4-0.9-0.4c-0.3,0-0.6,0.1-0.8,0.2l-0.2,0.2
		L399.5,114.3z M404.3,117.1c0-0.1,0-0.3,0.1-0.3c0.1-0.1,0.2-0.2,0.4-0.1c0.1,0,0.3,0,0.4,0.1c0.1,0.1,0.1,0.2,0.1,0.3
		c0,0.1,0,0.2-0.1,0.3c-0.1,0.1-0.2,0.1-0.4,0.1C404.5,117.6,404.3,117.4,404.3,117.1C404.3,117.2,404.3,117.1,404.3,117.1
		L404.3,117.1z M410.5,114.8c0.1,0.7-0.1,1.5-0.5,2.1c-0.4,0.5-0.9,0.7-1.5,0.7s-1.1-0.2-1.5-0.7c-0.4-0.6-0.5-1.3-0.5-2v-1.1
		c-0.1-0.7,0.1-1.5,0.5-2.1c0.4-0.5,0.9-0.7,1.5-0.7s1.1,0.2,1.5,0.7c0.4,0.6,0.5,1.3,0.5,2V114.8z M409.7,113.7
		c0-0.5-0.1-1-0.3-1.5c-0.2-0.3-0.5-0.5-0.9-0.5s-0.7,0.2-0.9,0.5c-0.2,0.4-0.3,0.9-0.3,1.4v1.3c0,0.5,0.1,1,0.3,1.5
		c0.2,0.3,0.5,0.5,0.9,0.5s0.7-0.2,0.9-0.5c0.2-0.4,0.3-0.9,0.3-1.5V113.7z M415.5,114.8c0.1,0.7-0.1,1.5-0.5,2.1
		c-0.4,0.5-0.9,0.7-1.5,0.7s-1.1-0.2-1.5-0.7c-0.4-0.6-0.5-1.3-0.5-2v-1.1c-0.1-0.7,0.1-1.5,0.5-2.1c0.4-0.5,0.9-0.7,1.5-0.7
		s1.1,0.2,1.5,0.7c0.4,0.6,0.5,1.3,0.5,2V114.8z M414.7,113.7c0-0.5-0.1-1-0.3-1.5c-0.2-0.3-0.5-0.5-0.9-0.5s-0.7,0.2-0.9,0.5
		c-0.2,0.4-0.3,0.9-0.3,1.4v1.3c0,0.5,0.1,1,0.3,1.5c0.2,0.3,0.5,0.5,0.9,0.5s0.7-0.2,0.9-0.5c0.2-0.4,0.3-0.9,0.3-1.5V113.7z
		 M420.5,114.8c0.1,0.7-0.1,1.5-0.5,2.1c-0.4,0.5-0.9,0.7-1.5,0.7s-1.1-0.2-1.5-0.7c-0.4-0.6-0.5-1.3-0.5-2v-1.1
		c-0.1-0.7,0.1-1.5,0.5-2.1c0.4-0.5,0.9-0.7,1.5-0.7s1.1,0.2,1.5,0.7c0.4,0.6,0.5,1.3,0.5,2V114.8z M419.7,113.7
		c0-0.5-0.1-1-0.3-1.5c-0.2-0.3-0.5-0.5-0.9-0.5s-0.7,0.2-0.9,0.5c-0.2,0.4-0.3,0.9-0.3,1.4v1.3c0,0.5,0.1,1,0.3,1.5
		c0.2,0.3,0.5,0.5,0.9,0.5s0.7-0.2,0.9-0.5c0.2-0.4,0.3-0.9,0.3-1.5V113.7z M425.5,114.8c0.1,0.7-0.1,1.5-0.5,2.1
		c-0.4,0.5-0.9,0.7-1.5,0.7s-1.1-0.2-1.5-0.7c-0.4-0.6-0.5-1.3-0.5-2v-1.1c-0.1-0.7,0.1-1.5,0.5-2.1c0.4-0.5,0.9-0.7,1.5-0.7
		s1.1,0.2,1.5,0.7c0.4,0.6,0.5,1.3,0.5,2V114.8z M424.7,113.7c0-0.5-0.1-1-0.3-1.5c-0.2-0.3-0.5-0.5-0.9-0.5s-0.7,0.2-0.9,0.5
		c-0.2,0.4-0.3,0.9-0.3,1.4v1.3c0,0.5,0.1,1,0.3,1.5c0.2,0.3,0.5,0.5,0.9,0.5s0.7-0.2,0.9-0.5c0.2-0.4,0.3-0.9,0.3-1.5V113.7z"/>
	<path class="st5" d="M399.5,85.3l0.3-3.2h3.3v0.7h-2.6l-0.2,1.7c0.3-0.2,0.7-0.3,1.1-0.3c0.5,0,1,0.2,1.4,0.6s0.5,1,0.5,1.6
		s-0.2,1.1-0.5,1.5c-0.4,0.4-0.9,0.6-1.5,0.6c-0.5,0-1-0.1-1.4-0.5c-0.4-0.3-0.6-0.8-0.6-1.3h0.8c0,0.3,0.2,0.6,0.4,0.8
		c0.2,0.2,0.5,0.3,0.8,0.3s0.7-0.1,0.9-0.4s0.3-0.7,0.3-1c0-0.4-0.1-0.7-0.3-1s-0.6-0.4-0.9-0.4c-0.3,0-0.6,0.1-0.8,0.2l-0.2,0.2
		L399.5,85.3z M404.3,88.1c0-0.1,0-0.3,0.1-0.3c0.1-0.1,0.2-0.2,0.4-0.1c0.1,0,0.3,0,0.4,0.1c0.1,0.1,0.1,0.2,0.1,0.3
		c0,0.1,0,0.2-0.1,0.3c-0.1,0.1-0.2,0.1-0.4,0.1C404.5,88.6,404.3,88.4,404.3,88.1L404.3,88.1L404.3,88.1z M406.9,85.3l0.3-3.2h3.3
		v0.7h-2.6l-0.2,1.7c0.3-0.2,0.7-0.3,1.1-0.3c0.5,0,1,0.2,1.4,0.6s0.5,1,0.5,1.6s-0.2,1.1-0.5,1.5c-0.4,0.4-0.9,0.6-1.5,0.6
		c-0.5,0-1-0.1-1.4-0.5c-0.4-0.3-0.6-0.8-0.6-1.3h0.8c0,0.3,0.2,0.6,0.4,0.8c0.2,0.2,0.5,0.3,0.8,0.3s0.7-0.1,0.9-0.4
		s0.3-0.7,0.3-1.1s-0.1-0.7-0.3-1s-0.6-0.4-0.9-0.4c-0.3,0-0.6,0.1-0.8,0.2l-0.2,0.2L406.9,85.3z M415.5,85.8
		c0.1,0.7-0.1,1.5-0.5,2.1c-0.4,0.5-0.9,0.7-1.5,0.7s-1.1-0.2-1.5-0.7c-0.4-0.6-0.5-1.3-0.5-2v-1.1c-0.1-0.7,0.1-1.5,0.5-2.1
		c0.4-0.5,0.9-0.7,1.5-0.7s1.1,0.2,1.5,0.7c0.4,0.6,0.5,1.3,0.5,2V85.8z M414.7,84.7c0-0.5-0.1-1-0.3-1.5c-0.2-0.3-0.5-0.5-0.9-0.5
		s-0.7,0.2-0.9,0.5c-0.2,0.4-0.3,0.9-0.3,1.4v1.3c0,0.5,0.1,1,0.3,1.5c0.2,0.3,0.5,0.5,0.9,0.5s0.7-0.2,0.9-0.5
		c0.2-0.4,0.3-0.9,0.3-1.5V84.7z M420.5,85.8c0.1,0.7-0.1,1.5-0.5,2.1c-0.4,0.5-0.9,0.7-1.5,0.7s-1.1-0.2-1.5-0.7
		c-0.4-0.6-0.5-1.3-0.5-2v-1.1c-0.1-0.7,0.1-1.5,0.5-2.1c0.4-0.5,0.9-0.7,1.5-0.7s1.1,0.2,1.5,0.7c0.4,0.6,0.5,1.3,0.5,2V85.8z
		 M419.7,84.7c0-0.5-0.1-1-0.3-1.5c-0.2-0.3-0.5-0.5-0.9-0.5s-0.7,0.2-0.9,0.5c-0.2,0.4-0.3,0.9-0.3,1.4v1.3c0,0.5,0.1,1,0.3,1.5
		c0.2,0.3,0.5,0.5,0.9,0.5s0.7-0.2,0.9-0.5c0.2-0.4,0.3-0.9,0.3-1.5V84.7z M425.5,85.8c0.1,0.7-0.1,1.5-0.5,2.1
		c-0.4,0.5-0.9,0.7-1.5,0.7s-1.1-0.2-1.5-0.7c-0.4-0.6-0.5-1.3-0.5-2v-1.1c-0.1-0.7,0.1-1.5,0.5-2.1c0.4-0.5,0.9-0.7,1.5-0.7
		s1.1,0.2,1.5,0.7c0.4,0.6,0.5,1.3,0.5,2V85.8z M424.7,84.7c0-0.5-0.1-1-0.3-1.5c-0.2-0.3-0.5-0.5-0.9-0.5s-0.7,0.2-0.9,0.5
		c-0.2,0.4-0.3,0.9-0.3,1.4v1.3c0,0.5,0.1,1,0.3,1.5c0.2,0.3,0.5,0.5,0.9,0.5s0.7-0.2,0.9-0.5c0.2-0.4,0.3-0.9,0.3-1.5V84.7z"/>
	<path class="st5" d="M402.6,173.5h0.9v0.7h-0.9v1.5h-0.8v-1.5h-2.9v-0.5l2.8-4.4h0.9V173.5z M399.8,173.5h2v-3.1l-0.1,0.2
		L399.8,173.5z M404.3,175.2c0-0.1,0-0.3,0.1-0.3c0.1-0.1,0.2-0.2,0.4-0.1c0.1,0,0.3,0,0.4,0.1c0.1,0.1,0.1,0.2,0.1,0.3
		c0,0.1,0,0.2-0.1,0.3c-0.1,0.1-0.2,0.1-0.4,0.1C404.5,175.7,404.3,175.5,404.3,175.2L404.3,175.2z M410.5,172.9
		c0.1,0.7-0.1,1.5-0.5,2.1c-0.4,0.5-0.9,0.7-1.5,0.7s-1.1-0.2-1.5-0.7c-0.4-0.6-0.5-1.3-0.5-2v-1.1c-0.1-0.7,0.1-1.5,0.5-2.1
		c0.4-0.5,0.9-0.7,1.5-0.7s1.1,0.2,1.5,0.7c0.4,0.6,0.5,1.3,0.5,2V172.9z M409.7,171.8c0-0.5-0.1-1-0.3-1.5
		c-0.2-0.3-0.5-0.5-0.9-0.5s-0.7,0.2-0.9,0.5c-0.2,0.4-0.3,0.9-0.3,1.4v1.3c0,0.5,0.1,1,0.3,1.5c0.2,0.3,0.5,0.5,0.9,0.5
		s0.7-0.2,0.9-0.5c0.2-0.4,0.3-0.9,0.3-1.5V171.8z M415.5,172.9c0.1,0.7-0.1,1.5-0.5,2.1c-0.4,0.5-0.9,0.7-1.5,0.7s-1.1-0.2-1.5-0.7
		c-0.4-0.6-0.5-1.3-0.5-2v-1.1c-0.1-0.7,0.1-1.5,0.5-2.1c0.4-0.5,0.9-0.7,1.5-0.7s1.1,0.2,1.5,0.7c0.4,0.6,0.5,1.3,0.5,2V172.9z
		 M414.7,171.8c0-0.5-0.1-1-0.3-1.5c-0.2-0.3-0.5-0.5-0.9-0.5s-0.7,0.2-0.9,0.5c-0.2,0.4-0.3,0.9-0.3,1.4v1.3c0,0.5,0.1,1,0.3,1.5
		c0.2,0.3,0.5,0.5,0.9,0.5s0.7-0.2,0.9-0.5c0.2-0.4,0.3-0.9,0.3-1.5V171.8z M420.5,172.9c0.1,0.7-0.1,1.5-0.5,2.1
		c-0.4,0.5-0.9,0.7-1.5,0.7s-1.1-0.2-1.5-0.7c-0.4-0.6-0.5-1.3-0.5-2v-1.1c-0.1-0.7,0.1-1.5,0.5-2.1c0.4-0.5,0.9-0.7,1.5-0.7
		s1.1,0.2,1.5,0.7c0.4,0.6,0.5,1.3,0.5,2V172.9z M419.7,171.8c0-0.5-0.1-1-0.3-1.5c-0.2-0.3-0.5-0.5-0.9-0.5s-0.7,0.2-0.9,0.5
		c-0.2,0.4-0.3,0.9-0.3,1.4v1.3c0,0.5,0.1,1,0.3,1.5c0.2,0.3,0.5,0.5,0.9,0.5s0.7-0.2,0.9-0.5c0.2-0.4,0.3-0.9,0.3-1.5V171.8z
		 M425.5,172.9c0.1,0.7-0.1,1.5-0.5,2.1c-0.4,0.5-0.9,0.7-1.5,0.7s-1.1-0.2-1.5-0.7c-0.4-0.6-0.5-1.3-0.5-2v-1.1
		c-0.1-0.7,0.1-1.5,0.5-2.1c0.4-0.5,0.9-0.7,1.5-0.7s1.1,0.2,1.5,0.7c0.4,0.6,0.5,1.3,0.5,2V172.9z M424.7,171.8
		c0-0.5-0.1-1-0.3-1.5c-0.2-0.3-0.5-0.5-0.9-0.5s-0.7,0.2-0.9,0.5c-0.2,0.4-0.3,0.9-0.3,1.4v1.3c0,0.5,0.1,1,0.3,1.5
		c0.2,0.3,0.5,0.5,0.9,0.5s0.7-0.2,0.9-0.5c0.2-0.4,0.3-0.9,0.3-1.5V171.8z"/>
	<path class="st5" d="M400.3,201.1h0.6c0.3,0,0.6-0.1,0.9-0.3c0.2-0.2,0.3-0.5,0.3-0.8c0.1-0.5-0.3-1-0.8-1.1c-0.1,0-0.2,0-0.3,0
		c-0.3,0-0.6,0.1-0.8,0.3c-0.2,0.2-0.3,0.5-0.3,0.8h-0.8c0-0.5,0.2-0.9,0.6-1.3c0.4-0.3,0.9-0.5,1.4-0.5s1,0.1,1.4,0.5
		c0.4,0.3,0.5,0.8,0.5,1.3c0,0.3-0.1,0.6-0.3,0.8c-0.2,0.3-0.4,0.5-0.7,0.6c0.3,0.1,0.6,0.3,0.8,0.5c0.2,0.3,0.3,0.6,0.3,0.9
		c0,0.5-0.2,1-0.6,1.4c-0.4,0.3-0.9,0.5-1.5,0.5c-0.5,0-1-0.2-1.5-0.5c-0.4-0.3-0.6-0.8-0.6-1.3h0.8c0,0.3,0.1,0.6,0.3,0.8
		c0.2,0.2,0.6,0.3,0.9,0.3c0.3,0,0.6-0.1,0.9-0.3c0.2-0.2,0.3-0.6,0.3-0.9s-0.1-0.6-0.3-0.9c-0.3-0.2-0.6-0.3-1-0.3h-0.6
		L400.3,201.1L400.3,201.1z M404.3,204.2c0-0.1,0-0.3,0.1-0.3c0.1-0.1,0.2-0.2,0.4-0.1c0.1,0,0.3,0,0.4,0.1c0.1,0.1,0.1,0.2,0.1,0.3
		c0,0.1,0,0.2-0.1,0.3c-0.1,0.1-0.2,0.1-0.4,0.1C404.5,204.7,404.3,204.5,404.3,204.2C404.3,204.3,404.3,204.2,404.3,204.2z
		 M406.9,201.4l0.3-3.2h3.3v0.7h-2.6l-0.2,1.7c0.3-0.2,0.7-0.3,1.1-0.3c0.5,0,1,0.2,1.4,0.6s0.5,1,0.5,1.6s-0.2,1.1-0.5,1.5
		c-0.4,0.4-0.9,0.6-1.5,0.6c-0.5,0-1-0.1-1.4-0.5c-0.4-0.3-0.6-0.8-0.6-1.3h0.8c0,0.3,0.2,0.6,0.4,0.8c0.2,0.2,0.5,0.3,0.8,0.3
		s0.7-0.1,0.9-0.4s0.3-0.7,0.3-1.1s-0.1-0.7-0.3-1s-0.6-0.4-0.9-0.4c-0.3,0-0.6,0.1-0.8,0.2l-0.2,0.2L406.9,201.4z M415.5,201.9
		c0.1,0.7-0.1,1.5-0.5,2.1c-0.4,0.5-0.9,0.7-1.5,0.7s-1.1-0.2-1.5-0.7c-0.4-0.6-0.5-1.3-0.5-2v-1.1c-0.1-0.7,0.1-1.5,0.5-2.1
		c0.4-0.5,0.9-0.7,1.5-0.7s1.1,0.2,1.5,0.7c0.4,0.6,0.5,1.3,0.5,2V201.9z M414.7,200.8c0-0.5-0.1-1-0.3-1.5
		c-0.2-0.3-0.5-0.5-0.9-0.5s-0.7,0.2-0.9,0.5c-0.2,0.4-0.3,0.9-0.3,1.4v1.3c0,0.5,0.1,1,0.3,1.5c0.2,0.3,0.5,0.5,0.9,0.5
		s0.7-0.2,0.9-0.5c0.2-0.4,0.3-0.9,0.3-1.5V200.8z M420.5,201.9c0.1,0.7-0.1,1.5-0.5,2.1c-0.4,0.5-0.9,0.7-1.5,0.7s-1.1-0.2-1.5-0.7
		c-0.4-0.6-0.5-1.3-0.5-2v-1.1c-0.1-0.7,0.1-1.5,0.5-2.1c0.4-0.5,0.9-0.7,1.5-0.7s1.1,0.2,1.5,0.7c0.4,0.6,0.5,1.3,0.5,2V201.9z
		 M419.7,200.8c0-0.5-0.1-1-0.3-1.5c-0.2-0.3-0.5-0.5-0.9-0.5s-0.7,0.2-0.9,0.5c-0.2,0.4-0.3,0.9-0.3,1.4v1.3c0,0.5,0.1,1,0.3,1.5
		c0.2,0.3,0.5,0.5,0.9,0.5s0.7-0.2,0.9-0.5c0.2-0.4,0.3-0.9,0.3-1.5V200.8z M425.5,201.9c0.1,0.7-0.1,1.5-0.5,2.1
		c-0.4,0.5-0.9,0.7-1.5,0.7s-1.1-0.2-1.5-0.7c-0.4-0.6-0.5-1.3-0.5-2v-1.1c-0.1-0.7,0.1-1.5,0.5-2.1c0.4-0.5,0.9-0.7,1.5-0.7
		s1.1,0.2,1.5,0.7c0.4,0.6,0.5,1.3,0.5,2V201.9z M424.7,200.8c0-0.5-0.1-1-0.3-1.5c-0.2-0.3-0.5-0.5-0.9-0.5s-0.7,0.2-0.9,0.5
		c-0.2,0.4-0.3,0.9-0.3,1.4v1.3c0,0.5,0.1,1,0.3,1.5c0.2,0.3,0.5,0.5,0.9,0.5s0.7-0.2,0.9-0.5c0.2-0.4,0.3-0.9,0.3-1.5V200.8z"/>
	<path class="st5" d="M400.3,230.1h0.6c0.3,0,0.6-0.1,0.9-0.3c0.2-0.2,0.3-0.5,0.3-0.8c0.1-0.5-0.3-1-0.8-1.1c-0.1,0-0.2,0-0.3,0
		c-0.3,0-0.6,0.1-0.8,0.3c-0.2,0.2-0.3,0.5-0.3,0.8h-0.8c0-0.5,0.2-0.9,0.6-1.3c0.4-0.3,0.9-0.5,1.4-0.5s1,0.1,1.4,0.5
		c0.4,0.3,0.5,0.8,0.5,1.3c0,0.3-0.1,0.6-0.3,0.8c-0.2,0.3-0.4,0.5-0.7,0.6c0.3,0.1,0.6,0.3,0.8,0.5c0.2,0.3,0.3,0.6,0.3,0.9
		c0,0.5-0.2,1-0.6,1.4c-0.4,0.3-0.9,0.5-1.5,0.5c-0.5,0-1-0.2-1.5-0.5c-0.4-0.3-0.6-0.8-0.6-1.3h0.8c0,0.3,0.1,0.6,0.3,0.8
		c0.2,0.2,0.6,0.3,0.9,0.3c0.3,0,0.6-0.1,0.9-0.3c0.2-0.2,0.3-0.6,0.3-0.9s-0.1-0.6-0.3-0.9c-0.3-0.2-0.6-0.3-1-0.3h-0.6
		L400.3,230.1L400.3,230.1z M404.3,233.2c0-0.1,0-0.3,0.1-0.3c0.1-0.1,0.2-0.2,0.4-0.1c0.1,0,0.3,0,0.4,0.1c0.1,0.1,0.1,0.2,0.1,0.3
		c0,0.1,0,0.2-0.1,0.3c-0.1,0.1-0.2,0.1-0.4,0.1C404.5,233.7,404.3,233.6,404.3,233.2C404.3,233.3,404.3,233.3,404.3,233.2z
		 M410.5,231c0.1,0.7-0.1,1.5-0.5,2.1c-0.4,0.5-0.9,0.7-1.5,0.7s-1.1-0.2-1.5-0.7c-0.4-0.6-0.5-1.3-0.5-2V230
		c-0.1-0.7,0.1-1.5,0.5-2.1c0.4-0.5,0.9-0.7,1.5-0.7s1.1,0.2,1.5,0.7c0.4,0.6,0.5,1.3,0.5,2V231z M409.7,229.9c0-0.5-0.1-1-0.3-1.5
		c-0.2-0.3-0.5-0.5-0.9-0.5s-0.7,0.2-0.9,0.5c-0.2,0.4-0.3,0.9-0.3,1.4v1.3c0,0.5,0.1,1,0.3,1.5c0.2,0.3,0.5,0.5,0.9,0.5
		s0.7-0.2,0.9-0.5c0.2-0.4,0.3-0.9,0.3-1.5V229.9z M415.5,231c0.1,0.7-0.1,1.5-0.5,2.1c-0.4,0.5-0.9,0.7-1.5,0.7s-1.1-0.2-1.5-0.7
		c-0.4-0.6-0.5-1.3-0.5-2V230c-0.1-0.7,0.1-1.5,0.5-2.1c0.4-0.5,0.9-0.7,1.5-0.7s1.1,0.2,1.5,0.7c0.4,0.6,0.5,1.3,0.5,2V231z
		 M414.7,229.9c0-0.5-0.1-1-0.3-1.5c-0.2-0.3-0.5-0.5-0.9-0.5s-0.7,0.2-0.9,0.5c-0.2,0.4-0.3,0.9-0.3,1.4v1.3c0,0.5,0.1,1,0.3,1.5
		c0.2,0.3,0.5,0.5,0.9,0.5s0.7-0.2,0.9-0.5c0.2-0.4,0.3-0.9,0.3-1.5V229.9z M420.5,231c0.1,0.7-0.1,1.5-0.5,2.1
		c-0.4,0.5-0.9,0.7-1.5,0.7s-1.1-0.2-1.5-0.7c-0.4-0.6-0.5-1.3-0.5-2V230c-0.1-0.7,0.1-1.5,0.5-2.1c0.4-0.5,0.9-0.7,1.5-0.7
		s1.1,0.2,1.5,0.7c0.4,0.6,0.5,1.3,0.5,2V231z M419.7,229.9c0-0.5-0.1-1-0.3-1.5c-0.2-0.3-0.5-0.5-0.9-0.5s-0.7,0.2-0.9,0.5
		c-0.2,0.4-0.3,0.9-0.3,1.4v1.3c0,0.5,0.1,1,0.3,1.5c0.2,0.3,0.5,0.5,0.9,0.5s0.7-0.2,0.9-0.5c0.2-0.4,0.3-0.9,0.3-1.5V229.9z
		 M425.5,231c0.1,0.7-0.1,1.5-0.5,2.1c-0.4,0.5-0.9,0.7-1.5,0.7s-1.1-0.2-1.5-0.7c-0.4-0.6-0.5-1.3-0.5-2V230
		c-0.1-0.7,0.1-1.5,0.5-2.1c0.4-0.5,0.9-0.7,1.5-0.7s1.1,0.2,1.5,0.7c0.4,0.6,0.5,1.3,0.5,2V231z M424.7,229.9c0-0.5-0.1-1-0.3-1.5
		c-0.2-0.3-0.5-0.5-0.9-0.5s-0.7,0.2-0.9,0.5c-0.2,0.4-0.3,0.9-0.3,1.4v1.3c0,0.5,0.1,1,0.3,1.5c0.2,0.3,0.5,0.5,0.9,0.5
		s0.7-0.2,0.9-0.5c0.2-0.4,0.3-0.9,0.3-1.5V229.9z"/>
	<path class="st5" d="M403.3,262.7h-4.2v-0.6l2.2-2.4c0.3-0.3,0.5-0.6,0.7-0.9c0.1-0.2,0.2-0.5,0.2-0.7c0-0.3-0.1-0.6-0.3-0.8
		c-0.2-0.2-0.5-0.3-0.8-0.3s-0.7,0.1-0.9,0.3c-0.2,0.3-0.4,0.6-0.3,1H399c0-0.5,0.2-1,0.6-1.4c0.4-0.4,1-0.6,1.5-0.5
		c0.5,0,1,0.1,1.4,0.5c0.3,0.3,0.5,0.8,0.5,1.2c-0.1,0.9-0.5,1.7-1.2,2.2l-1.7,1.8h3.2V262.7z M404.3,262.3c0-0.1,0-0.3,0.1-0.3
		c0.1-0.1,0.2-0.2,0.4-0.1c0.1,0,0.3,0,0.4,0.1c0.1,0.1,0.1,0.2,0.1,0.3c0,0.1,0,0.2-0.1,0.3c-0.1,0.1-0.2,0.1-0.4,0.1
		C404.5,262.8,404.3,262.6,404.3,262.3L404.3,262.3z M406.9,259.5l0.3-3.2h3.3v0.7h-2.6l-0.2,1.7c0.3-0.2,0.7-0.3,1.1-0.3
		c0.5,0,1,0.2,1.4,0.6s0.5,1,0.5,1.6s-0.2,1.1-0.5,1.5c-0.4,0.4-0.9,0.6-1.5,0.6c-0.5,0-1-0.1-1.4-0.5c-0.4-0.3-0.6-0.8-0.6-1.3h0.8
		c0,0.3,0.2,0.6,0.4,0.8c0.2,0.2,0.5,0.3,0.8,0.3s0.7-0.1,0.9-0.4s0.3-0.7,0.3-1.1s-0.1-0.7-0.3-1s-0.6-0.4-0.9-0.4
		c-0.3,0-0.6,0.1-0.8,0.2l-0.2,0.2L406.9,259.5z M415.5,260c0.1,0.7-0.1,1.5-0.5,2.1c-0.4,0.5-0.9,0.7-1.5,0.7s-1.1-0.2-1.5-0.7
		c-0.4-0.6-0.5-1.3-0.5-2V259c-0.1-0.7,0.1-1.5,0.5-2.1c0.4-0.5,0.9-0.7,1.5-0.7s1.1,0.2,1.5,0.7c0.4,0.6,0.5,1.3,0.5,2V260z
		 M414.7,258.9c0-0.5-0.1-1-0.3-1.5c-0.2-0.3-0.5-0.5-0.9-0.5s-0.7,0.2-0.9,0.5c-0.2,0.4-0.3,0.9-0.3,1.4v1.3c0,0.5,0.1,1,0.3,1.5
		c0.2,0.3,0.5,0.5,0.9,0.5s0.7-0.2,0.9-0.5c0.2-0.4,0.3-0.9,0.3-1.5V258.9z M420.5,260c0.1,0.7-0.1,1.5-0.5,2.1
		c-0.4,0.5-0.9,0.7-1.5,0.7s-1.1-0.2-1.5-0.7c-0.4-0.6-0.5-1.3-0.5-2V259c-0.1-0.7,0.1-1.5,0.5-2.1c0.4-0.5,0.9-0.7,1.5-0.7
		s1.1,0.2,1.5,0.7c0.4,0.6,0.5,1.3,0.5,2V260z M419.7,258.9c0-0.5-0.1-1-0.3-1.5c-0.2-0.3-0.5-0.5-0.9-0.5s-0.7,0.2-0.9,0.5
		c-0.2,0.4-0.3,0.9-0.3,1.4v1.3c0,0.5,0.1,1,0.3,1.5c0.2,0.3,0.5,0.5,0.9,0.5s0.7-0.2,0.9-0.5c0.2-0.4,0.3-0.9,0.3-1.5V258.9z
		 M425.5,260c0.1,0.7-0.1,1.5-0.5,2.1c-0.4,0.5-0.9,0.7-1.5,0.7s-1.1-0.2-1.5-0.7c-0.4-0.6-0.5-1.3-0.5-2V259
		c-0.1-0.7,0.1-1.5,0.5-2.1c0.4-0.5,0.9-0.7,1.5-0.7s1.1,0.2,1.5,0.7c0.4,0.6,0.5,1.3,0.5,2V260z M424.7,258.9c0-0.5-0.1-1-0.3-1.5
		c-0.2-0.3-0.5-0.5-0.9-0.5s-0.7,0.2-0.9,0.5c-0.2,0.4-0.3,0.9-0.3,1.4v1.3c0,0.5,0.1,1,0.3,1.5c0.2,0.3,0.5,0.5,0.9,0.5
		s0.7-0.2,0.9-0.5c0.2-0.4,0.3-0.9,0.3-1.5V258.9z"/>
	<path class="st5" d="M403.3,291.7h-4.2v-0.6l2.2-2.4c0.3-0.3,0.5-0.6,0.7-0.9c0.1-0.2,0.2-0.5,0.2-0.7c0-0.3-0.1-0.6-0.3-0.8
		c-0.2-0.2-0.5-0.3-0.8-0.3s-0.7,0.1-0.9,0.3c-0.2,0.3-0.4,0.6-0.3,1H399c0-0.5,0.2-1,0.6-1.4c0.4-0.4,1-0.6,1.5-0.5
		c0.5,0,1,0.1,1.4,0.5c0.3,0.3,0.5,0.8,0.5,1.2c-0.1,0.9-0.5,1.7-1.2,2.2l-1.7,1.8h3.2V291.7z M404.3,291.3c0-0.1,0-0.3,0.1-0.3
		c0.1-0.1,0.2-0.2,0.4-0.1c0.1,0,0.3,0,0.4,0.1c0.1,0.1,0.1,0.2,0.1,0.3c0,0.1,0,0.2-0.1,0.3c-0.1,0.1-0.2,0.1-0.4,0.1
		C404.5,291.8,404.3,291.6,404.3,291.3C404.3,291.4,404.3,291.3,404.3,291.3z M410.5,289c0.1,0.7-0.1,1.5-0.5,2.1
		c-0.4,0.5-0.9,0.7-1.5,0.7s-1.1-0.2-1.5-0.7c-0.4-0.6-0.5-1.3-0.5-2V288c-0.1-0.7,0.1-1.5,0.5-2.1c0.4-0.5,0.9-0.7,1.5-0.7
		s1.1,0.2,1.5,0.7c0.4,0.6,0.5,1.3,0.5,2V289z M409.7,287.9c0-0.5-0.1-1-0.3-1.5c-0.2-0.3-0.5-0.5-0.9-0.5s-0.7,0.2-0.9,0.5
		c-0.2,0.4-0.3,0.9-0.3,1.4v1.3c0,0.5,0.1,1,0.3,1.5c0.2,0.3,0.5,0.5,0.9,0.5s0.7-0.2,0.9-0.5c0.2-0.4,0.3-0.9,0.3-1.5V287.9z
		 M415.5,289c0.1,0.7-0.1,1.5-0.5,2.1c-0.4,0.5-0.9,0.7-1.5,0.7s-1.1-0.2-1.5-0.7c-0.4-0.6-0.5-1.3-0.5-2V288
		c-0.1-0.7,0.1-1.5,0.5-2.1c0.4-0.5,0.9-0.7,1.5-0.7s1.1,0.2,1.5,0.7c0.4,0.6,0.5,1.3,0.5,2V289z M414.7,287.9c0-0.5-0.1-1-0.3-1.5
		c-0.2-0.3-0.5-0.5-0.9-0.5s-0.7,0.2-0.9,0.5c-0.2,0.4-0.3,0.9-0.3,1.4v1.3c0,0.5,0.1,1,0.3,1.5c0.2,0.3,0.5,0.5,0.9,0.5
		s0.7-0.2,0.9-0.5c0.2-0.4,0.3-0.9,0.3-1.5V287.9z M420.5,289c0.1,0.7-0.1,1.5-0.5,2.1c-0.4,0.5-0.9,0.7-1.5,0.7s-1.1-0.2-1.5-0.7
		c-0.4-0.6-0.5-1.3-0.5-2V288c-0.1-0.7,0.1-1.5,0.5-2.1c0.4-0.5,0.9-0.7,1.5-0.7s1.1,0.2,1.5,0.7c0.4,0.6,0.5,1.3,0.5,2V289z
		 M419.7,287.9c0-0.5-0.1-1-0.3-1.5c-0.2-0.3-0.5-0.5-0.9-0.5s-0.7,0.2-0.9,0.5c-0.2,0.4-0.3,0.9-0.3,1.4v1.3c0,0.5,0.1,1,0.3,1.5
		c0.2,0.3,0.5,0.5,0.9,0.5s0.7-0.2,0.9-0.5c0.2-0.4,0.3-0.9,0.3-1.5V287.9z M425.5,289c0.1,0.7-0.1,1.5-0.5,2.1
		c-0.4,0.5-0.9,0.7-1.5,0.7s-1.1-0.2-1.5-0.7c-0.4-0.6-0.5-1.3-0.5-2V288c-0.1-0.7,0.1-1.5,0.5-2.1c0.4-0.5,0.9-0.7,1.5-0.7
		s1.1,0.2,1.5,0.7c0.4,0.6,0.5,1.3,0.5,2V289z M424.7,287.9c0-0.5-0.1-1-0.3-1.5c-0.2-0.3-0.5-0.5-0.9-0.5s-0.7,0.2-0.9,0.5
		c-0.2,0.4-0.3,0.9-0.3,1.4v1.3c0,0.5,0.1,1,0.3,1.5c0.2,0.3,0.5,0.5,0.9,0.5s0.7-0.2,0.9-0.5c0.2-0.4,0.3-0.9,0.3-1.5V287.9z"/>
	<path class="st5" d="M401.8,320.8H401v-5.4l-1.6,0.6v-0.7l2.3-0.9h0.1V320.8z M404.3,320.4c0-0.1,0-0.3,0.1-0.3
		c0.1-0.1,0.2-0.2,0.4-0.1c0.1,0,0.3,0,0.4,0.1c0.1,0.1,0.1,0.2,0.1,0.3c0,0.1,0,0.2-0.1,0.3c-0.1,0.1-0.2,0.1-0.4,0.1
		C404.5,320.9,404.3,320.7,404.3,320.4L404.3,320.4z M406.9,317.6l0.3-3.2h3.3v0.7h-2.6l-0.2,1.7c0.3-0.2,0.7-0.3,1.1-0.3
		c0.5,0,1,0.2,1.4,0.6s0.5,1,0.5,1.6s-0.2,1.1-0.5,1.5c-0.4,0.4-0.9,0.6-1.5,0.6c-0.5,0-1-0.1-1.4-0.5c-0.4-0.3-0.6-0.8-0.6-1.3h0.8
		c0,0.3,0.2,0.6,0.4,0.8c0.2,0.2,0.5,0.3,0.8,0.3s0.7-0.1,0.9-0.4s0.3-0.7,0.3-1.1s-0.1-0.7-0.3-1s-0.6-0.4-0.9-0.4
		c-0.3,0-0.6,0.1-0.8,0.2l-0.2,0.2L406.9,317.6z M415.5,318.1c0.1,0.7-0.1,1.5-0.5,2.1c-0.4,0.5-0.9,0.7-1.5,0.7s-1.1-0.2-1.5-0.7
		c-0.4-0.6-0.5-1.3-0.5-2v-1.1c-0.1-0.7,0.1-1.5,0.5-2.1c0.4-0.5,0.9-0.7,1.5-0.7s1.1,0.2,1.5,0.7c0.4,0.6,0.5,1.3,0.5,2V318.1z
		 M414.7,317c0-0.5-0.1-1-0.3-1.5c-0.2-0.3-0.5-0.5-0.9-0.5s-0.7,0.2-0.9,0.5c-0.2,0.4-0.3,0.9-0.3,1.4v1.3c0,0.5,0.1,1,0.3,1.5
		c0.2,0.3,0.5,0.5,0.9,0.5s0.7-0.2,0.9-0.5c0.2-0.4,0.3-0.9,0.3-1.5V317z M420.5,318.1c0.1,0.7-0.1,1.5-0.5,2.1
		c-0.4,0.5-0.9,0.7-1.5,0.7s-1.1-0.2-1.5-0.7c-0.4-0.6-0.5-1.3-0.5-2v-1.1c-0.1-0.7,0.1-1.5,0.5-2.1c0.4-0.5,0.9-0.7,1.5-0.7
		s1.1,0.2,1.5,0.7c0.4,0.6,0.5,1.3,0.5,2V318.1z M419.7,317c0-0.5-0.1-1-0.3-1.5c-0.2-0.3-0.5-0.5-0.9-0.5s-0.7,0.2-0.9,0.5
		c-0.2,0.4-0.3,0.9-0.3,1.4v1.3c0,0.5,0.1,1,0.3,1.5c0.2,0.3,0.5,0.5,0.9,0.5s0.7-0.2,0.9-0.5c0.2-0.4,0.3-0.9,0.3-1.5V317z
		 M425.5,318.1c0.1,0.7-0.1,1.5-0.5,2.1c-0.4,0.5-0.9,0.7-1.5,0.7s-1.1-0.2-1.5-0.7c-0.4-0.6-0.5-1.3-0.5-2v-1.1
		c-0.1-0.7,0.1-1.5,0.5-2.1c0.4-0.5,0.9-0.7,1.5-0.7s1.1,0.2,1.5,0.7c0.4,0.6,0.5,1.3,0.5,2V318.1z M424.7,317c0-0.5-0.1-1-0.3-1.5
		c-0.2-0.3-0.5-0.5-0.9-0.5s-0.7,0.2-0.9,0.5c-0.2,0.4-0.3,0.9-0.3,1.4v1.3c0,0.5,0.1,1,0.3,1.5c0.2,0.3,0.5,0.5,0.9,0.5
		s0.7-0.2,0.9-0.5c0.2-0.4,0.3-0.9,0.3-1.5V317z"/>
	<path class="st5" d="M401.8,349.8H401v-5.4l-1.6,0.6v-0.7l2.3-0.9h0.1V349.8z M404.3,349.4c0-0.1,0-0.3,0.1-0.3
		c0.1-0.1,0.2-0.2,0.4-0.1c0.1,0,0.3,0,0.4,0.1c0.1,0.1,0.1,0.2,0.1,0.3c0,0.1,0,0.2-0.1,0.3c-0.1,0.1-0.2,0.1-0.4,0.1
		C404.5,349.9,404.3,349.7,404.3,349.4L404.3,349.4z M410.5,347.1c0.1,0.7-0.1,1.5-0.5,2.1c-0.4,0.5-0.9,0.7-1.5,0.7
		s-1.1-0.2-1.5-0.7c-0.4-0.6-0.5-1.3-0.5-2v-1.1c-0.1-0.7,0.1-1.5,0.5-2.1c0.4-0.5,0.9-0.7,1.5-0.7s1.1,0.2,1.5,0.7
		c0.4,0.6,0.5,1.3,0.5,2V347.1z M409.7,346c0-0.5-0.1-1-0.3-1.5c-0.2-0.3-0.5-0.5-0.9-0.5s-0.7,0.2-0.9,0.5
		c-0.2,0.4-0.3,0.9-0.3,1.4v1.3c0,0.5,0.1,1,0.3,1.5c0.2,0.3,0.5,0.5,0.9,0.5s0.7-0.2,0.9-0.5c0.2-0.4,0.3-0.9,0.3-1.5V346z
		 M415.5,347.1c0.1,0.7-0.1,1.5-0.5,2.1c-0.4,0.5-0.9,0.7-1.5,0.7s-1.1-0.2-1.5-0.7c-0.4-0.6-0.5-1.3-0.5-2v-1.1
		c-0.1-0.7,0.1-1.5,0.5-2.1c0.4-0.5,0.9-0.7,1.5-0.7s1.1,0.2,1.5,0.7c0.4,0.6,0.5,1.3,0.5,2V347.1z M414.7,346c0-0.5-0.1-1-0.3-1.5
		c-0.2-0.3-0.5-0.5-0.9-0.5s-0.7,0.2-0.9,0.5c-0.2,0.4-0.3,0.9-0.3,1.4v1.3c0,0.5,0.1,1,0.3,1.5c0.2,0.3,0.5,0.5,0.9,0.5
		s0.7-0.2,0.9-0.5c0.2-0.4,0.3-0.9,0.3-1.5V346z M420.5,347.1c0.1,0.7-0.1,1.5-0.5,2.1c-0.4,0.5-0.9,0.7-1.5,0.7s-1.1-0.2-1.5-0.7
		c-0.4-0.6-0.5-1.3-0.5-2v-1.1c-0.1-0.7,0.1-1.5,0.5-2.1c0.4-0.5,0.9-0.7,1.5-0.7s1.1,0.2,1.5,0.7c0.4,0.6,0.5,1.3,0.5,2V347.1z
		 M419.7,346c0-0.5-0.1-1-0.3-1.5c-0.2-0.3-0.5-0.5-0.9-0.5s-0.7,0.2-0.9,0.5c-0.2,0.4-0.3,0.9-0.3,1.4v1.3c0,0.5,0.1,1,0.3,1.5
		c0.2,0.3,0.5,0.5,0.9,0.5s0.7-0.2,0.9-0.5c0.2-0.4,0.3-0.9,0.3-1.5V346z M425.5,347.1c0.1,0.7-0.1,1.5-0.5,2.1
		c-0.4,0.5-0.9,0.7-1.5,0.7s-1.1-0.2-1.5-0.7c-0.4-0.6-0.5-1.3-0.5-2v-1.1c-0.1-0.7,0.1-1.5,0.5-2.1c0.4-0.5,0.9-0.7,1.5-0.7
		s1.1,0.2,1.5,0.7c0.4,0.6,0.5,1.3,0.5,2V347.1z M424.7,346c0-0.5-0.1-1-0.3-1.5c-0.2-0.3-0.5-0.5-0.9-0.5s-0.7,0.2-0.9,0.5
		c-0.2,0.4-0.3,0.9-0.3,1.4v1.3c0,0.5,0.1,1,0.3,1.5c0.2,0.3,0.5,0.5,0.9,0.5s0.7-0.2,0.9-0.5c0.2-0.4,0.3-0.9,0.3-1.5V346z"/>
	<path class="st5" d="M403.1,376.1c0.1,0.7-0.1,1.5-0.5,2.1c-0.4,0.5-0.9,0.7-1.5,0.7s-1.2-0.2-1.5-0.7c-0.4-0.6-0.5-1.3-0.5-2v-1.1
		c-0.1-0.7,0.1-1.5,0.5-2.1c0.4-0.5,0.9-0.7,1.5-0.7s1.1,0.2,1.5,0.7c0.4,0.6,0.5,1.3,0.5,2V376.1z M402.3,375c0-0.5-0.1-1-0.3-1.5
		c-0.2-0.3-0.5-0.5-0.9-0.5s-0.7,0.2-0.9,0.5c-0.2,0.4-0.3,0.9-0.3,1.4v1.3c0,0.5,0.1,1,0.3,1.5c0.2,0.3,0.5,0.5,0.9,0.5
		s0.7-0.2,0.9-0.5c0.2-0.4,0.3-0.9,0.3-1.5V375z M404.3,378.4c0-0.1,0-0.3,0.1-0.3c0.1-0.1,0.2-0.2,0.4-0.1c0.1,0,0.3,0,0.4,0.1
		c0.1,0.1,0.1,0.2,0.1,0.3c0,0.1,0,0.2-0.1,0.3c-0.1,0.1-0.2,0.1-0.4,0.1C404.5,378.9,404.3,378.7,404.3,378.4
		C404.3,378.5,404.3,378.4,404.3,378.4z M406.9,375.7l0.3-3.2h3.3v0.7h-2.6l-0.2,1.7c0.3-0.2,0.7-0.3,1.1-0.3c0.5,0,1,0.2,1.4,0.6
		s0.5,1,0.5,1.6s-0.2,1.1-0.5,1.5c-0.4,0.4-0.9,0.6-1.5,0.6c-0.5,0-1-0.1-1.4-0.5c-0.4-0.3-0.6-0.8-0.6-1.3h0.8
		c0,0.3,0.2,0.6,0.4,0.8c0.2,0.2,0.5,0.3,0.8,0.3s0.7-0.1,0.9-0.4s0.3-0.7,0.3-1.1s-0.1-0.7-0.3-1s-0.6-0.4-0.9-0.4
		c-0.3,0-0.6,0.1-0.8,0.2l-0.2,0.2L406.9,375.7z M415.5,376.1c0.1,0.7-0.1,1.5-0.5,2.1c-0.4,0.5-0.9,0.7-1.5,0.7s-1.1-0.2-1.5-0.7
		c-0.4-0.6-0.5-1.3-0.5-2v-1.1c-0.1-0.7,0.1-1.5,0.5-2.1c0.4-0.5,0.9-0.7,1.5-0.7s1.1,0.2,1.5,0.7c0.4,0.6,0.5,1.3,0.5,2V376.1z
		 M414.7,375c0-0.5-0.1-1-0.3-1.5c-0.2-0.3-0.5-0.5-0.9-0.5s-0.7,0.2-0.9,0.5c-0.2,0.4-0.3,0.9-0.3,1.4v1.3c0,0.5,0.1,1,0.3,1.5
		c0.2,0.3,0.5,0.5,0.9,0.5s0.7-0.2,0.9-0.5c0.2-0.4,0.3-0.9,0.3-1.5V375z M420.5,376.1c0.1,0.7-0.1,1.5-0.5,2.1
		c-0.4,0.5-0.9,0.7-1.5,0.7s-1.1-0.2-1.5-0.7c-0.4-0.6-0.5-1.3-0.5-2v-1.1c-0.1-0.7,0.1-1.5,0.5-2.1c0.4-0.5,0.9-0.7,1.5-0.7
		s1.1,0.2,1.5,0.7c0.4,0.6,0.5,1.3,0.5,2V376.1z M419.7,375c0-0.5-0.1-1-0.3-1.5c-0.2-0.3-0.5-0.5-0.9-0.5s-0.7,0.2-0.9,0.5
		c-0.2,0.4-0.3,0.9-0.3,1.4v1.3c0,0.5,0.1,1,0.3,1.5c0.2,0.3,0.5,0.5,0.9,0.5s0.7-0.2,0.9-0.5c0.2-0.4,0.3-0.9,0.3-1.5V375z
		 M425.5,376.1c0.1,0.7-0.1,1.5-0.5,2.1c-0.4,0.5-0.9,0.7-1.5,0.7s-1.1-0.2-1.5-0.7c-0.4-0.6-0.5-1.3-0.5-2v-1.1
		c-0.1-0.7,0.1-1.5,0.5-2.1c0.4-0.5,0.9-0.7,1.5-0.7s1.1,0.2,1.5,0.7c0.4,0.6,0.5,1.3,0.5,2V376.1z M424.7,375c0-0.5-0.1-1-0.3-1.5
		c-0.2-0.3-0.5-0.5-0.9-0.5s-0.7,0.2-0.9,0.5c-0.2,0.4-0.3,0.9-0.3,1.4v1.3c0,0.5,0.1,1,0.3,1.5c0.2,0.3,0.5,0.5,0.9,0.5
		s0.7-0.2,0.9-0.5c0.2-0.4,0.3-0.9,0.3-1.5V375z"/>
	<path class="st5" d="M403.1,405.2c0.1,0.7-0.1,1.5-0.5,2.1c-0.4,0.5-0.9,0.7-1.5,0.7s-1.2-0.2-1.5-0.7c-0.4-0.6-0.5-1.3-0.5-2v-1.1
		c-0.1-0.7,0.1-1.5,0.5-2.1c0.4-0.5,0.9-0.7,1.5-0.7s1.1,0.2,1.5,0.7c0.4,0.6,0.5,1.3,0.5,2V405.2z M402.3,404.1
		c0-0.5-0.1-1-0.3-1.5c-0.2-0.3-0.5-0.5-0.9-0.5s-0.7,0.2-0.9,0.5c-0.2,0.4-0.3,0.9-0.3,1.4v1.3c0,0.5,0.1,1,0.3,1.5
		c0.2,0.3,0.5,0.5,0.9,0.5s0.7-0.2,0.9-0.5c0.2-0.4,0.3-0.9,0.3-1.5V404.1z M404.3,407.5c0-0.1,0-0.3,0.1-0.3
		c0.1-0.1,0.2-0.2,0.4-0.1c0.1,0,0.3,0,0.4,0.1c0.1,0.1,0.1,0.2,0.1,0.3c0,0.1,0,0.2-0.1,0.3c-0.1,0.1-0.2,0.1-0.4,0.1
		C404.5,408,404.3,407.8,404.3,407.5L404.3,407.5z M410.5,405.2c0.1,0.7-0.1,1.5-0.5,2.1c-0.4,0.5-0.9,0.7-1.5,0.7s-1.1-0.2-1.5-0.7
		c-0.4-0.6-0.5-1.3-0.5-2v-1.1c-0.1-0.7,0.1-1.5,0.5-2.1c0.4-0.5,0.9-0.7,1.5-0.7s1.1,0.2,1.5,0.7c0.4,0.6,0.5,1.3,0.5,2V405.2z
		 M409.7,404.1c0-0.5-0.1-1-0.3-1.5c-0.2-0.3-0.5-0.5-0.9-0.5s-0.7,0.2-0.9,0.5c-0.2,0.4-0.3,0.9-0.3,1.4v1.3c0,0.5,0.1,1,0.3,1.5
		c0.2,0.3,0.5,0.5,0.9,0.5s0.7-0.2,0.9-0.5c0.2-0.4,0.3-0.9,0.3-1.5V404.1z M415.5,405.2c0.1,0.7-0.1,1.5-0.5,2.1
		c-0.4,0.5-0.9,0.7-1.5,0.7s-1.1-0.2-1.5-0.7c-0.4-0.6-0.5-1.3-0.5-2v-1.1c-0.1-0.7,0.1-1.5,0.5-2.1c0.4-0.5,0.9-0.7,1.5-0.7
		s1.1,0.2,1.5,0.7c0.4,0.6,0.5,1.3,0.5,2V405.2z M414.7,404.1c0-0.5-0.1-1-0.3-1.5c-0.2-0.3-0.5-0.5-0.9-0.5s-0.7,0.2-0.9,0.5
		c-0.2,0.4-0.3,0.9-0.3,1.4v1.3c0,0.5,0.1,1,0.3,1.5c0.2,0.3,0.5,0.5,0.9,0.5s0.7-0.2,0.9-0.5c0.2-0.4,0.3-0.9,0.3-1.5V404.1z
		 M420.5,405.2c0.1,0.7-0.1,1.5-0.5,2.1c-0.4,0.5-0.9,0.7-1.5,0.7s-1.1-0.2-1.5-0.7c-0.4-0.6-0.5-1.3-0.5-2v-1.1
		c-0.1-0.7,0.1-1.5,0.5-2.1c0.4-0.5,0.9-0.7,1.5-0.7s1.1,0.2,1.5,0.7c0.4,0.6,0.5,1.3,0.5,2V405.2z M419.7,404.1
		c0-0.5-0.1-1-0.3-1.5c-0.2-0.3-0.5-0.5-0.9-0.5s-0.7,0.2-0.9,0.5c-0.2,0.4-0.3,0.9-0.3,1.4v1.3c0,0.5,0.1,1,0.3,1.5
		c0.2,0.3,0.5,0.5,0.9,0.5s0.7-0.2,0.9-0.5c0.2-0.4,0.3-0.9,0.3-1.5V404.1z M425.5,405.2c0.1,0.7-0.1,1.5-0.5,2.1
		c-0.4,0.5-0.9,0.7-1.5,0.7s-1.1-0.2-1.5-0.7c-0.4-0.6-0.5-1.3-0.5-2v-1.1c-0.1-0.7,0.1-1.5,0.5-2.1c0.4-0.5,0.9-0.7,1.5-0.7
		s1.1,0.2,1.5,0.7c0.4,0.6,0.5,1.3,0.5,2V405.2z M424.7,404.1c0-0.5-0.1-1-0.3-1.5c-0.2-0.3-0.5-0.5-0.9-0.5s-0.7,0.2-0.9,0.5
		c-0.2,0.4-0.3,0.9-0.3,1.4v1.3c0,0.5,0.1,1,0.3,1.5c0.2,0.3,0.5,0.5,0.9,0.5s0.7-0.2,0.9-0.5c0.2-0.4,0.3-0.9,0.3-1.5V404.1z"/>
</g>
<g>
	<g>
		<path class="st5" d="M196.5,445.6L196.5,445.6l-1.1,0.6l-0.2-0.6l1.4-0.7h0.7v6.3h-0.8L196.5,445.6L196.5,445.6z"/>
		<path class="st5" d="M201.4,445.6L201.4,445.6l-1.1,0.6l-0.2-0.6l1.4-0.7h0.7v6.3h-0.8L201.4,445.6L201.4,445.6z"/>
	</g>
	<g>
		<path class="st5" d="M289.8,445.6L289.8,445.6l-1.1,0.6l-0.2-0.6l1.4-0.7h0.7v6.3h-0.8V445.6z"/>
		<path class="st5" d="M292.9,451.1v-0.5l0.7-0.6c1.6-1.5,2.3-2.3,2.3-3.3c0-0.6-0.3-1.2-1.2-1.2c-0.6,0-1,0.3-1.3,0.5l-0.3-0.6
			c0.4-0.4,1-0.6,1.8-0.6c1.3,0,1.9,0.9,1.9,1.8c0,1.2-0.8,2.1-2.2,3.4l-0.5,0.5l0,0h2.8v0.7L292.9,451.1L292.9,451.1z"/>
	</g>
	<g>
		<path class="st5" d="M103.1,445.6L103.1,445.6l-1.1,0.6l-0.2-0.6l1.4-0.7h0.7v6.3h-0.8V445.6z"/>
		<path class="st5" d="M110.4,447.9c0,2.1-0.8,3.3-2.2,3.3c-1.2,0-2-1.1-2.1-3.2c0-2.1,0.9-3.3,2.2-3.3
			C109.6,444.7,110.4,445.9,110.4,447.9z M107,448c0,1.6,0.5,2.5,1.3,2.5c0.9,0,1.3-1,1.3-2.6c0-1.5-0.4-2.5-1.3-2.5
			C107.5,445.4,107,446.3,107,448z"/>
	</g>
</g>
<g>
	<path class="st1" d="M26.9,500.6h-1.6v-8c1,0,1.7-0.1,2-0.1c1-0.1,1.9,0.3,2.7,1c0.7,0.7,1,1.7,1,2.7
		C30.9,499.1,29.6,500.6,26.9,500.6z M26.4,493.6v6c0.3,0,0.6,0.1,0.9,0.1c0.7,0,1.4-0.3,1.8-0.9c0.5-0.7,0.7-1.5,0.7-2.4
		c0-1.9-0.8-2.8-2.5-2.8C27.1,493.5,26.9,493.5,26.4,493.6z M35.4,499.9c-0.5,0.5-1.2,0.8-1.9,0.8c-0.5,0-0.9-0.2-1.2-0.5
		c-0.3-0.3-0.5-0.8-0.5-1.2c0-0.6,0.3-1.2,0.8-1.5c0.6-0.4,1.3-0.6,2-0.6c0.3,0,0.5,0.1,0.7,0.1c0-0.9-0.4-1.4-1.3-1.4
		c-0.5,0-1.1,0.2-1.5,0.5l-0.4-0.9c0.2-0.2,0.5-0.3,0.8-0.4s0.7-0.2,1-0.2c0.7-0.1,1.3,0.1,1.8,0.6c0.4,0.5,0.6,1.2,0.6,1.8v2.1
		c-0.1,0.4,0.1,0.8,0.5,1v0.5c-0.3,0-0.7,0-0.9-0.2C35.6,500.4,35.5,500.2,35.4,499.9z M35.3,497.7c-0.2-0.1-0.5-0.1-0.7-0.1
		c-0.5,0-0.9,0.1-1.3,0.4c-0.3,0.2-0.5,0.6-0.5,1c0,0.6,0.4,0.9,1.1,0.9c0.6,0,1.1-0.3,1.4-0.7V497.7z M38.3,495.5h-0.7v-0.8h0.7
		v-1.2l1-0.4v1.6h1.6v0.8h-1.6v2.9c0,0.4,0.1,0.7,0.2,1c0.2,0.2,0.5,0.3,0.8,0.3s0.6-0.1,0.8-0.2l0.2,0.9c-0.5,0.1-0.9,0.2-1.4,0.2
		c-0.4,0-0.9-0.2-1.2-0.5c-0.3-0.4-0.5-0.8-0.5-1.3L38.3,495.5z M47.3,497.8h-4.2c0,0.6,0.2,1.1,0.6,1.6c0.3,0.3,0.8,0.5,1.3,0.5
		s1.1-0.2,1.5-0.5l0.4,0.7c-0.2,0.2-0.5,0.3-0.7,0.4c-0.4,0.2-0.9,0.2-1.4,0.2c-0.7,0-1.4-0.3-1.9-0.7c-0.6-0.6-0.9-1.4-0.9-2.2
		c0-0.9,0.3-1.7,0.9-2.3c0.5-0.5,1.2-0.8,1.9-0.8c0.7,0,1.4,0.2,2,0.7c0.5,0.5,0.7,1.1,0.7,1.8C47.4,497.3,47.4,497.5,47.3,497.8
		L47.3,497.8z M44.8,495.5c-0.4,0-0.8,0.1-1.2,0.4c-0.3,0.3-0.5,0.7-0.5,1.1h3.2c0-0.4-0.1-0.8-0.4-1
		C45.7,495.6,45.2,495.5,44.8,495.5z M55,495.7c-0.2-0.1-0.4-0.2-0.7-0.2c-0.4,0-0.7,0.2-1,0.5s-0.4,0.8-0.4,1.2v3.4h-1v-5.8h1v0.9
		c0.3-0.7,1-1.1,1.7-1c0.3,0,0.5,0,0.8,0.1L55,495.7z M59.5,499.9c-0.5,0.5-1.2,0.8-1.9,0.8c-0.4,0-0.9-0.2-1.2-0.5
		c-0.3-0.3-0.5-0.8-0.5-1.2c0-0.6,0.3-1.2,0.8-1.5c0.6-0.4,1.3-0.6,2-0.6c0.3,0,0.5,0.1,0.7,0.1c0-0.9-0.4-1.4-1.3-1.4
		c-0.5,0-1.1,0.2-1.5,0.5l-0.4-0.9c0.2-0.2,0.5-0.3,0.8-0.4s0.7-0.2,1-0.2c0.7-0.1,1.3,0.1,1.8,0.6c0.4,0.5,0.6,1.2,0.6,1.8v2.1
		c-0.1,0.4,0.1,0.8,0.5,1v0.5c-0.3,0-0.7,0-0.9-0.2C59.7,500.4,59.5,500.2,59.5,499.9L59.5,499.9z M59.4,497.7
		c-0.2-0.1-0.5-0.1-0.7-0.1c-0.5,0-0.9,0.1-1.3,0.4c-0.3,0.2-0.5,0.6-0.5,1c0,0.6,0.4,0.9,1.1,0.9c0.6,0,1.1-0.3,1.4-0.7V497.7z
		 M65.6,500.6v-3.4c0-0.5-0.1-0.9-0.3-1.3c-0.2-0.3-0.6-0.4-0.9-0.4s-0.5,0.1-0.7,0.2s-0.4,0.3-0.6,0.5v4.3h-1v-5.8h0.7l0.3,0.8
		c0.4-0.6,1-0.9,1.7-0.9c1.3,0,1.9,0.8,1.9,2.3v3.6h-1.1V500.6z M67.9,502.2l0.6-0.8c0.5,0.4,1.1,0.6,1.7,0.6c0.4,0,0.8-0.1,1.1-0.2
		c0.2-0.1,0.4-0.3,0.4-0.6c0-0.5-0.3-0.7-1-0.7c-0.2,0-0.4,0-0.6,0.1c-0.2,0-0.5,0.1-0.7,0.1c-0.8,0-1.2-0.3-1.2-0.9
		c0-0.2,0.1-0.4,0.3-0.5c0.2-0.2,0.5-0.3,0.7-0.3c-0.8-0.3-1.3-1.1-1.2-2c0-0.6,0.2-1.1,0.6-1.5s1-0.6,1.6-0.6
		c0.5,0,0.9,0.1,1.3,0.4l0.5-0.6l0.7,0.6l-0.6,0.5c0.3,0.4,0.4,0.9,0.4,1.4s-0.2,1.1-0.6,1.5s-0.9,0.7-1.4,0.7l-0.9,0.1
		c-0.1,0-0.3,0.1-0.4,0.1c-0.2,0.1-0.3,0.2-0.3,0.3c0,0.1,0.2,0.2,0.5,0.2c0.2,0,0.5,0,0.7-0.1c0.2,0,0.5-0.1,0.7-0.1
		c0.5,0,1,0.1,1.3,0.4s0.5,0.7,0.5,1.2s-0.3,1-0.7,1.3c-0.5,0.3-1.2,0.5-1.8,0.5c-0.4,0-0.8-0.1-1.2-0.2
		C68.6,502.6,68.2,502.4,67.9,502.2z M70.1,495.5c-0.3,0-0.7,0.1-0.9,0.4c-0.2,0.3-0.3,0.6-0.3,0.9c0,0.4,0.1,0.7,0.3,1
		c0.2,0.3,0.5,0.4,0.9,0.4c0.3,0,0.7-0.1,0.9-0.4c0.2-0.3,0.3-0.7,0.3-1s-0.1-0.7-0.3-0.9C70.8,495.6,70.5,495.5,70.1,495.5z
		 M78.7,497.8h-4.2c0,0.6,0.2,1.1,0.6,1.6c0.3,0.3,0.8,0.5,1.3,0.5s1.1-0.2,1.5-0.5l0.4,0.7c-0.2,0.2-0.5,0.3-0.7,0.4
		c-0.4,0.2-0.9,0.2-1.4,0.2c-0.7,0-1.4-0.3-1.9-0.7c-0.6-0.6-0.9-1.4-0.9-2.2c0-0.9,0.3-1.7,0.9-2.3c0.5-0.5,1.2-0.8,1.9-0.8
		c0.7,0,1.4,0.2,2,0.7c0.5,0.5,0.7,1.1,0.7,1.8C78.8,497.3,78.7,497.5,78.7,497.8L78.7,497.8z M76.2,495.5c-0.4,0-0.8,0.1-1.2,0.4
		c-0.3,0.3-0.5,0.7-0.5,1.1h3.2c0-0.4-0.1-0.8-0.4-1C77,495.6,76.6,495.5,76.2,495.5z"/>
	<path class="st1" d="M287.4,500.6v-6.1l-1.6,1v-1c0.5-0.2,0.9-0.5,1.3-0.9c0.4-0.3,0.8-0.6,1.1-1h0.3v8H287.4z M290.9,500.6v-0.2
		l2.5-3.8c0.4-0.6,0.7-1.3,0.8-2c0-0.7-0.4-1.1-1.2-1.1c-0.3,0-0.6,0.1-0.8,0.2s-0.4,0.3-0.6,0.6l-0.7-0.6c0.1-0.4,0.4-0.7,0.7-0.9
		c0.4-0.2,0.9-0.3,1.3-0.3c0.6,0,1.3,0.2,1.8,0.5c0.4,0.4,0.7,0.9,0.6,1.5c-0.1,0.8-0.4,1.6-0.9,2.3l-1.8,2.8h3.1v1H290.9z
		 M298.4,494.6c0.2,0,0.4,0.1,0.6,0.2c0.2,0.2,0.2,0.4,0.2,0.6s-0.1,0.4-0.2,0.6c-0.2,0.2-0.4,0.2-0.6,0.2c-0.2,0-0.4-0.1-0.6-0.2
		c-0.2-0.2-0.2-0.4-0.2-0.6s0.1-0.4,0.2-0.6C297.9,494.7,298.1,494.6,298.4,494.6z M298.4,499c0.2,0,0.4,0.1,0.6,0.2
		c0.2,0.2,0.2,0.4,0.2,0.6s-0.1,0.4-0.2,0.6c-0.2,0.2-0.4,0.2-0.6,0.2c-0.2,0-0.4-0.1-0.6-0.2c-0.2-0.2-0.2-0.4-0.2-0.6
		s0.1-0.4,0.2-0.6C297.9,499.1,298.1,499,298.4,499z M300.9,496.3c0-1,0.2-2,0.7-2.8c0.4-0.7,1.2-1.1,2-1.1c0.7,0,1.5,0.3,1.9,0.9
		c0.5,1,0.7,2.1,0.6,3.2c0.1,1.1-0.2,2.1-0.7,3.1c-0.4,0.7-1.1,1.1-1.9,1.1c-0.8,0-1.5-0.3-1.9-0.9
		C301,498.7,300.8,497.5,300.9,496.3z M302,496.4c0,2.2,0.5,3.3,1.4,3.3c0.5,0,1-0.3,1.2-0.7c0.3-0.8,0.4-1.7,0.4-2.6
		c0-0.6,0-1.3-0.1-1.9c-0.1-0.3-0.2-0.7-0.5-0.9c-0.2-0.2-0.5-0.3-0.8-0.3C302.5,493.4,302,494.4,302,496.4L302,496.4z M306.7,496.3
		c0-1,0.2-2,0.7-2.8c0.4-0.7,1.2-1.1,2-1.1c0.7,0,1.5,0.3,1.9,0.9c0.5,1,0.7,2.1,0.6,3.2c0.1,1.1-0.2,2.1-0.7,3.1
		c-0.4,0.7-1.1,1.1-1.9,1.1c-0.8,0-1.5-0.3-1.9-0.9C306.8,498.7,306.6,497.5,306.7,496.3L306.7,496.3z M307.8,496.4
		c0,2.2,0.5,3.3,1.4,3.3c0.5,0,1-0.3,1.2-0.7c0.3-0.8,0.4-1.7,0.4-2.6c0-0.6,0-1.3-0.1-1.9c-0.1-0.3-0.2-0.7-0.5-0.9
		c-0.2-0.2-0.5-0.3-0.8-0.3C308.3,493.4,307.8,494.4,307.8,496.4L307.8,496.4z M314.2,494.6c0.2,0,0.4,0.1,0.6,0.2
		c0.2,0.2,0.2,0.4,0.2,0.6s-0.1,0.4-0.2,0.6c-0.2,0.2-0.4,0.2-0.6,0.2c-0.2,0-0.4-0.1-0.6-0.2c-0.2-0.2-0.2-0.4-0.2-0.6
		s0.1-0.4,0.2-0.6C313.7,494.7,313.9,494.6,314.2,494.6L314.2,494.6z M314.2,499c0.2,0,0.4,0.1,0.6,0.2c0.2,0.2,0.2,0.4,0.2,0.6
		s-0.1,0.4-0.2,0.6c-0.2,0.2-0.4,0.2-0.6,0.2c-0.2,0-0.4-0.1-0.6-0.2c-0.2-0.2-0.2-0.4-0.2-0.6s0.1-0.4,0.2-0.6
		C313.7,499.1,313.9,499,314.2,499L314.2,499z M316.7,496.3c0-1,0.2-2,0.7-2.8c0.4-0.7,1.2-1.1,2-1.1c0.7,0,1.5,0.3,1.9,0.9
		c0.5,1,0.7,2.1,0.6,3.2c0.1,1.1-0.2,2.1-0.7,3.1c-0.4,0.7-1.1,1.1-1.9,1.1c-0.8,0-1.5-0.3-1.9-0.9
		C316.8,498.7,316.6,497.5,316.7,496.3L316.7,496.3z M317.8,496.4c0,2.2,0.5,3.3,1.4,3.3c0.5,0,1-0.3,1.2-0.7
		c0.3-0.8,0.4-1.7,0.4-2.6c0-0.6,0-1.3-0.1-1.9c-0.1-0.3-0.2-0.7-0.5-0.9c-0.2-0.2-0.5-0.3-0.8-0.3
		C318.3,493.4,317.8,494.4,317.8,496.4L317.8,496.4z M322.5,496.3c0-1,0.2-2,0.7-2.8c0.4-0.7,1.2-1.1,2-1.1c0.7,0,1.5,0.3,1.9,0.9
		c0.5,1,0.7,2.1,0.6,3.2c0.1,1.1-0.2,2.1-0.7,3.1c-0.4,0.7-1.1,1.1-1.9,1.1c-0.8,0-1.5-0.3-1.9-0.9
		C322.7,498.7,322.4,497.5,322.5,496.3L322.5,496.3z M323.6,496.4c0,2.2,0.5,3.3,1.4,3.3c0.5,0,1-0.3,1.2-0.7
		c0.3-0.8,0.4-1.7,0.4-2.6c0-0.6,0-1.3-0.1-1.9c-0.1-0.3-0.2-0.7-0.5-0.9c-0.2-0.2-0.5-0.3-0.8-0.3
		C324.1,493.4,323.6,494.4,323.6,496.4L323.6,496.4z M334.8,492.5v0.5c-0.8,1.4-1.2,3-1.1,4.6c0,2.4,0.4,4,1.1,4.8v0.6
		c-0.8-0.6-1.4-1.3-1.7-2.2c-0.4-1-0.6-2.1-0.6-3.2c0-1,0.2-2.1,0.7-3C333.5,493.7,334,493,334.8,492.5L334.8,492.5z M336.3,492.6
		h1.1v5.5c0,0.4,0.2,0.9,0.5,1.2c0.3,0.3,0.8,0.5,1.2,0.5c0.5,0,0.9-0.1,1.3-0.5c0.3-0.3,0.5-0.8,0.5-1.2v-5.4h1.1v5.6
		c0,0.7-0.2,1.4-0.8,1.9s-1.3,0.7-2.1,0.7c-0.7,0-1.5-0.2-2.1-0.7c-0.5-0.5-0.8-1.2-0.7-1.9V492.6z M346.5,493.6v7h-1.1v-7h-2.5v-1
		h6.3v1H346.5z M355.2,492.9l-0.4,0.9c-0.5-0.3-1.1-0.4-1.7-0.4c-0.7,0-1.3,0.3-1.7,0.9c-0.4,0.7-0.7,1.5-0.6,2.3
		c0,0.8,0.2,1.6,0.7,2.2c0.4,0.5,1,0.9,1.7,0.8c0.7,0,1.3-0.3,1.7-0.8l0.6,0.8c-0.7,0.6-1.5,1-2.4,0.9c-1,0-1.9-0.4-2.5-1.1
		c-0.6-0.9-1-1.9-0.9-3c0-1.1,0.3-2.1,1-3c0.6-0.8,1.5-1.2,2.5-1.2C353.8,492.4,354.5,492.6,355.2,492.9L355.2,492.9z M357,502.9
		v-0.6c0.7-0.8,1.1-2.4,1.1-4.8c0.1-1.6-0.3-3.2-1.1-4.6v-0.4c0.7,0.5,1.3,1.2,1.6,2c0.4,0.9,0.7,2,0.7,3c0,1.1-0.2,2.2-0.6,3.2
		C358.3,501.6,357.7,502.3,357,502.9z"/>
	<path class="st1" d="M398.3,498.9v-6.6h1v6.4c0,0.3,0.1,0.5,0.3,0.7s0.4,0.3,0.7,0.3v0.9C399,500.7,398.3,500.1,398.3,498.9z
		 M401.1,497.6c0-0.8,0.2-1.6,0.7-2.2s1.2-0.9,1.9-0.8c0.7,0,1.5,0.3,1.9,0.8c0.5,0.6,0.7,1.4,0.7,2.2c0,0.8-0.2,1.6-0.7,2.2
		s-1.2,0.9-1.9,0.8c-0.7,0-1.5-0.3-1.9-0.8C401.4,499.2,401.1,498.4,401.1,497.6z M402.2,497.6c0,1.5,0.5,2.2,1.6,2.2
		c0.5,0,0.9-0.2,1.1-0.6c0.3-0.5,0.4-1,0.4-1.6c0-1.4-0.5-2.2-1.5-2.2c-0.5,0-0.9,0.2-1.1,0.6C402.4,496.5,402.2,497.1,402.2,497.6
		L402.2,497.6z M407.3,502.2l0.6-0.8c0.5,0.4,1.1,0.6,1.7,0.6c0.4,0,0.8-0.1,1.1-0.2c0.2-0.1,0.4-0.3,0.4-0.6c0-0.5-0.3-0.7-1-0.7
		c-0.2,0-0.4,0-0.6,0.1c-0.2,0-0.5,0.1-0.7,0.1c-0.8,0-1.2-0.3-1.2-0.9c0-0.2,0.1-0.4,0.3-0.5c0.2-0.2,0.5-0.3,0.7-0.3
		c-0.8-0.3-1.3-1.1-1.2-2c0-0.6,0.2-1.1,0.6-1.5c0.4-0.4,1-0.6,1.6-0.6c0.5,0,0.9,0.1,1.3,0.4l0.5-0.6l0.7,0.6l-0.6,0.5
		c0.3,0.4,0.4,0.9,0.4,1.4s-0.2,1.1-0.6,1.5c-0.4,0.4-0.9,0.7-1.4,0.7l-0.9,0.1c-0.1,0-0.3,0.1-0.4,0.1c-0.2,0.1-0.3,0.2-0.3,0.3
		c0,0.1,0.2,0.2,0.5,0.2c0.2,0,0.5,0,0.7-0.1c0.2,0,0.5-0.1,0.7-0.1c0.5,0,1,0.1,1.3,0.4s0.5,0.7,0.5,1.2s-0.3,1-0.7,1.3
		c-0.5,0.3-1.2,0.5-1.8,0.5c-0.4,0-0.8-0.1-1.2-0.2C408,502.6,407.6,502.4,407.3,502.2z M409.5,495.5c-0.3,0-0.7,0.1-0.9,0.4
		s-0.3,0.6-0.3,0.9c0,0.4,0.1,0.7,0.3,1s0.5,0.4,0.9,0.4c0.3,0,0.7-0.1,0.9-0.4s0.3-0.7,0.3-1s-0.1-0.7-0.3-0.9
		C410.1,495.6,409.8,495.5,409.5,495.5z"/>
	<path class="st1" d="M426.1,499.9c-0.5,0.5-1.2,0.8-1.9,0.8c-0.5,0-0.9-0.2-1.2-0.5s-0.5-0.8-0.5-1.2c0-0.6,0.3-1.2,0.8-1.5
		c0.6-0.4,1.3-0.6,2-0.6c0.3,0,0.5,0.1,0.7,0.1c0-0.9-0.4-1.4-1.3-1.4c-0.5,0-1.1,0.2-1.5,0.5l-0.4-0.9c0.2-0.2,0.5-0.3,0.8-0.4
		s0.7-0.2,1-0.2c0.7-0.1,1.3,0.1,1.8,0.6c0.4,0.5,0.6,1.2,0.6,1.8v2.1c-0.1,0.4,0.1,0.8,0.5,1v0.5c-0.3,0-0.7,0-0.9-0.2
		C426.3,500.4,426.2,500.2,426.1,499.9z M426,497.7c-0.2-0.1-0.5-0.1-0.7-0.1c-0.5,0-0.9,0.1-1.3,0.4c-0.3,0.2-0.5,0.6-0.5,1
		c0,0.6,0.4,0.9,1.1,0.9c0.6,0,1.1-0.3,1.4-0.7V497.7z M429.7,494.7v3.7c0,0.9,0.4,1.4,1.2,1.4c0.3,0,0.7-0.1,0.9-0.3
		c0.3-0.2,0.4-0.4,0.6-0.7v-4.1h1v5.8h-1v-0.8c-0.2,0.3-0.4,0.5-0.7,0.6c-0.3,0.2-0.7,0.3-1,0.3c-0.5,0-1.1-0.2-1.5-0.6
		s-0.5-1-0.5-1.6v-3.8L429.7,494.7L429.7,494.7z M435.1,495.6h-0.7v-0.8h0.7v-1.2l1-0.4v1.6h1.6v0.8h-1.6v2.9c0,0.4,0.1,0.7,0.2,1
		c0.2,0.2,0.5,0.3,0.8,0.3s0.6-0.1,0.8-0.2l0.2,0.9c-0.5,0.1-0.9,0.2-1.4,0.2c-0.4,0-0.9-0.2-1.2-0.5c-0.3-0.4-0.5-0.8-0.5-1.3
		L435.1,495.6z M438.8,497.6c0-0.8,0.2-1.6,0.7-2.2s1.2-0.9,1.9-0.8c0.7,0,1.5,0.3,1.9,0.8c0.5,0.6,0.7,1.4,0.7,2.2
		c0,0.8-0.2,1.6-0.7,2.2s-1.2,0.9-1.9,0.8c-0.7,0-1.5-0.3-1.9-0.8C439,499.2,438.8,498.4,438.8,497.6z M439.9,497.6
		c0,1.5,0.5,2.2,1.6,2.2c0.5,0,0.9-0.2,1.1-0.6c0.3-0.5,0.4-1,0.4-1.6c0-1.4-0.5-2.2-1.5-2.2c-0.5,0-0.9,0.2-1.1,0.6
		C440,496.5,439.9,497.1,439.9,497.6z"/>
	<path class="st1" d="M378.1,495.1c0-0.5,0.2-1,0.5-1.4c0.4-0.4,0.9-0.6,1.4-0.6s1,0.2,1.4,0.6s0.6,0.9,0.5,1.5v0.5
		c0,0.5-0.2,1-0.5,1.4c-0.4,0.4-0.9,0.6-1.4,0.5c-0.5,0-1-0.2-1.4-0.5c-0.4-0.4-0.6-0.9-0.6-1.5L378.1,495.1z M379,495.6
		c0,0.3,0.1,0.6,0.3,0.8c0.2,0.2,0.5,0.3,0.8,0.3s0.6-0.1,0.7-0.3c0.2-0.2,0.3-0.6,0.3-0.9V495c0-0.3-0.1-0.6-0.3-0.8
		c-0.2-0.2-0.5-0.3-0.8-0.3s-0.6,0.1-0.8,0.3c-0.2,0.2-0.3,0.6-0.3,0.9L379,495.6L379,495.6z M382.7,500.5c0-0.5,0.2-1,0.5-1.4
		c0.4-0.4,0.9-0.6,1.4-0.6s1,0.2,1.4,0.5c0.4,0.4,0.6,0.9,0.5,1.5v0.5c0,0.5-0.2,1-0.5,1.4c-0.4,0.4-0.9,0.6-1.4,0.6s-1-0.2-1.4-0.5
		c-0.4-0.4-0.6-0.9-0.6-1.5L382.7,500.5z M383.6,501c0,0.3,0.1,0.6,0.3,0.8c0.2,0.2,0.5,0.3,0.8,0.3s0.6-0.1,0.8-0.3
		c0.2-0.2,0.3-0.6,0.3-0.9v-0.5c0-0.3-0.1-0.6-0.3-0.8c-0.2-0.2-0.5-0.3-0.8-0.3s-0.6,0.1-0.8,0.3c-0.2,0.2-0.3,0.6-0.3,0.9V501z
		 M380.3,502.1l-0.7-0.4l4.7-7.4l0.7,0.4L380.3,502.1z"/>
	<line class="st6" x1="372.4" y1="487.7" x2="372.4" y2="508.9"/>
	<path class="st1" d="M86.3,494.9c-0.1-0.1-0.3-0.1-0.4,0l0,0c-0.1,0-0.1,0.1-0.1,0.2s0,0.2,0.1,0.2l5.2,5.2c0.1,0.1,0.3,0.1,0.5,0
		l5.1-5.2c0.1-0.1,0.1-0.3,0-0.5c-0.1-0.1-0.3-0.1-0.4,0l-5.1,5.1L86.3,494.9z"/>
</g>
<polygon class="st7" points="370.7,119.8 370.7,108 369.5,108 369.5,119.8 365.1,119.8 365.1,150 374,150 374,119.8 "/>
<g transform="translate(2342.297 842.5) rotate(90)">
	<line class="st8" x1="-734.5" y1="1956.5" x2="-734.5" y2="2329.5"/>
	
		<rect x="-764.1" y="1920.9" transform="matrix(2.535182e-06 1 -1 2.535182e-06 1191.838 2660.8237)" class="st7" width="59.2" height="10.8"/>
</g>
</svg>

