<?xml version="1.0" encoding="utf-8"?>
<!-- Generator: Adobe Illustrator 24.1.2, SVG Export Plug-In . SVG Version: 6.00 Build 0)  -->
<svg version="1.1" xmlns="http://www.w3.org/2000/svg" xmlns:xlink="http://www.w3.org/1999/xlink" x="0px" y="0px"
	 viewBox="0 0 260 260" style="enable-background:new 0 0 260 260;" xml:space="preserve">
<style type="text/css">
	.st0{fill:url(#SVGID_1_);}
	.st1{fill:#F70000;}
	.st2{fill:url(#XMLID_2_);}
</style>
<linearGradient id="SVGID_1_" gradientUnits="userSpaceOnUse" x1="194.2197" y1="118.7464" x2="81.8857" y2="45.0969">
	<stop  offset="0" style="stop-color:#31363E"/>
	<stop  offset="1" style="stop-color:#494E56"/>
</linearGradient>
<path class="st0" d="M183.4,76.8c-3.9-14.3-13.2-26.1-26.1-33.5c-12.9-7.3-27.9-9.2-42.1-5.2C100.9,42.1,89,51.4,81.7,64.3
	c-7.3,12.9-9.2,27.9-5.2,42.1l0.4,1.6H47.4c-4-19.8-0.7-40.1,9.3-57.8c11.1-19.6,29.1-33.6,50.7-39.6c21.6-6,44.3-3.2,63.9,7.9
	C190.9,29.6,205,47.6,211,69.2L183.4,76.8z"/>
<path class="st1" d="M174.9,19.6C155.5,8.8,133,6.1,111.6,12C90,18,72,32,60.9,51.6c-9.7,17-12.6,37.4-9.3,56.4h-4.1
	c-4-19.8-0.7-41.1,9.3-58.8c11.1-19.6,29.1-33.6,50.7-39.6c21.6-6,44.3-3.2,63.9,7.9C172.6,18.2,173.8,18.9,174.9,19.6z M159.3,44.6
	C158.9,44.4,159.6,44.7,159.3,44.6c11.3,7.4,20.5,19.2,24.1,32.3l3.3-0.9C182.4,63.1,171.2,51.3,159.3,44.6z"/>
<linearGradient id="XMLID_2_" gradientUnits="userSpaceOnUse" x1="8.8354" y1="184.7542" x2="251.1654" y2="184.7542">
	<stop  offset="0" style="stop-color:#31363E"/>
	<stop  offset="1" style="stop-color:#494E56"/>
</linearGradient>
<path id="XMLID_55_" class="st2" d="M251.2,128.8v111.9c0,9.3-7.5,16.8-16.8,16.8H25.6c-9.3,0-16.8-7.5-16.8-16.8V128.8
	c0-9.3,7.5-16.8,16.8-16.8h208.7C243.6,112,251.2,119.5,251.2,128.8z"/>
<path class="st1" d="M250,122.6c-1.7-0.6-3.5-0.9-5.4-0.9H35.9c-9.3,0-16.8,7.5-16.8,16.8v111.9c0,2.2,0.4,4.3,1.2,6.2
	c-6.6-2.2-11.4-8.5-11.4-15.9V128.8c0-9.3,7.5-16.8,16.8-16.8h208.7C241.4,112,247.5,116.4,250,122.6z"/>
<path class="st1" d="M166.6,181.1c-1.4-4.3-6.1-6.7-10.4-5.3l-11.9,3.9v-12.5c0-4.6-3.7-8.3-8.3-8.3c-4.6,0-8.3,3.7-8.3,8.3v12.5
	l-11.9-3.9c-4.3-1.4-9,1-10.4,5.3c-1.4,4.3,1,9,5.3,10.4l11.9,3.9l-7.4,10.2c-2.7,3.7-1.9,8.9,1.9,11.6c1.4,1,3.1,1.6,4.9,1.6
	c0.4,0,0.9,0,1.3-0.1c2.2-0.3,4.1-1.5,5.4-3.3l7.4-10.1l7.4,10.1c1.3,1.8,3.2,3,5.4,3.3c2.2,0.3,4.4-0.2,6.2-1.5
	c3.7-2.7,4.5-7.9,1.8-11.5l-7.4-10.2l11.9-3.9C165.6,190.1,168,185.4,166.6,181.1z"/>
<path class="st1" d="M241.6,181.1c-1.4-4.3-6.1-6.7-10.4-5.3l-11.9,3.9v-12.5c0-4.6-3.7-8.3-8.3-8.3c-4.6,0-8.3,3.7-8.3,8.3v12.5
	l-11.9-3.9c-4.3-1.4-9,1-10.4,5.3c-1.4,4.3,1,9,5.3,10.4l11.9,3.9l-7.4,10.2c-2.7,3.7-1.9,8.9,1.9,11.6c1.4,1,3.1,1.6,4.9,1.6
	c0.4,0,0.9,0,1.3-0.1c2.2-0.3,4.1-1.5,5.4-3.3l7.4-10.1l7.4,10.1c1.3,1.8,3.2,3,5.4,3.3c2.2,0.3,4.4-0.2,6.2-1.5
	c3.7-2.7,4.5-7.9,1.8-11.5l-7.4-10.2l11.9-3.9C240.6,190.1,243,185.4,241.6,181.1z"/>
<path class="st1" d="M91.5,181.1c-1.4-4.3-6.1-6.7-10.4-5.3l-11.9,3.9v-12.5c0-4.6-3.7-8.3-8.3-8.3c-4.6,0-8.3,3.7-8.3,8.3v12.5
	l-11.9-3.9c-4.3-1.4-9,1-10.4,5.3c-1.4,4.3,1,9,5.3,10.4l11.9,3.9l-7.4,10.2c-2.7,3.7-1.9,8.9,1.9,11.6c1.4,1,3.1,1.6,4.9,1.6
	c0.4,0,0.9,0,1.3-0.1c2.2-0.3,4.1-1.5,5.4-3.3l7.4-10.1l7.4,10.1c1.3,1.8,3.2,3,5.4,3.3c2.2,0.3,4.4-0.2,6.2-1.5
	c3.7-2.7,4.5-7.9,1.8-11.5l-7.4-10.2l11.9-3.9C90.6,190.1,92.9,185.4,91.5,181.1z"/>
</svg>

