<?xml version="1.0" encoding="utf-8"?>
<!-- Generator: Adobe Illustrator 24.1.2, SVG Export Plug-In . SVG Version: 6.00 Build 0)  -->
<svg version="1.1" xmlns="http://www.w3.org/2000/svg" xmlns:xlink="http://www.w3.org/1999/xlink" x="0px" y="0px"
	 viewBox="0 0 260 260" style="enable-background:new 0 0 260 260;" xml:space="preserve">
<style type="text/css">
	.st0{fill:url(#XMLID_2_);}
	.st1{fill:#11CF4A;}
	.st2{fill:url(#SVGID_1_);}
</style>
<linearGradient id="XMLID_2_" gradientUnits="userSpaceOnUse" x1="8.8354" y1="184.7542" x2="251.1654" y2="184.7542">
	<stop  offset="0" style="stop-color:#31363E"/>
	<stop  offset="1" style="stop-color:#494E56"/>
</linearGradient>
<path id="XMLID_55_" class="st0" d="M251.2,128.8v111.9c0,9.3-7.5,16.8-16.8,16.8H25.6c-9.3,0-16.8-7.5-16.8-16.8V128.8
	c0-9.3,7.5-16.8,16.8-16.8h208.7C243.6,112,251.2,119.5,251.2,128.8z"/>
<path class="st1" d="M250,122.6c-1.7-0.6-3.5-0.9-5.4-0.9H35.9c-9.3,0-16.8,7.5-16.8,16.8v111.9c0,2.2,0.4,4.3,1.2,6.2
	c-6.6-2.2-11.4-8.5-11.4-15.9V128.8c0-9.3,7.5-16.8,16.8-16.8h208.7C241.4,112,247.5,116.4,250,122.6z"/>
<path class="st1" d="M166.6,181.1c-1.4-4.3-6.1-6.7-10.4-5.3l-11.9,3.9v-12.5c0-4.6-3.7-8.3-8.3-8.3c-4.6,0-8.3,3.7-8.3,8.3v12.5
	l-11.9-3.9c-4.3-1.4-9,1-10.4,5.3c-1.4,4.3,1,9,5.3,10.4l11.9,3.9l-7.4,10.2c-2.7,3.7-1.9,8.9,1.9,11.6c1.4,1,3.1,1.6,4.9,1.6
	c0.4,0,0.9,0,1.3-0.1c2.2-0.3,4.1-1.5,5.4-3.3l7.4-10.1l7.4,10.1c1.3,1.8,3.2,3,5.4,3.3c2.2,0.3,4.4-0.2,6.2-1.5
	c3.7-2.7,4.5-7.9,1.8-11.5l-7.4-10.2l11.9-3.9C165.6,190.1,168,185.4,166.6,181.1z"/>
<path class="st1" d="M241.6,181.1c-1.4-4.3-6.1-6.7-10.4-5.3l-11.9,3.9v-12.5c0-4.6-3.7-8.3-8.3-8.3c-4.6,0-8.3,3.7-8.3,8.3v12.5
	l-11.9-3.9c-4.3-1.4-9,1-10.4,5.3c-1.4,4.3,1,9,5.3,10.4l11.9,3.9l-7.4,10.2c-2.7,3.7-1.9,8.9,1.9,11.6c1.4,1,3.1,1.6,4.9,1.6
	c0.4,0,0.9,0,1.3-0.1c2.2-0.3,4.1-1.5,5.4-3.3l7.4-10.1l7.4,10.1c1.3,1.8,3.2,3,5.4,3.3c2.2,0.3,4.4-0.2,6.2-1.5
	c3.7-2.7,4.5-7.9,1.8-11.5l-7.4-10.2l11.9-3.9C240.6,190.1,243,185.4,241.6,181.1z"/>
<path class="st1" d="M91.5,181.1c-1.4-4.3-6.1-6.7-10.4-5.3l-11.9,3.9v-12.5c0-4.6-3.7-8.3-8.3-8.3c-4.6,0-8.3,3.7-8.3,8.3v12.5
	l-11.9-3.9c-4.3-1.4-9,1-10.4,5.3c-1.4,4.3,1,9,5.3,10.4l11.9,3.9l-7.4,10.2c-2.7,3.7-1.9,8.9,1.9,11.6c1.4,1,3.1,1.6,4.9,1.6
	c0.4,0,0.9,0,1.3-0.1c2.2-0.3,4.1-1.5,5.4-3.3l7.4-10.1l7.4,10.1c1.3,1.8,3.2,3,5.4,3.3c2.2,0.3,4.4-0.2,6.2-1.5
	c3.7-2.7,4.5-7.9,1.8-11.5l-7.4-10.2l11.9-3.9C90.6,190.1,92.9,185.4,91.5,181.1z"/>
<linearGradient id="SVGID_1_" gradientUnits="userSpaceOnUse" x1="217.1922" y1="121.7844" x2="76.256" y2="45.6993">
	<stop  offset="0" style="stop-color:#31363E"/>
	<stop  offset="1" style="stop-color:#494E56"/>
</linearGradient>
<path class="st2" d="M215.9,107.4h-31V93.7c0-30.3-24.6-54.9-54.9-54.9c-30.3,0-54.9,24.6-54.9,54.9V107h-31V93.7
	c0-47.4,38.6-85.9,85.9-85.9c47.4,0,85.9,38.6,85.9,85.9V107.4z"/>
<path class="st1" d="M179.9,23.8c-13.2-8.2-28.7-12.9-45.3-12.9c-47.4,0-85.9,38.6-85.9,85.9v10.2h-4.6V93.7
	c0-47.4,38.6-85.9,86-85.9C148.6,7.8,165.8,13.7,179.9,23.8z M162.7,49.6c13.5,10,22.2,26.1,22.2,44.1v13.7h4.6V96.8
	C189.5,76.8,178.8,59.2,162.7,49.6z"/>
</svg>

