<?xml version="1.0" standalone="no"?>
<!DOCTYPE svg PUBLIC "-//W3C//DTD SVG 20010904//EN"
 "http://www.w3.org/TR/2001/REC-SVG-20010904/DTD/svg10.dtd">
<svg version="1.0" xmlns="http://www.w3.org/2000/svg"
 width="512.000000pt" height="512.000000pt" viewBox="0 0 512.000000 512.000000"
 preserveAspectRatio="xMidYMid meet">
<metadata>
Created by potrace 1.14, written by Peter Selinger 2001-2017
</metadata>
<g transform="translate(0.000000,512.000000) scale(0.100000,-0.100000)"
fill="#000000" stroke="none">
<path d="M2480 4997 c-141 -82 -255 -149 -460 -267 -107 -62 -267 -154 -355
-205 -88 -51 -179 -103 -201 -116 -39 -23 -370 -214 -436 -252 -43 -25 -286
-166 -323 -187 -122 -69 -282 -163 -290 -170 -10 -9 -15 -624 -5 -633 3 -2 52
-31 110 -63 57 -32 132 -75 165 -94 34 -19 105 -60 158 -90 53 -30 97 -58 97
-62 0 -5 -194 -118 -204 -118 -2 0 -42 -22 -90 -50 -48 -27 -91 -50 -96 -50
-6 0 -10 -4 -10 -10 0 -5 -4 -10 -9 -10 -5 0 -35 -15 -67 -33 l-59 -33 0 -623
0 -624 35 -22 c19 -12 143 -84 275 -160 132 -76 278 -161 325 -188 47 -27 99
-58 115 -67 17 -9 102 -59 190 -110 88 -51 176 -101 195 -112 19 -11 256 -148
526 -304 270 -156 496 -284 502 -284 7 0 254 140 549 311 536 310 1011 584
1258 727 72 41 147 85 167 98 21 13 40 24 43 24 2 0 28 15 57 33 29 19 61 36
71 40 16 6 17 75 17 1255 l0 1250 -137 79 c-76 44 -198 115 -271 157 -90 52
-137 74 -145 68 -7 -5 -41 -25 -77 -45 -36 -19 -150 -85 -255 -145 -152 -87
-191 -105 -196 -93 -3 9 -5 147 -4 306 1 325 8 292 -75 341 -33 19 -271 157
-335 194 -16 10 -70 41 -120 70 -49 29 -108 62 -130 75 -22 12 -118 68 -213
123 -95 56 -180 105 -190 110 -12 7 -40 -4 -102 -41z m70 -900 l0 -282 -227
-130 c-125 -72 -235 -134 -244 -140 -80 -47 -50 -56 -318 98 -195 112 -240
142 -229 152 10 10 319 189 411 239 12 6 41 24 64 39 24 15 45 27 47 27 2 0
44 23 93 51 48 29 106 62 128 74 22 13 92 53 154 89 63 36 116 66 118 66 2 0
3 -127 3 -283z m295 142 l243 -142 0 -278 c-1 -198 -4 -279 -12 -279 -6 1
-117 63 -246 138 l-235 137 0 283 c0 155 1 282 3 282 2 0 113 -64 247 -141z
m780 -143 l0 -283 -190 -109 c-104 -60 -215 -124 -247 -142 l-57 -33 1 284 1
284 241 141 c132 77 243 141 246 141 3 1 5 -127 5 -283z m-916 -384 c75 -44
176 -102 224 -130 49 -29 90 -52 92 -52 2 0 20 -11 40 -24 l35 -24 -142 -83
c-79 -45 -199 -115 -267 -154 l-123 -73 -170 100 c-218 128 -264 154 -315 180
-24 12 -43 25 -43 28 0 4 21 19 48 34 26 15 61 35 77 45 17 10 86 51 155 91
69 40 150 88 180 106 30 18 59 33 64 33 5 1 70 -34 145 -77z m1454 -1457 c0
-322 -2 -587 -4 -590 -4 -3 -181 96 -416 233 l-71 42 0 314 -1 315 242 140
c133 77 243 138 246 135 2 -2 4 -267 4 -589z m-2950 427 c120 -68 215 -128
210 -132 -7 -7 -85 -53 -363 -213 -19 -11 -53 -31 -75 -43 l-41 -23 -94 55
c-52 31 -115 67 -140 81 -93 52 -250 145 -250 148 0 3 146 86 165 94 6 2 60
32 120 66 197 112 206 115 229 103 12 -6 119 -67 239 -136z m422 -212 c17 -10
152 -88 300 -174 149 -87 352 -205 452 -263 l183 -105 127 75 c71 41 144 83
163 94 19 11 202 117 405 236 204 118 372 213 374 211 7 -6 4 -601 -3 -612 -3
-6 -30 -24 -59 -40 -28 -16 -106 -60 -172 -99 -66 -38 -223 -130 -350 -203
-126 -73 -247 -143 -267 -156 -21 -13 -39 -24 -41 -24 -2 0 -42 -22 -88 -50
-46 -27 -87 -50 -91 -50 -3 0 -42 21 -85 46 -43 26 -93 55 -111 66 -34 19
-136 78 -512 296 -118 68 -249 144 -291 169 l-77 44 0 310 -1 310 57 -32 c31
-18 71 -40 87 -49z m-170 -245 l0 -285 -235 -136 c-129 -75 -240 -138 -247
-141 -9 -4 -11 62 -10 278 l2 283 50 29 c28 17 138 81 245 143 107 63 195 114
195 114 0 0 0 -128 0 -285z m364 -517 c174 -99 333 -191 353 -202 20 -12 111
-64 202 -116 l166 -95 0 -288 0 -288 -22 12 c-13 7 -129 74 -258 149 -285 166
-548 319 -575 334 -125 69 -685 400 -685 405 0 3 57 39 128 79 70 40 177 102
237 137 61 36 116 62 124 60 8 -3 156 -87 330 -187z m2051 57 c128 -74 236
-135 241 -135 20 0 6 -16 -34 -40 -23 -14 -114 -68 -202 -119 -88 -51 -167
-96 -175 -101 -8 -5 -67 -39 -130 -75 -63 -36 -122 -70 -130 -75 -8 -5 -37
-22 -65 -38 -27 -16 -149 -86 -270 -157 -121 -70 -278 -162 -350 -203 -71 -41
-140 -82 -152 -90 -27 -17 -24 -46 -24 253 0 102 0 214 1 249 l0 63 333 191
c182 105 418 240 522 301 105 60 193 110 197 110 3 1 111 -60 238 -134z"/>
</g>
</svg>
