 
<svg version="1.1" xmlns="http://www.w3.org/2000/svg" xmlns:xlink="http://www.w3.org/1999/xlink" x="0px" y="0px"
	 viewBox="0 0 175 110" style="enable-background:new 0 0 175 110;" xml:space="preserve">
 
<path fill="#fff" d="M31.6,90.2l-4.5-5.6v0l-2.8,2.5l0.6,8.4l1.5-1.2l0.8,6.8h2.7l0.9-6.6l-1.2-2.4L31.6,90.2z M32.2,17.3
	c-3.9,0-7.1,3.2-7.1,7.1c0,3.9,3.2,7.1,7.1,7.1c3.9,0,7.1-3.2,7.1-7.1C39.3,20.5,36.1,17.3,32.2,17.3z M44.5,85.7L41.2,83l-4.6,4.3
	h0l-2.9,2.8l2.2,2L34,94.5l0,6.6h2.8c0.8-2.6,1.5-5.1,2.1-7.1c0.1-0.3,2,1.4,2.1,1C41.2,94.5,44,87.4,44.5,85.7L44.5,85.7z
	 M9.8,13.5v9.9h14.3c0.5-4.1,3.9-7.3,8.1-7.3s7.7,3.2,8.1,7.3h14.3v-9.9H9.8z M40.3,24.5c-0.1,4.4-3.7,8-8.2,8s-8.1-3.6-8.2-8H9.8
	v10.7h44.8V24.5H40.3z M9.2,45.9v55.2h1.3c0.3-2.7,0.5-4.6,0.7-5.3c0.7-2.4,8.1-6.3,11.5-8.1l4.8-4.3c-0.4-2.1-1.1-3.9-1.2-4.3
	c0,0-1.1-0.8-1.5-1.9c-0.2-0.7-0.7-2-0.7-2s-0.3,0-0.6-0.5c-0.3-0.5-1.9-4.6-1.2-5.3c0.2-0.2,0.5-0.3,0.7-0.4c-0.3,0-0.7-0.6-1-3.7
	c-0.1-1.3-0.1-5.6,1.3-7.6c0.9-1.3,2.2-2.6,3.1-2.6c0.9,0,2.1-0.2,2.1-0.2c0.5-0.5,1.1-1.4,2.8-1.4s5.1,0.8,7.7,1.8
	c2.6,1,4.1,2.1,4.7,3.9c0.6,1.8,1.4,7.5,0.9,8.3c-0.6,1-0.5,1-0.6,1.2c0,0,0.8,0.9,0.4,2.1c-0.4,1.2-1.5,4.7-2.5,4.4
	c-0.3,0.9-0.9,3.3-0.8,6.1c0,0,0.1,0.7,0.2,1c0.8,0.5,2.8,2.2,4,3.2c2.7,0.8,13,3.9,15.1,6.6c0.9,1.2,1.7,4.5,2.3,8.9h1.6V45.9H9.2z
	 M9.2,45.9v55.2h1.3c0.3-2.7,0.5-4.6,0.7-5.3c0.7-2.4,8.1-6.3,11.5-8.1l4.8-4.3c-0.4-2.1-1.1-3.9-1.2-4.3c0,0-1.1-0.8-1.5-1.9
	c-0.2-0.7-0.7-2-0.7-2s-0.3,0-0.6-0.5c-0.3-0.5-1.9-4.6-1.2-5.3c0.2-0.2,0.5-0.3,0.7-0.4c-0.3,0-0.7-0.6-1-3.7
	c-0.1-1.3-0.1-5.6,1.3-7.6c0.9-1.3,2.2-2.6,3.1-2.6c0.9,0,2.1-0.2,2.1-0.2c0.5-0.5,1.1-1.4,2.8-1.4s5.1,0.8,7.7,1.8
	c2.6,1,4.1,2.1,4.7,3.9c0.6,1.8,1.4,7.5,0.9,8.3c-0.6,1-0.5,1-0.6,1.2c0,0,0.8,0.9,0.4,2.1c-0.4,1.2-1.5,4.7-2.5,4.4
	c-0.3,0.9-0.9,3.3-0.8,6.1c0,0,0.1,0.7,0.2,1c0.8,0.5,2.8,2.2,4,3.2c2.7,0.8,13,3.9,15.1,6.6c0.9,1.2,1.7,4.5,2.3,8.9h1.6V45.9H9.2z
	 M44.5,85.7L41.2,83l-4.6,4.3h0l-2.9,2.8l2.2,2L34,94.5l0,6.6h2.8c0.8-2.6,1.5-5.1,2.1-7.1c0.1-0.3,2,1.4,2.1,1
	C41.2,94.5,44,87.4,44.5,85.7L44.5,85.7z M31.6,90.2l-4.5-5.6v0l-2.8,2.5l0.6,8.4l1.5-1.2l0.8,6.8h2.7l0.9-6.6l-1.2-2.4L31.6,90.2z
	 M40.3,24.5c-0.1,4.4-3.7,8-8.2,8s-8.1-3.6-8.2-8H9.8v10.7h44.8V24.5H40.3z M9.8,13.5v9.9h14.3c0.5-4.1,3.9-7.3,8.1-7.3
	s7.7,3.2,8.1,7.3h14.3v-9.9H9.8z M32.2,17.3c-3.9,0-7.1,3.2-7.1,7.1c0,3.9,3.2,7.1,7.1,7.1c3.9,0,7.1-3.2,7.1-7.1
	C39.3,20.5,36.1,17.3,32.2,17.3z M31.6,90.2l-4.5-5.6v0l-2.8,2.5l0.6,8.4l1.5-1.2l0.8,6.8h2.7l0.9-6.6l-1.2-2.4L31.6,90.2z
	 M32.2,17.3c-3.9,0-7.1,3.2-7.1,7.1c0,3.9,3.2,7.1,7.1,7.1c3.9,0,7.1-3.2,7.1-7.1C39.3,20.5,36.1,17.3,32.2,17.3z M44.5,85.7
	L41.2,83l-4.6,4.3h0l-2.9,2.8l2.2,2L34,94.5l0,6.6h2.8c0.8-2.6,1.5-5.1,2.1-7.1c0.1-0.3,2,1.4,2.1,1C41.2,94.5,44,87.4,44.5,85.7
	L44.5,85.7z M9.8,13.5v9.9h14.3c0.5-4.1,3.9-7.3,8.1-7.3s7.7,3.2,8.1,7.3h14.3v-9.9H9.8z M40.3,24.5c-0.1,4.4-3.7,8-8.2,8
	s-8.1-3.6-8.2-8H9.8v10.7h44.8V24.5H40.3z M9.2,45.9v55.2h1.3c0.3-2.7,0.5-4.6,0.7-5.3c0.7-2.4,8.1-6.3,11.5-8.1l4.8-4.3
	c-0.4-2.1-1.1-3.9-1.2-4.3c0,0-1.1-0.8-1.5-1.9c-0.2-0.7-0.7-2-0.7-2s-0.3,0-0.6-0.5c-0.3-0.5-1.9-4.6-1.2-5.3
	c0.2-0.2,0.5-0.3,0.7-0.4c-0.3,0-0.7-0.6-1-3.7c-0.1-1.3-0.1-5.6,1.3-7.6c0.9-1.3,2.2-2.6,3.1-2.6c0.9,0,2.1-0.2,2.1-0.2
	c0.5-0.5,1.1-1.4,2.8-1.4s5.1,0.8,7.7,1.8c2.6,1,4.1,2.1,4.7,3.9c0.6,1.8,1.4,7.5,0.9,8.3c-0.6,1-0.5,1-0.6,1.2c0,0,0.8,0.9,0.4,2.1
	c-0.4,1.2-1.5,4.7-2.5,4.4c-0.3,0.9-0.9,3.3-0.8,6.1c0,0,0.1,0.7,0.2,1c0.8,0.5,2.8,2.2,4,3.2c2.7,0.8,13,3.9,15.1,6.6
	c0.9,1.2,1.7,4.5,2.3,8.9h1.6V45.9H9.2z M9.2,45.9v55.2h1.3c0.3-2.7,0.5-4.6,0.7-5.3c0.7-2.4,8.1-6.3,11.5-8.1l4.8-4.3
	c-0.4-2.1-1.1-3.9-1.2-4.3c0,0-1.1-0.8-1.5-1.9c-0.2-0.7-0.7-2-0.7-2s-0.3,0-0.6-0.5c-0.3-0.5-1.9-4.6-1.2-5.3
	c0.2-0.2,0.5-0.3,0.7-0.4c-0.3,0-0.7-0.6-1-3.7c-0.1-1.3-0.1-5.6,1.3-7.6c0.9-1.3,2.2-2.6,3.1-2.6c0.9,0,2.1-0.2,2.1-0.2
	c0.5-0.5,1.1-1.4,2.8-1.4s5.1,0.8,7.7,1.8c2.6,1,4.1,2.1,4.7,3.9c0.6,1.8,1.4,7.5,0.9,8.3c-0.6,1-0.5,1-0.6,1.2c0,0,0.8,0.9,0.4,2.1
	c-0.4,1.2-1.5,4.7-2.5,4.4c-0.3,0.9-0.9,3.3-0.8,6.1c0,0,0.1,0.7,0.2,1c0.8,0.5,2.8,2.2,4,3.2c2.7,0.8,13,3.9,15.1,6.6
	c0.9,1.2,1.7,4.5,2.3,8.9h1.6V45.9H9.2z M44.5,85.7L41.2,83l-4.6,4.3h0l-2.9,2.8l2.2,2L34,94.5l0,6.6h2.8c0.8-2.6,1.5-5.1,2.1-7.1
	c0.1-0.3,2,1.4,2.1,1C41.2,94.5,44,87.4,44.5,85.7L44.5,85.7z M31.6,90.2l-4.5-5.6v0l-2.8,2.5l0.6,8.4l1.5-1.2l0.8,6.8h2.7l0.9-6.6
	l-1.2-2.4L31.6,90.2z M40.3,24.5c-0.1,4.4-3.7,8-8.2,8s-8.1-3.6-8.2-8H9.8v10.7h44.8V24.5H40.3z M9.8,13.5v9.9h14.3
	c0.5-4.1,3.9-7.3,8.1-7.3s7.7,3.2,8.1,7.3h14.3v-9.9H9.8z M32.2,17.3c-3.9,0-7.1,3.2-7.1,7.1c0,3.9,3.2,7.1,7.1,7.1
	c3.9,0,7.1-3.2,7.1-7.1C39.3,20.5,36.1,17.3,32.2,17.3z M31.6,90.2l-4.5-5.6v0l-2.8,2.5l0.6,8.4l1.5-1.2l0.8,6.8h2.7l0.9-6.6
	l-1.2-2.4L31.6,90.2z M32.2,17.3c-3.9,0-7.1,3.2-7.1,7.1c0,3.9,3.2,7.1,7.1,7.1c3.9,0,7.1-3.2,7.1-7.1
	C39.3,20.5,36.1,17.3,32.2,17.3z M44.5,85.7L41.2,83l-4.6,4.3h0l-2.9,2.8l2.2,2L34,94.5l0,6.6h2.8c0.8-2.6,1.5-5.1,2.1-7.1
	c0.1-0.3,2,1.4,2.1,1C41.2,94.5,44,87.4,44.5,85.7L44.5,85.7z M9.8,13.5v9.9h14.3c0.5-4.1,3.9-7.3,8.1-7.3s7.7,3.2,8.1,7.3h14.3
	v-9.9H9.8z M40.3,24.5c-0.1,4.4-3.7,8-8.2,8s-8.1-3.6-8.2-8H9.8v10.7h44.8V24.5H40.3z M9.2,45.9v55.2h1.3c0.3-2.7,0.5-4.6,0.7-5.3
	c0.7-2.4,8.1-6.3,11.5-8.1l4.8-4.3c-0.4-2.1-1.1-3.9-1.2-4.3c0,0-1.1-0.8-1.5-1.9c-0.2-0.7-0.7-2-0.7-2s-0.3,0-0.6-0.5
	c-0.3-0.5-1.9-4.6-1.2-5.3c0.2-0.2,0.5-0.3,0.7-0.4c-0.3,0-0.7-0.6-1-3.7c-0.1-1.3-0.1-5.6,1.3-7.6c0.9-1.3,2.2-2.6,3.1-2.6
	c0.9,0,2.1-0.2,2.1-0.2c0.5-0.5,1.1-1.4,2.8-1.4s5.1,0.8,7.7,1.8c2.6,1,4.1,2.1,4.7,3.9c0.6,1.8,1.4,7.5,0.9,8.3
	c-0.6,1-0.5,1-0.6,1.2c0,0,0.8,0.9,0.4,2.1c-0.4,1.2-1.5,4.7-2.5,4.4c-0.3,0.9-0.9,3.3-0.8,6.1c0,0,0.1,0.7,0.2,1
	c0.8,0.5,2.8,2.2,4,3.2c2.7,0.8,13,3.9,15.1,6.6c0.9,1.2,1.7,4.5,2.3,8.9h1.6V45.9H9.2z M9.2,45.9v55.2h1.3c0.3-2.7,0.5-4.6,0.7-5.3
	c0.7-2.4,8.1-6.3,11.5-8.1l4.8-4.3c-0.4-2.1-1.1-3.9-1.2-4.3c0,0-1.1-0.8-1.5-1.9c-0.2-0.7-0.7-2-0.7-2s-0.3,0-0.6-0.5
	c-0.3-0.5-1.9-4.6-1.2-5.3c0.2-0.2,0.5-0.3,0.7-0.4c-0.3,0-0.7-0.6-1-3.7c-0.1-1.3-0.1-5.6,1.3-7.6c0.9-1.3,2.2-2.6,3.1-2.6
	c0.9,0,2.1-0.2,2.1-0.2c0.5-0.5,1.1-1.4,2.8-1.4s5.1,0.8,7.7,1.8c2.6,1,4.1,2.1,4.7,3.9c0.6,1.8,1.4,7.5,0.9,8.3
	c-0.6,1-0.5,1-0.6,1.2c0,0,0.8,0.9,0.4,2.1c-0.4,1.2-1.5,4.7-2.5,4.4c-0.3,0.9-0.9,3.3-0.8,6.1c0,0,0.1,0.7,0.2,1
	c0.8,0.5,2.8,2.2,4,3.2c2.7,0.8,13,3.9,15.1,6.6c0.9,1.2,1.7,4.5,2.3,8.9h1.6V45.9H9.2z M44.5,85.7L41.2,83l-4.6,4.3h0l-2.9,2.8
	l2.2,2L34,94.5l0,6.6h2.8c0.8-2.6,1.5-5.1,2.1-7.1c0.1-0.3,2,1.4,2.1,1C41.2,94.5,44,87.4,44.5,85.7L44.5,85.7z M31.6,90.2l-4.5-5.6
	v0l-2.8,2.5l0.6,8.4l1.5-1.2l0.8,6.8h2.7l0.9-6.6l-1.2-2.4L31.6,90.2z M40.3,24.5c-0.1,4.4-3.7,8-8.2,8s-8.1-3.6-8.2-8H9.8v10.7
	h44.8V24.5H40.3z M9.8,13.5v9.9h14.3c0.5-4.1,3.9-7.3,8.1-7.3s7.7,3.2,8.1,7.3h14.3v-9.9H9.8z M32.2,17.3c-3.9,0-7.1,3.2-7.1,7.1
	c0,3.9,3.2,7.1,7.1,7.1c3.9,0,7.1-3.2,7.1-7.1C39.3,20.5,36.1,17.3,32.2,17.3z M31.6,90.2l-4.5-5.6v0l-2.8,2.5l0.6,8.4l1.5-1.2
	l0.8,6.8h2.7l0.9-6.6l-1.2-2.4L31.6,90.2z M32.2,17.3c-3.9,0-7.1,3.2-7.1,7.1c0,3.9,3.2,7.1,7.1,7.1c3.9,0,7.1-3.2,7.1-7.1
	C39.3,20.5,36.1,17.3,32.2,17.3z M44.5,85.7L41.2,83l-4.6,4.3h0l-2.9,2.8l2.2,2L34,94.5l0,6.6h2.8c0.8-2.6,1.5-5.1,2.1-7.1
	c0.1-0.3,2,1.4,2.1,1C41.2,94.5,44,87.4,44.5,85.7L44.5,85.7z M9.8,13.5v9.9h14.3c0.5-4.1,3.9-7.3,8.1-7.3s7.7,3.2,8.1,7.3h14.3
	v-9.9H9.8z M40.3,24.5c-0.1,4.4-3.7,8-8.2,8s-8.1-3.6-8.2-8H9.8v10.7h44.8V24.5H40.3z M9.2,45.9v55.2h1.3c0.3-2.7,0.5-4.6,0.7-5.3
	c0.7-2.4,8.1-6.3,11.5-8.1l4.8-4.3c-0.4-2.1-1.1-3.9-1.2-4.3c0,0-1.1-0.8-1.5-1.9c-0.2-0.7-0.7-2-0.7-2s-0.3,0-0.6-0.5
	c-0.3-0.5-1.9-4.6-1.2-5.3c0.2-0.2,0.5-0.3,0.7-0.4c-0.3,0-0.7-0.6-1-3.7c-0.1-1.3-0.1-5.6,1.3-7.6c0.9-1.3,2.2-2.6,3.1-2.6
	c0.9,0,2.1-0.2,2.1-0.2c0.5-0.5,1.1-1.4,2.8-1.4s5.1,0.8,7.7,1.8c2.6,1,4.1,2.1,4.7,3.9c0.6,1.8,1.4,7.5,0.9,8.3
	c-0.6,1-0.5,1-0.6,1.2c0,0,0.8,0.9,0.4,2.1c-0.4,1.2-1.5,4.7-2.5,4.4c-0.3,0.9-0.9,3.3-0.8,6.1c0,0,0.1,0.7,0.2,1
	c0.8,0.5,2.8,2.2,4,3.2c2.7,0.8,13,3.9,15.1,6.6c0.9,1.2,1.7,4.5,2.3,8.9h1.6V45.9H9.2z M9.2,45.9v55.2h1.3c0.3-2.7,0.5-4.6,0.7-5.3
	c0.7-2.4,8.1-6.3,11.5-8.1l4.8-4.3c-0.4-2.1-1.1-3.9-1.2-4.3c0,0-1.1-0.8-1.5-1.9c-0.2-0.7-0.7-2-0.7-2s-0.3,0-0.6-0.5
	c-0.3-0.5-1.9-4.6-1.2-5.3c0.2-0.2,0.5-0.3,0.7-0.4c-0.3,0-0.7-0.6-1-3.7c-0.1-1.3-0.1-5.6,1.3-7.6c0.9-1.3,2.2-2.6,3.1-2.6
	c0.9,0,2.1-0.2,2.1-0.2c0.5-0.5,1.1-1.4,2.8-1.4s5.1,0.8,7.7,1.8c2.6,1,4.1,2.1,4.7,3.9c0.6,1.8,1.4,7.5,0.9,8.3
	c-0.6,1-0.5,1-0.6,1.2c0,0,0.8,0.9,0.4,2.1c-0.4,1.2-1.5,4.7-2.5,4.4c-0.3,0.9-0.9,3.3-0.8,6.1c0,0,0.1,0.7,0.2,1
	c0.8,0.5,2.8,2.2,4,3.2c2.7,0.8,13,3.9,15.1,6.6c0.9,1.2,1.7,4.5,2.3,8.9h1.6V45.9H9.2z M41.2,83l-4.6,4.3h0l-2.9,2.8l2.2,2L34,94.5
	l0,6.6h2.8c0.8-2.6,1.5-5.1,2.1-7.1c0.1-0.3,2,1.4,2.1,1c0.2-0.6,2.9-7.8,3.5-9.3l0-0.1L41.2,83z M27.2,84.7L27.2,84.7l-2.8,2.5
	l0.6,8.4l1.5-1.2l0.8,6.8h2.7l0.9-6.6l-1.2-2.4l2-1.9L27.2,84.7z M32.2,32.5c-4.4,0-8.1-3.6-8.2-8H9.8v10.7h44.8V24.5H40.3
	C40.2,29,36.6,32.5,32.2,32.5z M9.8,13.5v9.9h14.3c0.5-4.1,3.9-7.3,8.1-7.3s7.7,3.2,8.1,7.3h14.3v-9.9H9.8z M32.2,31.4
	c3.9,0,7.1-3.2,7.1-7.1c0-3.9-3.2-7.1-7.1-7.1c-3.9,0-7.1,3.2-7.1,7.1C25.1,28.3,28.3,31.4,32.2,31.4z M0,0v110h175V0H0z M8.7,12.4
	h47v23.8h-47V12.4z M65.4,102.1H8.2V45h57.2V102.1z M166.3,101.6H74.7v-3.8h91.6V101.6z M166.3,93.8H74.7v-3.7h91.6V93.8z M166.3,86
	H74.7v-3.7h91.6V86z M166.3,78.3H74.7v-3.8h91.6V78.3z M166.3,70.5H74.7v-3.8h91.6V70.5z M166.3,54.1H74.7V45h91.6V54.1z
	 M166.3,17.5H61.8v-5.1h104.5V17.5z M11.2,95.9c0.7-2.4,8.1-6.3,11.5-8.1l4.8-4.3c-0.4-2.1-1.1-3.9-1.2-4.3c0,0-1.1-0.8-1.5-1.9
	c-0.2-0.7-0.7-2-0.7-2s-0.3,0-0.6-0.5c-0.3-0.5-1.9-4.6-1.2-5.3c0.2-0.2,0.5-0.3,0.7-0.4c-0.3,0-0.7-0.6-1-3.7
	c-0.1-1.3-0.1-5.6,1.3-7.6c0.9-1.3,2.2-2.6,3.1-2.6c0.9,0,2.1-0.2,2.1-0.2c0.5-0.5,1.1-1.4,2.8-1.4s5.1,0.8,7.7,1.8
	c2.6,1,4.1,2.1,4.7,3.9c0.6,1.8,1.4,7.5,0.9,8.3c-0.6,1-0.5,1-0.6,1.2c0,0,0.8,0.9,0.4,2.1c-0.4,1.2-1.5,4.7-2.5,4.4
	c-0.3,0.9-0.9,3.3-0.8,6.1c0,0,0.1,0.7,0.2,1c0.8,0.5,2.8,2.2,4,3.2c2.7,0.8,13,3.9,15.1,6.6c0.9,1.2,1.7,4.5,2.3,8.9h1.6V45.9H9.2
	v55.2h1.3C10.7,98.5,11,96.5,11.2,95.9z M32.2,32.5c-4.4,0-8.1-3.6-8.2-8H9.8v10.7h44.8V24.5H40.3C40.2,29,36.6,32.5,32.2,32.5z
	 M9.8,23.5h14.3c0.5-4.1,3.9-7.3,8.1-7.3s7.7,3.2,8.1,7.3h14.3v-9.9H9.8V23.5z M41.2,83l-4.6,4.3h0l-2.9,2.8l2.2,2L34,94.5l0,6.6
	h2.8c0.8-2.6,1.5-5.1,2.1-7.1c0.1-0.3,2,1.4,2.1,1c0.2-0.6,2.9-7.8,3.5-9.3l0-0.1L41.2,83z M32.2,31.4c3.9,0,7.1-3.2,7.1-7.1
	c0-3.9-3.2-7.1-7.1-7.1c-3.9,0-7.1,3.2-7.1,7.1C25.1,28.3,28.3,31.4,32.2,31.4z M27.2,84.7L27.2,84.7l-2.8,2.5l0.6,8.4l1.5-1.2
	l0.8,6.8h2.7l0.9-6.6l-1.2-2.4l2-1.9L27.2,84.7z M32.2,17.3c-3.9,0-7.1,3.2-7.1,7.1c0,3.9,3.2,7.1,7.1,7.1c3.9,0,7.1-3.2,7.1-7.1
	C39.3,20.5,36.1,17.3,32.2,17.3z M9.8,13.5v9.9h14.3c0.5-4.1,3.9-7.3,8.1-7.3s7.7,3.2,8.1,7.3h14.3v-9.9H9.8z M40.3,24.5
	c-0.1,4.4-3.7,8-8.2,8s-8.1-3.6-8.2-8H9.8v10.7h44.8V24.5H40.3z M31.6,90.2l-4.5-5.6v0l-2.8,2.5l0.6,8.4l1.5-1.2l0.8,6.8h2.7
	l0.9-6.6l-1.2-2.4L31.6,90.2z M44.5,85.7L41.2,83l-4.6,4.3h0l-2.9,2.8l2.2,2L34,94.5l0,6.6h2.8c0.8-2.6,1.5-5.1,2.1-7.1
	c0.1-0.3,2,1.4,2.1,1C41.2,94.5,44,87.4,44.5,85.7L44.5,85.7z M9.2,45.9v55.2h1.3c0.3-2.7,0.5-4.6,0.7-5.3c0.7-2.4,8.1-6.3,11.5-8.1
	l4.8-4.3c-0.4-2.1-1.1-3.9-1.2-4.3c0,0-1.1-0.8-1.5-1.9c-0.2-0.7-0.7-2-0.7-2s-0.3,0-0.6-0.5c-0.3-0.5-1.9-4.6-1.2-5.3
	c0.2-0.2,0.5-0.3,0.7-0.4c-0.3,0-0.7-0.6-1-3.7c-0.1-1.3-0.1-5.6,1.3-7.6c0.9-1.3,2.2-2.6,3.1-2.6c0.9,0,2.1-0.2,2.1-0.2
	c0.5-0.5,1.1-1.4,2.8-1.4s5.1,0.8,7.7,1.8c2.6,1,4.1,2.1,4.7,3.9c0.6,1.8,1.4,7.5,0.9,8.3c-0.6,1-0.5,1-0.6,1.2c0,0,0.8,0.9,0.4,2.1
	c-0.4,1.2-1.5,4.7-2.5,4.4c-0.3,0.9-0.9,3.3-0.8,6.1c0,0,0.1,0.7,0.2,1c0.8,0.5,2.8,2.2,4,3.2c2.7,0.8,13,3.9,15.1,6.6
	c0.9,1.2,1.7,4.5,2.3,8.9h1.6V45.9H9.2z M9.2,45.9v55.2h1.3c0.3-2.7,0.5-4.6,0.7-5.3c0.7-2.4,8.1-6.3,11.5-8.1l4.8-4.3
	c-0.4-2.1-1.1-3.9-1.2-4.3c0,0-1.1-0.8-1.5-1.9c-0.2-0.7-0.7-2-0.7-2s-0.3,0-0.6-0.5c-0.3-0.5-1.9-4.6-1.2-5.3
	c0.2-0.2,0.5-0.3,0.7-0.4c-0.3,0-0.7-0.6-1-3.7c-0.1-1.3-0.1-5.6,1.3-7.6c0.9-1.3,2.2-2.6,3.1-2.6c0.9,0,2.1-0.2,2.1-0.2
	c0.5-0.5,1.1-1.4,2.8-1.4s5.1,0.8,7.7,1.8c2.6,1,4.1,2.1,4.7,3.9c0.6,1.8,1.4,7.5,0.9,8.3c-0.6,1-0.5,1-0.6,1.2c0,0,0.8,0.9,0.4,2.1
	c-0.4,1.2-1.5,4.7-2.5,4.4c-0.3,0.9-0.9,3.3-0.8,6.1c0,0,0.1,0.7,0.2,1c0.8,0.5,2.8,2.2,4,3.2c2.7,0.8,13,3.9,15.1,6.6
	c0.9,1.2,1.7,4.5,2.3,8.9h1.6V45.9H9.2z M40.3,24.5c-0.1,4.4-3.7,8-8.2,8s-8.1-3.6-8.2-8H9.8v10.7h44.8V24.5H40.3z M9.8,13.5v9.9
	h14.3c0.5-4.1,3.9-7.3,8.1-7.3s7.7,3.2,8.1,7.3h14.3v-9.9H9.8z M44.5,85.7L41.2,83l-4.6,4.3h0l-2.9,2.8l2.2,2L34,94.5l0,6.6h2.8
	c0.8-2.6,1.5-5.1,2.1-7.1c0.1-0.3,2,1.4,2.1,1C41.2,94.5,44,87.4,44.5,85.7L44.5,85.7z M32.2,17.3c-3.9,0-7.1,3.2-7.1,7.1
	c0,3.9,3.2,7.1,7.1,7.1c3.9,0,7.1-3.2,7.1-7.1C39.3,20.5,36.1,17.3,32.2,17.3z M31.6,90.2l-4.5-5.6v0l-2.8,2.5l0.6,8.4l1.5-1.2
	l0.8,6.8h2.7l0.9-6.6l-1.2-2.4L31.6,90.2z M32.2,17.3c-3.9,0-7.1,3.2-7.1,7.1c0,3.9,3.2,7.1,7.1,7.1c3.9,0,7.1-3.2,7.1-7.1
	C39.3,20.5,36.1,17.3,32.2,17.3z M9.8,13.5v9.9h14.3c0.5-4.1,3.9-7.3,8.1-7.3s7.7,3.2,8.1,7.3h14.3v-9.9H9.8z M40.3,24.5
	c-0.1,4.4-3.7,8-8.2,8s-8.1-3.6-8.2-8H9.8v10.7h44.8V24.5H40.3z M31.6,90.2l-4.5-5.6v0l-2.8,2.5l0.6,8.4l1.5-1.2l0.8,6.8h2.7
	l0.9-6.6l-1.2-2.4L31.6,90.2z M44.5,85.7L41.2,83l-4.6,4.3h0l-2.9,2.8l2.2,2L34,94.5l0,6.6h2.8c0.8-2.6,1.5-5.1,2.1-7.1
	c0.1-0.3,2,1.4,2.1,1C41.2,94.5,44,87.4,44.5,85.7L44.5,85.7z M9.2,45.9v55.2h1.3c0.3-2.7,0.5-4.6,0.7-5.3c0.7-2.4,8.1-6.3,11.5-8.1
	l4.8-4.3c-0.4-2.1-1.1-3.9-1.2-4.3c0,0-1.1-0.8-1.5-1.9c-0.2-0.7-0.7-2-0.7-2s-0.3,0-0.6-0.5c-0.3-0.5-1.9-4.6-1.2-5.3
	c0.2-0.2,0.5-0.3,0.7-0.4c-0.3,0-0.7-0.6-1-3.7c-0.1-1.3-0.1-5.6,1.3-7.6c0.9-1.3,2.2-2.6,3.1-2.6c0.9,0,2.1-0.2,2.1-0.2
	c0.5-0.5,1.1-1.4,2.8-1.4s5.1,0.8,7.7,1.8c2.6,1,4.1,2.1,4.7,3.9c0.6,1.8,1.4,7.5,0.9,8.3c-0.6,1-0.5,1-0.6,1.2c0,0,0.8,0.9,0.4,2.1
	c-0.4,1.2-1.5,4.7-2.5,4.4c-0.3,0.9-0.9,3.3-0.8,6.1c0,0,0.1,0.7,0.2,1c0.8,0.5,2.8,2.2,4,3.2c2.7,0.8,13,3.9,15.1,6.6
	c0.9,1.2,1.7,4.5,2.3,8.9h1.6V45.9H9.2z M9.2,45.9v55.2h1.3c0.3-2.7,0.5-4.6,0.7-5.3c0.7-2.4,8.1-6.3,11.5-8.1l4.8-4.3
	c-0.4-2.1-1.1-3.9-1.2-4.3c0,0-1.1-0.8-1.5-1.9c-0.2-0.7-0.7-2-0.7-2s-0.3,0-0.6-0.5c-0.3-0.5-1.9-4.6-1.2-5.3
	c0.2-0.2,0.5-0.3,0.7-0.4c-0.3,0-0.7-0.6-1-3.7c-0.1-1.3-0.1-5.6,1.3-7.6c0.9-1.3,2.2-2.6,3.1-2.6c0.9,0,2.1-0.2,2.1-0.2
	c0.5-0.5,1.1-1.4,2.8-1.4s5.1,0.8,7.7,1.8c2.6,1,4.1,2.1,4.7,3.9c0.6,1.8,1.4,7.5,0.9,8.3c-0.6,1-0.5,1-0.6,1.2c0,0,0.8,0.9,0.4,2.1
	c-0.4,1.2-1.5,4.7-2.5,4.4c-0.3,0.9-0.9,3.3-0.8,6.1c0,0,0.1,0.7,0.2,1c0.8,0.5,2.8,2.2,4,3.2c2.7,0.8,13,3.9,15.1,6.6
	c0.9,1.2,1.7,4.5,2.3,8.9h1.6V45.9H9.2z M40.3,24.5c-0.1,4.4-3.7,8-8.2,8s-8.1-3.6-8.2-8H9.8v10.7h44.8V24.5H40.3z M9.8,13.5v9.9
	h14.3c0.5-4.1,3.9-7.3,8.1-7.3s7.7,3.2,8.1,7.3h14.3v-9.9H9.8z M44.5,85.7L41.2,83l-4.6,4.3h0l-2.9,2.8l2.2,2L34,94.5l0,6.6h2.8
	c0.8-2.6,1.5-5.1,2.1-7.1c0.1-0.3,2,1.4,2.1,1C41.2,94.5,44,87.4,44.5,85.7L44.5,85.7z M32.2,17.3c-3.9,0-7.1,3.2-7.1,7.1
	c0,3.9,3.2,7.1,7.1,7.1c3.9,0,7.1-3.2,7.1-7.1C39.3,20.5,36.1,17.3,32.2,17.3z M31.6,90.2l-4.5-5.6v0l-2.8,2.5l0.6,8.4l1.5-1.2
	l0.8,6.8h2.7l0.9-6.6l-1.2-2.4L31.6,90.2z M32.2,17.3c-3.9,0-7.1,3.2-7.1,7.1c0,3.9,3.2,7.1,7.1,7.1c3.9,0,7.1-3.2,7.1-7.1
	C39.3,20.5,36.1,17.3,32.2,17.3z M9.8,13.5v9.9h14.3c0.5-4.1,3.9-7.3,8.1-7.3s7.7,3.2,8.1,7.3h14.3v-9.9H9.8z M40.3,24.5
	c-0.1,4.4-3.7,8-8.2,8s-8.1-3.6-8.2-8H9.8v10.7h44.8V24.5H40.3z M31.6,90.2l-4.5-5.6v0l-2.8,2.5l0.6,8.4l1.5-1.2l0.8,6.8h2.7
	l0.9-6.6l-1.2-2.4L31.6,90.2z M44.5,85.7L41.2,83l-4.6,4.3h0l-2.9,2.8l2.2,2L34,94.5l0,6.6h2.8c0.8-2.6,1.5-5.1,2.1-7.1
	c0.1-0.3,2,1.4,2.1,1C41.2,94.5,44,87.4,44.5,85.7L44.5,85.7z M9.2,45.9v55.2h1.3c0.3-2.7,0.5-4.6,0.7-5.3c0.7-2.4,8.1-6.3,11.5-8.1
	l4.8-4.3c-0.4-2.1-1.1-3.9-1.2-4.3c0,0-1.1-0.8-1.5-1.9c-0.2-0.7-0.7-2-0.7-2s-0.3,0-0.6-0.5c-0.3-0.5-1.9-4.6-1.2-5.3
	c0.2-0.2,0.5-0.3,0.7-0.4c-0.3,0-0.7-0.6-1-3.7c-0.1-1.3-0.1-5.6,1.3-7.6c0.9-1.3,2.2-2.6,3.1-2.6c0.9,0,2.1-0.2,2.1-0.2
	c0.5-0.5,1.1-1.4,2.8-1.4s5.1,0.8,7.7,1.8c2.6,1,4.1,2.1,4.7,3.9c0.6,1.8,1.4,7.5,0.9,8.3c-0.6,1-0.5,1-0.6,1.2c0,0,0.8,0.9,0.4,2.1
	c-0.4,1.2-1.5,4.7-2.5,4.4c-0.3,0.9-0.9,3.3-0.8,6.1c0,0,0.1,0.7,0.2,1c0.8,0.5,2.8,2.2,4,3.2c2.7,0.8,13,3.9,15.1,6.6
	c0.9,1.2,1.7,4.5,2.3,8.9h1.6V45.9H9.2z M9.2,45.9v55.2h1.3c0.3-2.7,0.5-4.6,0.7-5.3c0.7-2.4,8.1-6.3,11.5-8.1l4.8-4.3
	c-0.4-2.1-1.1-3.9-1.2-4.3c0,0-1.1-0.8-1.5-1.9c-0.2-0.7-0.7-2-0.7-2s-0.3,0-0.6-0.5c-0.3-0.5-1.9-4.6-1.2-5.3
	c0.2-0.2,0.5-0.3,0.7-0.4c-0.3,0-0.7-0.6-1-3.7c-0.1-1.3-0.1-5.6,1.3-7.6c0.9-1.3,2.2-2.6,3.1-2.6c0.9,0,2.1-0.2,2.1-0.2
	c0.5-0.5,1.1-1.4,2.8-1.4s5.1,0.8,7.7,1.8c2.6,1,4.1,2.1,4.7,3.9c0.6,1.8,1.4,7.5,0.9,8.3c-0.6,1-0.5,1-0.6,1.2c0,0,0.8,0.9,0.4,2.1
	c-0.4,1.2-1.5,4.7-2.5,4.4c-0.3,0.9-0.9,3.3-0.8,6.1c0,0,0.1,0.7,0.2,1c0.8,0.5,2.8,2.2,4,3.2c2.7,0.8,13,3.9,15.1,6.6
	c0.9,1.2,1.7,4.5,2.3,8.9h1.6V45.9H9.2z M40.3,24.5c-0.1,4.4-3.7,8-8.2,8s-8.1-3.6-8.2-8H9.8v10.7h44.8V24.5H40.3z M9.8,13.5v9.9
	h14.3c0.5-4.1,3.9-7.3,8.1-7.3s7.7,3.2,8.1,7.3h14.3v-9.9H9.8z M44.5,85.7L41.2,83l-4.6,4.3h0l-2.9,2.8l2.2,2L34,94.5l0,6.6h2.8
	c0.8-2.6,1.5-5.1,2.1-7.1c0.1-0.3,2,1.4,2.1,1C41.2,94.5,44,87.4,44.5,85.7L44.5,85.7z M32.2,17.3c-3.9,0-7.1,3.2-7.1,7.1
	c0,3.9,3.2,7.1,7.1,7.1c3.9,0,7.1-3.2,7.1-7.1C39.3,20.5,36.1,17.3,32.2,17.3z M31.6,90.2l-4.5-5.6v0l-2.8,2.5l0.6,8.4l1.5-1.2
	l0.8,6.8h2.7l0.9-6.6l-1.2-2.4L31.6,90.2z M31.6,90.2l-4.5-5.6v0l-2.8,2.5l0.6,8.4l1.5-1.2l0.8,6.8h2.7l0.9-6.6l-1.2-2.4L31.6,90.2z
	 M44.5,85.7L41.2,83l-4.6,4.3h0l-2.9,2.8l2.2,2L34,94.5l0,6.6h2.8c0.8-2.6,1.5-5.1,2.1-7.1c0.1-0.3,2,1.4,2.1,1
	C41.2,94.5,44,87.4,44.5,85.7L44.5,85.7z M9.2,45.9v55.2h1.3c0.3-2.7,0.5-4.6,0.7-5.3c0.7-2.4,8.1-6.3,11.5-8.1l4.8-4.3
	c-0.4-2.1-1.1-3.9-1.2-4.3c0,0-1.1-0.8-1.5-1.9c-0.2-0.7-0.7-2-0.7-2s-0.3,0-0.6-0.5c-0.3-0.5-1.9-4.6-1.2-5.3
	c0.2-0.2,0.5-0.3,0.7-0.4c-0.3,0-0.7-0.6-1-3.7c-0.1-1.3-0.1-5.6,1.3-7.6c0.9-1.3,2.2-2.6,3.1-2.6c0.9,0,2.1-0.2,2.1-0.2
	c0.5-0.5,1.1-1.4,2.8-1.4s5.1,0.8,7.7,1.8c2.6,1,4.1,2.1,4.7,3.9c0.6,1.8,1.4,7.5,0.9,8.3c-0.6,1-0.5,1-0.6,1.2c0,0,0.8,0.9,0.4,2.1
	c-0.4,1.2-1.5,4.7-2.5,4.4c-0.3,0.9-0.9,3.3-0.8,6.1c0,0,0.1,0.7,0.2,1c0.8,0.5,2.8,2.2,4,3.2c2.7,0.8,13,3.9,15.1,6.6
	c0.9,1.2,1.7,4.5,2.3,8.9h1.6V45.9H9.2z M9.2,45.9v55.2h1.3c0.3-2.7,0.5-4.6,0.7-5.3c0.7-2.4,8.1-6.3,11.5-8.1l4.8-4.3
	c-0.4-2.1-1.1-3.9-1.2-4.3c0,0-1.1-0.8-1.5-1.9c-0.2-0.7-0.7-2-0.7-2s-0.3,0-0.6-0.5c-0.3-0.5-1.9-4.6-1.2-5.3
	c0.2-0.2,0.5-0.3,0.7-0.4c-0.3,0-0.7-0.6-1-3.7c-0.1-1.3-0.1-5.6,1.3-7.6c0.9-1.3,2.2-2.6,3.1-2.6c0.9,0,2.1-0.2,2.1-0.2
	c0.5-0.5,1.1-1.4,2.8-1.4s5.1,0.8,7.7,1.8c2.6,1,4.1,2.1,4.7,3.9c0.6,1.8,1.4,7.5,0.9,8.3c-0.6,1-0.5,1-0.6,1.2c0,0,0.8,0.9,0.4,2.1
	c-0.4,1.2-1.5,4.7-2.5,4.4c-0.3,0.9-0.9,3.3-0.8,6.1c0,0,0.1,0.7,0.2,1c0.8,0.5,2.8,2.2,4,3.2c2.7,0.8,13,3.9,15.1,6.6
	c0.9,1.2,1.7,4.5,2.3,8.9h1.6V45.9H9.2z M44.5,85.7L41.2,83l-4.6,4.3h0l-2.9,2.8l2.2,2L34,94.5l0,6.6h2.8c0.8-2.6,1.5-5.1,2.1-7.1
	c0.1-0.3,2,1.4,2.1,1C41.2,94.5,44,87.4,44.5,85.7L44.5,85.7z M31.6,90.2l-4.5-5.6v0l-2.8,2.5l0.6,8.4l1.5-1.2l0.8,6.8h2.7l0.9-6.6
	l-1.2-2.4L31.6,90.2z"/>
</svg>
