<svg version="1.1" id="Слой_1" xmlns="http://www.w3.org/2000/svg" xmlns:xlink="http://www.w3.org/1999/xlink" x="0px" y="0px"
	 viewBox="0 0 250 250" style="enable-background:new 0 0 250 250;" xml:space="preserve">
<style type="text/css">
	.st0{fill:#fff;}
</style>
<rect x="60" y="60.8" class="st0" width="47" height="5"/>
<rect x="60" y="80.8" class="st0" width="47" height="5"/>
<rect x="144.4" y="107.4" class="st0" width="47" height="5"/>
<rect x="144.4" y="127.4" class="st0" width="47" height="5"/>
<path class="st0" d="M214.7,146.2V24.8h-65c-10.1,0-19.5,5.4-24.6,14c-5.1-8.6-14.5-14-24.6-14h-65v121.3c-18.4,5.1-31.8,22-31.8,42
	c0,24,19.5,43.5,43.5,43.5s43.5-19.5,43.5-43.5c0-2.5-0.2-4.9-0.6-7.3h10.3c11.3,0,20.6,9.2,20.6,20.6v1.5h8v-1.5
	c0-11.3,9.2-20.6,20.6-20.6h10.3c-0.4,2.4-0.6,4.8-0.6,7.3c0,24,19.5,43.5,43.5,43.5s43.5-19.5,43.5-43.5
	C246.5,168.1,233.1,151.3,214.7,146.2z M77.3,193.2h-60V183h60V193.2z M121.2,181.6c-5.3-5.5-12.8-8.8-20.6-8.8H88.1
	c-6.2-16.5-22.1-28.3-40.8-28.3c-1.3,0-2.5,0-3.7,0.2V32.8h57c11.3,0,20.6,9.2,20.6,20.6V181.6z M149.7,172.8
	c-7.8,0-15.2,3.2-20.6,8.8V53.4c0-11.3,9.2-20.6,20.6-20.6h57v111.9c-1.2-0.1-2.5-0.2-3.7-0.2c-18.7,0-34.6,11.8-40.8,28.3
	L149.7,172.8L149.7,172.8z M233,193.2h-24.9v24.9h-10.2v-24.9H173V183h24.9v-2.2v-8v-14.7h8.8h1.4v22.7v2.2H233V193.2z"/>
</svg>
