<svg version="1.1" id="Слой_1" xmlns="http://www.w3.org/2000/svg" xmlns:xlink="http://www.w3.org/1999/xlink" x="0px" y="0px"
	 viewBox="0 0 250 250" style="enable-background:new 0 0 250 250;" xml:space="preserve">
<style type="text/css">
	.st0{fill:#D5DBE6;}
</style>
<path class="st0" d="M225.8,165.3c-5.6-5.5-11.5-11.4-18.2-18.1c-1.4-1.4-2.9-2.1-4.4-2.1c-1.6,0-3,0.7-4.5,2.3
	c-1.4,1.4-2.8,2.9-4.4,4.4l-0.8,0.8c-0.6-0.9-1.2-1.8-1.7-2.6c-4.5-7-10.2-12.6-16.8-16.7c-10.4-6.4-21.6-10.3-35.3-14.1
	c-1.9-0.5-4.4,0.2-6,1.2c-15.5,9.4-30.5,9.4-45.9,0.1c-1.8-1.1-4.5-1.9-6.5-1.1c-2.4,1-4.8,1.9-7.3,2.9c-8.9,3.5-18,7.1-26.7,11.6
	c-14,7.2-22.3,19.7-24,36.1c-0.9,8-1.2,16.2-1.6,24.2l0,0.3c-0.1,2.2-0.2,4.4-0.3,6.6c-0.2,3.4-0.2,5.7,1.3,7.2
	c1.5,1.5,3.8,1.7,7.4,1.7c25.5,0,51.1,0,76.6,0l33.8,0c-0.5,1.4-1,2.8-1.5,4.2l0,0.1c-2,5.7-3.9,11-5.7,16.5c-0.6,1.9-0.9,5.3,0.7,7
	c1.2,1.3,3.3,1.4,4.4,1.4c0.9,0,1.8-0.1,2.6-0.3c8.7-2.3,17.2-4.8,25.9-7.4c1.4-0.4,3.3-1.2,4.7-2.6c12.9-12.8,26.2-26.1,38-37.9
	c5.4-5.4,10.8-10.8,16.2-16.2c1.5-1.5,2.2-3,2.2-4.6C228.1,168.4,227.4,166.9,225.8,165.3z M156.1,223.3l-10,2.9l3.6-10.2
	L156.1,223.3z M159,201.9c3.7-3.6,7.5-7.2,11.2-10.9c3.7-3.6,7.3-7.4,10.8-11l3.4-3.4l12.2,12.2c-0.1,0.1-0.1,0.1-0.2,0.2
	c-8.1,8.1-16.1,16.3-24.1,24.4l-4.4,4.5l-12.4-12.4C156.6,204.2,157.8,203.1,159,201.9z M184.4,162c-6.1,6-12.2,12.1-18.1,17.9
	c-5.8,5.8-11.8,11.7-17.7,17.6c-0.9,0.8-2.3,1.5-3.4,1.5c-32.6,0.1-65.8,0.1-97.9,0.1l-14.7,0c-0.2,0-0.3,0-0.5,0
	c0-1.3,0.1-2.6,0.1-3.9c0.3-11.7,0.6-22.7,4.1-33.5c2.5-8,7.9-14.2,15.4-18c7.9-4,16.3-7.5,24.4-10.8l0.4-0.2
	c1.9-0.8,3.8-1.6,5.7-2.3c0.3-0.1,1.6,0,2.6,0.6c17.5,9.3,35.1,9.4,52.2,0c1-0.6,2.6-0.8,3.5-0.5c8,2.7,14.9,5.2,21.2,7.7
	c9.7,3.9,17.4,10.9,22.9,20.7C185.6,160.5,185.5,160.8,184.4,162z"/>
<path class="st0" d="M108.3,118c0.2,0,0.5,0,0.7,0c14.1-0.2,27.3-5.8,37.1-15.9c9.9-10.2,15.2-23.7,15-38
	c-0.2-13.8-5.9-26.8-16-36.7c-10.1-9.8-23.3-15.1-37.2-15c-14.4,0.2-27.7,5.8-37.5,15.8c-9.8,10.1-15.1,23.6-14.9,38.1
	c0.2,13.9,5.9,27,16,36.8C81.5,112.7,94.5,118,108.3,118z M108.4,22.9c11.1,0,21.6,4.3,29.5,12.2c8,8,12.4,18.6,12.4,30
	c0,11.4-4.3,22-12.2,29.9c-7.9,7.9-18.4,12.2-29.8,12.2C84.6,107.3,66,88.6,66,64.8c0-23,18.9-41.8,42.2-41.9L108.4,22.9z"/>
</svg>
