<svg version="1.1" id="Слой_1" xmlns="http://www.w3.org/2000/svg" xmlns:xlink="http://www.w3.org/1999/xlink" x="0px" y="0px"
	 viewBox="0 0 1024 1024" style="enable-background:new 0 0 1024 1024;" xml:space="preserve">
<style type="text/css">
	.st0{fill:#d5dbe6;}
</style>
<path class="st0" d="M870.4,102.4l-460.8,0c-42.3,0-76.8,34.5-76.8,76.8V322c0,14.1,11.5,25.6,25.6,25.6S384,336.1,384,322V179.2
	c0-14.1,11.5-25.6,25.6-25.6l387.3,0l-196.7,84.3c-35.1,15-62.6,56.7-62.6,94.9v486.4c-203.5,0-144.6,22.4-153.6-168.5
	c0-14.1-11.5-25.6-25.6-25.6s-25.6,11.5-25.6,25.6c-1,211-21.8,227.5,204.8,219.7c2.4,48.1-17.1,135.2,55.5,137.2
	c7.7,8.8,278.4-116,291.5-119.1c35.1-15,62.6-56.7,62.6-94.9V179.2C947.2,136.9,912.7,102.4,870.4,102.4z M896,793.6
	c0,17.9-15,40.7-31.5,47.8L600.2,954.7c-10.1,3.3-10.4,3-11.4-7.5c0,0,0-614.4,0-614.4c0-18,15-40.8,31.5-47.8v0l273-117
	C901.1,178.8,893.3,781.5,896,793.6z"/>
<path class="st0" d="M412.6,460.8H244.7V292.9c0-14.1-11.5-25.6-25.6-25.6s-25.6,11.5-25.6,25.6v167.9H25.6
	C11.5,460.8,0,472.3,0,486.4S11.5,512,25.6,512h167.9v167.9c0,14.1,11.5,25.6,25.6,25.6s25.6-11.5,25.6-25.6V512h167.9
	c14.1,0,25.6-11.5,25.6-25.6S426.7,460.8,412.6,460.8z"/>
</svg>
