<svg version="1.1" id="Слой_2" xmlns="http://www.w3.org/2000/svg" xmlns:xlink="http://www.w3.org/1999/xlink" x="0px" y="0px"
	 viewBox="0 0 56 56" style="enable-background:new 0 0 56 56;" xml:space="preserve">
<style type="text/css">
	.st0{fill-rule:evenodd;clip-rule:evenodd;fill:url(#SVGID_1_);}
	.st1{fill-rule:evenodd;clip-rule:evenodd;fill:#FFFFFF;}
</style>
<linearGradient id="SVGID_1_" gradientUnits="userSpaceOnUse" x1="28" y1="54.5335" x2="28" y2="-1.4665">
	<stop  offset="3.724391e-03" style="stop-color:#363942"/>
	<stop  offset="0.635" style="stop-color:#363A42"/>
	<stop  offset="0.8472" style="stop-color:#3C4149"/>
	<stop  offset="1" style="stop-color:#444951"/>
</linearGradient>
<path class="st0" d="M28,0L28,0c15.5,0,28,12.5,28,28l0,0c0,15.5-12.5,28-28,28l0,0C12.5,56,0,43.5,0,28l0,0C0,12.5,12.5,0,28,0z"/>
<path class="st1" d="M37.9,17.6c-1.5-4-5.2-4.5-9.6-3.8l-1.5-5.6l-3.3,0.8l1.5,5.5c-0.9,0.2-1.8,0.5-2.6,0.7l-1.5-5.5l-3.3,0.8
	l1.5,5.6c-0.7,0.2-1.4,0.4-2.1,0.6l0,0l-4.6,1.1l1,3.7c0,0,2.4-0.7,2.4-0.6c1.3-0.3,2,0.4,2.3,1l1.7,6.4c0.1,0,0.2-0.1,0.4-0.1
	l-0.4,0.1l2.4,9c0.1,0.5,0,1.2-0.9,1.4c0.1,0-2.4,0.6-2.4,0.6l0.4,4.3l4.3-1.1c0.8-0.2,1.6-0.4,2.4-0.6l1.5,5.7l3.3-0.8l-1.5-5.7
	c0.9-0.2,1.8-0.4,2.7-0.6l1.5,5.6l3.3-0.8l-1.5-5.7c5.5-1.7,9-4.1,8-9.7c-0.8-4.5-3.3-5.9-6.7-5.9C38.2,22.6,39,20.5,37.9,17.6z
	 M36.5,31c1.2,4.3-6,5.5-8.3,6.1l-2-7.6C28.4,28.9,35.3,26.5,36.5,31L36.5,31z M25.3,26l-1.9-6.9c1.9-0.5,7.6-2.5,8.7,1.5
	C33.1,24.5,27.1,25.6,25.3,26z"/>
</svg>
