<svg version="1.1" id="Слой_2" xmlns="http://www.w3.org/2000/svg" xmlns:xlink="http://www.w3.org/1999/xlink" x="0px" y="0px"
	 viewBox="0 0 56 56" style="enable-background:new 0 0 56 56;" xml:space="preserve">
<style type="text/css">
	.st0{fill-rule:evenodd;clip-rule:evenodd;fill:url(#SVGID_1_);}
	.st1{fill-rule:evenodd;clip-rule:evenodd;fill:#FFFFFF;}
</style>
<linearGradient id="SVGID_1_" gradientUnits="userSpaceOnUse" x1="28" y1="54.5335" x2="28" y2="-1.4665">
	<stop  offset="3.724391e-03" style="stop-color:#363942"/>
	<stop  offset="0.635" style="stop-color:#363A42"/>
	<stop  offset="0.8472" style="stop-color:#3C4149"/>
	<stop  offset="1" style="stop-color:#444951"/>
</linearGradient>
<path class="st0" d="M28,0L28,0c15.5,0,28,12.5,28,28l0,0c0,15.5-12.5,28-28,28l0,0C12.5,56,0,43.5,0,28l0,0C0,12.5,12.5,0,28,0z"/>
<path class="st1" d="M41.6,23.5c0.7-4.2-2.3-6.5-6.4-8.1l1.5-5.7l-3.3-0.9l-1.5,5.5c-0.9-0.2-1.8-0.5-2.6-0.7L30.8,8L27.5,7L26,12.7
	c-0.7-0.2-1.4-0.4-2.1-0.6l0,0l-4.5-1.3l-1,3.7c0,0,2.4,0.7,2.4,0.7c1.3,0.4,1.5,1.3,1.5,2.1l-1.7,6.4c0.1,0,0.2,0.1,0.3,0.1
	l-0.3-0.1l-2.4,9c-0.2,0.4-0.6,1-1.5,0.8c0,0-2.4-0.7-2.4-0.7l-1.8,3.9l4.3,1.2c0.8,0.2,1.6,0.5,2.3,0.7l-1.5,5.7l3.3,1l1.5-5.7
	c0.9,0.3,1.8,0.5,2.6,0.8l-1.5,5.6l3.3,1l1.5-5.7c5.6,1.3,9.9,0.9,11.8-4.4c1.6-4.3,0.1-6.8-2.8-8.5C39.4,28,41.1,26.5,41.6,23.5z
	 M33.7,34.4c-1.1,4.3-8,1.8-10.2,1.1l2-7.6C27.8,28.6,34.9,29.9,33.7,34.4L33.7,34.4z M26.4,24.5l1.8-6.9c1.9,0.5,7.9,1.6,6.8,5.7
	C34,27.1,28.3,25,26.4,24.5L26.4,24.5z"/>
</svg>