<svg version="1.1" id="Слой_2" xmlns="http://www.w3.org/2000/svg" xmlns:xlink="http://www.w3.org/1999/xlink" x="0px" y="0px"
	 viewBox="0 0 56 56" style="enable-background:new 0 0 56 56;" xml:space="preserve">
<style type="text/css">
	.st0{fill-rule:evenodd;clip-rule:evenodd;fill:url(#SVGID_1_);}
	.st1{fill:#FFFFFF;}
</style>
<linearGradient id="SVGID_1_" gradientUnits="userSpaceOnUse" x1="28" y1="54.5335" x2="28" y2="-1.4665">
	<stop  offset="3.724391e-03" style="stop-color:#363942"/>
	<stop  offset="0.635" style="stop-color:#363A42"/>
	<stop  offset="0.8472" style="stop-color:#3C4149"/>
	<stop  offset="1" style="stop-color:#444951"/>
</linearGradient>
<path class="st0" d="M28,0L28,0c15.5,0,28,12.5,28,28l0,0c0,15.5-12.5,28-28,28l0,0C12.5,56,0,43.5,0,28l0,0C0,12.5,12.5,0,28,0z"/>
<path id="Combined-Shape" class="st1" d="M32.6,15c10.6,0,12.4,5.8,10.9,13.9c-1,5.4-3.5,9.6-7.7,11.6c-1.9,0.9-3.7,1.4-7.9,1.4h-12
	l1-5.6l10.5,0c6.3,0,8-2.7,8.9-5.1c0.3-0.9,1-3.7,1-5.3c0-3.2-1.5-5.2-6.9-5.2l-10.8,0l1-5.6H32.6z M15.4,25.6h12.3
	c0,0-0.1,0.7-0.5,2.3c-0.3,1.2-0.7,3.3-3.9,3.3H11c0,0,0.1-0.7,0.5-2.3C11.8,27.6,12.3,25.6,15.4,25.6z"/>
</svg>