<svg version="1.1" id="Слой_2" xmlns="http://www.w3.org/2000/svg" xmlns:xlink="http://www.w3.org/1999/xlink" x="0px" y="0px"
	 viewBox="0 0 56 56" style="enable-background:new 0 0 56 56;" xml:space="preserve">
<style type="text/css">
	.st0{fill-rule:evenodd;clip-rule:evenodd;fill:url(#SVGID_1_);}
	.st1{fill-rule:evenodd;clip-rule:evenodd;fill:#DFD4FC;}
	.st2{fill-rule:evenodd;clip-rule:evenodd;fill:#FFFFFF;}
	.st3{fill-rule:evenodd;clip-rule:evenodd;fill:#B1A9FF;}
	.st4{fill-rule:evenodd;clip-rule:evenodd;fill:#BEB8F2;}
</style>
<linearGradient id="SVGID_1_" gradientUnits="userSpaceOnUse" x1="28" y1="54.5335" x2="28" y2="-1.4665">
	<stop  offset="3.724391e-03" style="stop-color:#363942"/>
	<stop  offset="0.635" style="stop-color:#363A42"/>
	<stop  offset="0.8472" style="stop-color:#3C4149"/>
	<stop  offset="1" style="stop-color:#444951"/>
</linearGradient>
<path class="st0" d="M28,0L28,0c15.5,0,28,12.5,28,28l0,0c0,15.5-12.5,28-28,28l0,0C12.5,56,0,43.5,0,28l0,0C0,12.5,12.5,0,28,0z"/>
<path class="st1" d="M27.9,9l-0.3,0.9V35l0.3,0.3l11.9-6.9L27.9,9z"/>
<path class="st2" d="M27.9,9L16,28.3l11.9,6.9V23V9z"/>
<path class="st1" d="M27.9,37.4l-0.1,0.2v8.9l0.1,0.4l11.9-16.4L27.9,37.4z"/>
<path class="st2" d="M27.9,47v-9.5L16,30.6L27.9,47z"/>
<path class="st3" d="M27.9,35.2l11.9-6.9L27.9,23V35.2z"/>
<path class="st4" d="M16,28.3l11.9,6.9V23L16,28.3z"/>
</svg>