<svg version="1.1" id="Слой_2" xmlns="http://www.w3.org/2000/svg" xmlns:xlink="http://www.w3.org/1999/xlink" x="0px" y="0px"
	 viewBox="0 0 56 56" style="enable-background:new 0 0 56 56;" xml:space="preserve">
<style type="text/css">
	.st0{fill-rule:evenodd;clip-rule:evenodd;fill:url(#SVGID_1_);}
	.st1{fill:#FFFFFF;}
</style>
<linearGradient id="SVGID_1_" gradientUnits="userSpaceOnUse" x1="28" y1="54.5335" x2="28" y2="-1.4665">
	<stop  offset="3.724391e-03" style="stop-color:#363942"/>
	<stop  offset="0.635" style="stop-color:#363A42"/>
	<stop  offset="0.8472" style="stop-color:#3C4149"/>
	<stop  offset="1" style="stop-color:#444951"/>
</linearGradient>
<path class="st0" d="M28,0L28,0c15.5,0,28,12.5,28,28l0,0c0,15.5-12.5,28-28,28l0,0C12.5,56,0,43.5,0,28l0,0C0,12.5,12.5,0,28,0z"/>
<path class="st1" d="M41.7,39.6l-1.3,4.7c-0.1,0.4-0.5,0.8-1,0.8H15.7l4-13.5l-4.4,1.3l1-3.2l4.4-1.3l5.6-19c0.1-0.5,0.5-0.8,1-0.8
	h6c0.3,0,0.5,0.1,0.6,0.3c0.2,0.2,0.2,0.5,0.1,0.7l-4.7,16.1l4.4-1.4l-1,3.2l-4.5,1.3l-2.9,9.8H41c0.3,0,0.5,0.1,0.6,0.3
	C41.8,39.1,41.8,39.4,41.7,39.6z"/>
</svg>