<svg version="1.1" id="Слой_2" xmlns="http://www.w3.org/2000/svg" xmlns:xlink="http://www.w3.org/1999/xlink" x="0px" y="0px"
	 viewBox="0 0 56 56" style="enable-background:new 0 0 56 56;" xml:space="preserve">
<style type="text/css">
	.st0{fill-rule:evenodd;clip-rule:evenodd;fill:url(#SVGID_1_);}
	.st1{fill:#FFFFFF;}
</style>
<linearGradient id="SVGID_1_" gradientUnits="userSpaceOnUse" x1="28" y1="54.5335" x2="28" y2="-1.4665">
	<stop  offset="3.724391e-03" style="stop-color:#363942"/>
	<stop  offset="0.635" style="stop-color:#363A42"/>
	<stop  offset="0.8472" style="stop-color:#3C4149"/>
	<stop  offset="1" style="stop-color:#444951"/>
</linearGradient>
<path class="st0" d="M28,0L28,0c15.5,0,28,12.5,28,28l0,0c0,15.5-12.5,28-28,28l0,0C12.5,56,0,43.5,0,28l0,0C0,12.5,12.5,0,28,0z"/>
<path class="st1" d="M30.1,24.4c-4.2-1.7-4.9-2.6-4.9-4c0-0.6,0.3-2.6,3.5-2.6c2.7,0,4.5,1,5.2,1.4l1.5,0.9l2.3-5.9l-1.1-0.6
	c-1.6-0.9-3.4-1.5-5.4-1.8V7h-5.9v5.1c-4.4,1.2-7.1,4.5-7.1,8.8c0,5.4,4.4,7.9,8.7,9.6c3.9,1.6,4.4,3,4.4,4.2c0,1.9-1.7,3.1-4.1,3.1
	c-2.1,0-4.3-0.7-6-1.8L19.5,35l-2.2,6l0.9,0.7c1.6,1.2,4.1,2,6.6,2.3v4.9h6v-5.2c4.5-1.2,7.5-4.8,7.5-9.2
	C38.3,28.5,33.9,25.9,30.1,24.4z"/>
</svg>