<svg version="1.1" id="Слой_2" xmlns="http://www.w3.org/2000/svg" xmlns:xlink="http://www.w3.org/1999/xlink" x="0px" y="0px"
	 viewBox="0 0 56 56" style="enable-background:new 0 0 56 56;" xml:space="preserve">
<style type="text/css">
	.st0{fill-rule:evenodd;clip-rule:evenodd;fill:url(#SVGID_1_);}
	.st1{fill:#FFFFFF;}
</style>
<linearGradient id="SVGID_1_" gradientUnits="userSpaceOnUse" x1="28" y1="54.5335" x2="28" y2="-1.4665">
	<stop  offset="3.724391e-03" style="stop-color:#363942"/>
	<stop  offset="0.635" style="stop-color:#363A42"/>
	<stop  offset="0.8472" style="stop-color:#3C4149"/>
	<stop  offset="1" style="stop-color:#444951"/>
</linearGradient>
<path class="st0" d="M28,0L28,0c15.5,0,28,12.5,28,28l0,0c0,15.5-12.5,28-28,28l0,0C12.5,56,0,43.5,0,28l0,0C0,12.5,12.5,0,28,0z"/>
<path class="st1" d="M31.4,24.3v-4.1h9.5v-6.3H15.1v6.3h9.5v4.1c-7.7,0.4-13.5,1.9-13.5,3.7c0,1.8,5.8,3.3,13.5,3.7V45h6.8V31.7
	c7.7-0.4,13.4-1.9,13.4-3.7C44.9,26.2,39.1,24.6,31.4,24.3 M31.4,30.6L31.4,30.6c-0.2,0-1.2,0.1-3.4,0.1c-1.8,0-3-0.1-3.4-0.1l0,0
	c-6.8-0.3-11.9-1.5-11.9-2.9s5.1-2.6,11.9-2.9v4.6c0.4,0,1.7,0.1,3.5,0.1c2.1,0,3.2-0.1,3.4-0.1v-4.6c6.8,0.3,11.8,1.5,11.8,2.9
	S38.2,30.3,31.4,30.6"/>
</svg>
