<?xml version="1.0" encoding="utf-8"?>
<!-- Generator: Adobe Illustrator 24.1.2, SVG Export Plug-In . SVG Version: 6.00 Build 0)  -->
<svg version="1.1" xmlns="http://www.w3.org/2000/svg" xmlns:xlink="http://www.w3.org/1999/xlink" x="0px" y="0px"
	 viewBox="0 0 320 320" style="enable-background:new 0 0 320 320;" xml:space="preserve">
<style type="text/css">
	.st0{fill:#EFF501;}
	.st1{fill:#FFFFFF;}
</style>
<path class="st0" d="M4,251v26c0,21.5,52.4,39,117,39s117-17.5,117-39v-26c-25.2,17.7-71.2,26-117,26S29.2,268.7,4,251z M4,187.1
	v31.4c0,21.5,52.4,39,117,39s117-17.5,117-39v-31.4c-25.2,20.7-71.2,31.4-117,31.4S29.2,207.8,4,187.1z M121,101.5
	c-64.6,0-117,21.8-117,48.8S56.4,199,121,199s117-21.8,117-48.8S185.6,101.5,121,101.5z"/>
<path class="st1" d="M199,82c64.6,0,117-17.5,117-39S263.6,4,199,4S82,21.5,82,43S134.4,82,199,82z M257.5,193.8
	C292.4,187,316,174.4,316,160v-26c-14.1,10-34.9,16.8-58.5,21V193.8z M254.6,135.8c36.6-6.6,61.4-19.5,61.4-34.3v-26
	C294.4,90.8,257.2,99,218.1,101C236,109.7,249.3,121.4,254.6,135.8z"/>
</svg>
