<?xml version="1.0" encoding="utf-8"?>
<!-- Generator: Adobe Illustrator 24.1.2, SVG Export Plug-In . SVG Version: 6.00 Build 0)  -->
<svg version="1.1" xmlns="http://www.w3.org/2000/svg" xmlns:xlink="http://www.w3.org/1999/xlink" x="0px" y="0px"
	 viewBox="0 0 320 320" style="enable-background:new 0 0 320 320;" xml:space="preserve">
<style type="text/css">
	.st0{fill:#EFF501;}
	.st1{fill:#FFFFFF;}
</style>
<path class="st0" d="M105.1,197.4l95.1,54.3c-6.8,27.8,10.3,55.9,38.1,62.7c27.8,6.8,55.9-10.3,62.7-38.1
	c6.8-27.8-10.3-55.9-38.1-62.7c-4-1-8.2-1.5-12.3-1.5c-14.5,0-28.3,6.1-38.1,16.7l-94-53.5"/>
<path class="st1" d="M118.5,175.4c3-9.8,3-20.4,0-30.2l94-53.5c19.6,21.2,52.7,22.6,73.9,3c21.2-19.6,22.6-52.7,3-73.9
	s-52.7-22.6-73.9-3c-14,12.9-19.9,32.5-15.3,51l-95.1,54.1c-20.6-20-53.4-19.5-73.4,1.1s-19.5,53.4,1.1,73.4
	c20.1,19.5,52.1,19.5,72.3,0"/>
</svg>
