<?xml version="1.0" encoding="utf-8"?>
<!-- Generator: Adobe Illustrator 24.1.2, SVG Export Plug-In . SVG Version: 6.00 Build 0)  -->
<svg version="1.1" xmlns="http://www.w3.org/2000/svg" xmlns:xlink="http://www.w3.org/1999/xlink" x="0px" y="0px"
	 viewBox="0 0 320 320" style="enable-background:new 0 0 320 320;" xml:space="preserve">
<style type="text/css">
	.st0{fill:#EFF501;}
	.st1{fill:#FFFFFF;}
</style>
<path class="st0" d="M296,55.2C282.1,41.7,264.9,35,247.2,35s-35.3,6.7-48.8,20.2l-21.2,21.2c7.4,3.9,14.4,8.6,20.5,14.7
	c1.5,1.5,2.9,3.2,4.3,4.8l18.5-18.5c7.1-7.1,16.2-11.1,26.7-11.1c10.1,0,19.6,3.9,26.7,11.1c7.1,7.1,11.1,16.6,11.1,26.7
	s-3.9,19.6-11.1,26.7l-65.1,65.1c-7.1,6.7-16.6,11-26.7,11s-19.6-3.9-26.7-11.1c-7.2-7.1-11.5-16.6-11.5-26.7
	c0-10.1,3.9-19.6,11.1-26.7l2.2-1.7c-1-1.9-2.1-3.9-3.7-5.4c-4.2-4.2-9.7-6.5-15.7-6.5c-5.8,0-11.3,2.3-15.4,6.3
	c-15,26.3-11.5,60.4,10.9,82.8c13.5,13.5,31.2,20.2,48.8,20.2c17.7,0,35.3-6.7,48.8-20.2l65.1-65.1c13.9-13.9,20.6-32.2,20.2-50.4
	C315.8,84.9,309.1,68.3,296,55.2z"/>
<path class="st1" d="M118,224.2l-18.5,18.5c-7.1,6.7-16.7,11.1-26.7,11.1c-10.1,0-19.6-3.9-26.7-11.1C38.9,235.6,35,226.1,35,216
	c0-10.1,3.9-19.6,11.1-26.7l65.1-65.1c7.1-7.1,16.2-11,26.7-11s19.6,3.9,26.7,11.1c7.1,7.1,11.1,16.6,11.1,26.7
	c0,10.1-3.9,19.6-11.1,26.7l-1.7,1.7c1,1.9,2.1,3.9,3.6,5.4c4.2,4.2,9.8,6.5,15.7,6.5c5.8,0,11.3-2.3,15.4-6.3
	c15-26.3,11.5-60.4-10.9-82.8c-13.9-13.5-31.2-20.2-48.8-20.2s-35.3,6.7-48.8,20.2L24,167.2C10.5,180.7,3.7,198.3,3.7,216
	c0,17.7,6.7,35.3,20.2,48.8C37.4,278.3,55.1,285,72.8,285c17.7,0,35.3-6.7,48.8-20.2l21.2-21.2c-7.4-3.9-14.4-8.6-20.5-14.7
	C120.7,227.4,119.4,225.8,118,224.2z"/>
</svg>
