<?xml version="1.0" encoding="utf-8"?>
<!-- Generator: Adobe Illustrator 24.1.2, SVG Export Plug-In . SVG Version: 6.00 Build 0)  -->
<svg version="1.1" id="Слой_2" xmlns="http://www.w3.org/2000/svg" xmlns:xlink="http://www.w3.org/1999/xlink" x="0px" y="0px"
	 viewBox="0 0 142.5 142.5" style="enable-background:new 0 0 142.5 142.5;" xml:space="preserve">
<style type="text/css">
	.st0{fill:#0A0F19;}
	.st1{fill:#FFCD01;}
	.st2{fill:#7C7F7F;}
	.st3{fill:#E2E2E2;}
	.st4{fill:#3B3F3F;}
</style>
<g id="Слой_4">
	<path class="st0" d="M71.3,0.8c38.9,0,70.5,31.6,70.5,70.5s-31.6,70.5-70.5,70.5S0.8,110.2,0.8,71.3S32.3,0.8,71.3,0.8"/>
</g>
<g id="Слой_6">
	<g id="Слой_8">
		<path class="st1" d="M83,37.4v13.5l11.7-6.8V30.6L83,37.4z M94.2,43.8L83.5,50V37.6l10.7-6.2V43.8z"/>
		<path class="st1" d="M94.6,71.2v13.5l11.7,6.8V64.3L94.6,71.2z M105.9,90.8l-10.7-6.2V70.8l10.6-6.2L105.9,90.8z"/>
		<path class="st1" d="M71.3,30.6v13.5L83,50.9V37.4L71.3,30.6z M82.5,50l-10.7-6.2V31.4l10.7,6.2V50z"/>
		<path class="st1" d="M47.9,44.2L59.6,51l11.7-6.8V30.6L47.9,44.2z M70.9,43.8l-12.1,6.9l-10.6-6.3l22.7-13V43.8z"/>
		<path class="st1" d="M36.2,77.9v13.5l11.7-6.8V71.2L36.2,77.9z M47.4,84.5l-10.7,6.2V78.3l10.7-6.2V84.5z"/>
		<path class="st1" d="M47.9,84.7l-11.7,6.8l35,20.4V98.3L47.9,84.7z M70.9,111.1L37.2,91.5l10.7-6.2l23,13.2
			C70.9,98.5,70.9,111.1,70.9,111.1z"/>
		<path class="st1" d="M94.6,84.7L71.3,98.3v13.5l35.2-20.4L94.6,84.7z M71.6,98.5l23-13.2l10.7,6.2l-33.7,19.6V98.5z"/>
		<path class="st1" d="M36.2,64.6l-11.8,6.6l11.8,6.8l11.7-6.8L36.2,64.6z M25.3,71.2l10.9-6l10.6,6l-10.7,6.2L25.3,71.2z"/>
	</g>
	<polygon class="st2" points="118.1,44.2 71.3,71.2 47.9,57.8 24.4,44.2 71.3,17.1 94.6,30.6 83,37.4 71.3,30.6 47.9,44.2 59.5,51 
		71.3,57.8 83,51 94.6,44.2 106.5,37.4 	"/>
	<path class="st3" d="M71.3,71.2v13.5L83,77.9l23.3-13.5v27.1L83,105.1l-11.7,6.8v13.5l46.9-27.1v-54L71.3,71.2z"/>
	<polygon class="st4" points="71.3,71.2 71.3,84.7 59.5,77.9 47.9,71.2 36.2,64.6 24.4,57.8 24.4,44.2 47.9,57.8 	"/>
	<polygon class="st4" points="71.3,111.9 71.3,125.4 24.4,98.3 24.4,71.2 36.2,77.9 36.2,91.5 59.5,105.1 	"/>
</g>
</svg>
