<svg version="1.1" id="Слой_1" xmlns="http://www.w3.org/2000/svg" xmlns:xlink="http://www.w3.org/1999/xlink" x="0px" y="0px"
	 viewBox="0 0 150 80" style="enable-background:new 0 0 150 80;" xml:space="preserve">
<style type="text/css">
	.st0{fill:#009A5F;}
	.st1{fill:#0E2D39;}
</style>
<g>
	<path class="st0" d="M86.7,53.7c-2.6-0.2-5.3-1.4-5.3-1.4l1.2-3.1c0,0,1.4,0.7,1.9,0.8c1,0.2,2,0.3,3,0.2c0.9-0.1,1.5-0.6,1.7-1.4
		c0.2-0.9-0.2-1.5-1-2c-1-0.7-2.2-0.9-3.4-1.4c-2.8-1.3-4-3.7-3.1-6.4c0.6-1.6,1.7-2.5,3.3-3c2.6-0.8,5.1-0.5,7.6,0.5
		c0.1,0,0.3,0.2,0.3,0.2l-1.3,2.9c0,0-2.9-0.7-3.9-0.6c-0.9,0.1-1.6,0.6-1.8,1.5c-0.2,0.9,0.3,1.5,1.1,2c0.6,0.4,1.3,0.6,2,0.9
		c0.8,0.4,1.6,0.6,2.4,1.1c3.3,2,3.2,6.8-0.3,8.7C89.8,53.6,88.3,53.8,86.7,53.7z M59.6,53.7c-4.4,0.1-7.6-3-7.9-7.4
		c-0.1-1.7-0.2-3.4,0.3-5.1c1.6-5.5,6.9-6.9,11.2-5.1c0.2,0.1,0.7,0.3,0.7,0.3l-1.5,3.1c0,0-0.7-0.1-1.3-0.3
		c-2.4-0.7-4.5,0.9-4.9,3.7c-0.2,1.2-0.2,2.5,0.1,3.8c0.8,2.8,2.7,4,5.5,3c0.3-0.1,0.6-0.1,0.6-0.1l1.2,3.3
		C63.8,52.9,61.5,53.7,59.6,53.7L59.6,53.7z"/>
	<path class="st1" d="M31.7,27.9c-1-0.1-4.5,0-4.5,0v6.5c0,1.5,0,1.5-1.5,1.3c-4-0.6-7.4,1.5-8.6,5.1c-0.8,2.4-0.8,4.9-0.2,7.3
		c0.8,2.9,2.7,4.8,5.7,5.4c2.6,0.6,5.2,0.3,7.8-0.4c0.9-0.3,1.3-0.7,1.3-1.7C31.6,47.6,31.7,31.1,31.7,27.9L31.7,27.9z M26.2,50.2
		c-2.7,0.4-4.4-0.7-5.1-3.3c-0.5-1.8-0.5-3.7,0.3-5.4c0.9-2.1,3-3.1,5.2-2.4c0.6,0.2,0.6,0.6,0.6,1.1v4.5c0,1.4,0,2.8,0,4.3
		C27.2,49.7,27,50.1,26.2,50.2z M15.6,46.5c0-1.7,0-3.5,0-5.2c0-0.3-0.1-0.7-0.1-1c-0.3-2.5-1.6-4-4-4.6C9,35.1,6.5,35.3,4.1,36
		c-1.1,0.3-1.8,0.8-1.8,0.8l1.2,2.7c0,0,0.3-0.1,0.5-0.1c1.7-0.6,3.6-1,5.4-0.6c1.2,0.3,1.8,1.1,1.9,2.3c0.1,0.7-0.1,1-0.9,1
		c-2,0.1-4,0.4-5.9,1.1c-2.5,1-3.6,2.6-3.5,5.2c0.1,2.3,1.3,4,3.8,4.7c3.4,1,6.7,0.7,10-0.3c0.6-0.2,0.8-0.5,0.8-1.1
		C15.6,50,15.6,48.2,15.6,46.5L15.6,46.5z M11.4,50.6c-1.7,0.2-4.8,0-5.7-1.1c-1-1.2-0.5-3.1,1-3.8c1.3-0.6,3.6-0.8,4.7-0.7
		C11.4,45.7,11.4,48.7,11.4,50.6z"/>
	<path class="st0" d="M79.5,46.5c0-1.7,0-3.5,0-5.2c0-0.3,0-0.7-0.1-1c-0.3-2.5-1.6-4-4-4.6c-2.5-0.6-4.9-0.4-7.3,0.3
		c-0.6,0.2-1.3,0.4-1.8,0.8l1.2,2.7c0,0,0.3-0.1,0.5-0.1c1.7-0.6,3.6-1,5.4-0.6c1.2,0.3,1.8,1.1,1.9,2.3c0.1,0.7-0.1,1-0.9,1
		c-2,0.1-4,0.4-5.9,1.1c-2.5,1-3.6,2.6-3.5,5.2c0.1,2.3,1.3,4,3.8,4.7c3.4,1,6.7,0.7,10-0.3c0.6-0.2,0.8-0.5,0.8-1.1
		C79.5,51.8,79.5,46.5,79.5,46.5z M75.3,50.6c-1.8,0.2-4.8,0-5.7-1.1c-1-1.2-0.5-3.1,1-3.8c1.3-0.6,3.6-0.8,4.7-0.7
		C75.3,45.7,75.3,48.7,75.3,50.6z"/>
	<path class="st1" d="M45.6,35.9c0,0.1-0.1,0.1-0.1,0.3c-0.8,2.8-1.8,6.1-2.6,8.9c-0.4,1.3-0.8,2.6-1.2,4.2c-1-3.4-3-10.3-3.9-13.3
		h-4.8c0,0.1,0.1,0.3,0.1,0.4c1.7,4.6,6.3,17.1,6.3,17.1H44c0,0,4.6-12.4,6.4-17.2c0.1-0.1,0.1-0.2,0.1-0.3L45.6,35.9L45.6,35.9
		L45.6,35.9z"/>
	<path class="st0" d="M109.7,40.6c0-2-1.1-3.5-2.9-4.4c-2-1-4.2-0.9-6.2-0.3c-0.9,0.3-1,0-1-0.8c0-1.3-0.1-6.3-0.1-7.4h-4.4V28
		c0,7.9,0,17.4,0,25.3c0,0.1,0,0.3,0,0.4h4.5c0-0.1,0-0.2,0-0.4c0-2.3,0-4.5,0-6.8v-5.9c0-0.4-0.1-0.8,0.4-1.1
		c1.9-1.4,5-0.2,5.3,2.1c0.3,2.9,0.2,11.6,0.3,12h4.2c0-0.1,0-0.2,0-0.4C109.7,49.3,109.7,44.5,109.7,40.6L109.7,40.6z"/>
	<path class="st1" d="M146.5,39.9h-7.3l-1.9-3.8H149L146.5,39.9z M142.4,46.1h-0.8l-1.3-3.8h4.6L142.4,46.1z"/>
	<path class="st0" d="M133.1,36l7.3,17.4h5.2L133.1,26l-12.4,27.4l5.2,0L133.1,36z"/>
	<path class="st1" d="M134.7,39.9h-14.9l-2.8-3.8h16.1L134.7,39.9z M137.3,46.1h-13.3l-2.8-3.8h14.4L137.3,46.1z"/>
</g>
</svg>
