<?xml version="1.0" encoding="utf-8"?>
<!-- Generator: Adobe Illustrator 22.0.1, SVG Export Plug-In . SVG Version: 6.00 Build 0)  -->
<svg version="1.1" id="Слой_1" xmlns="http://www.w3.org/2000/svg" xmlns:xlink="http://www.w3.org/1999/xlink" x="0px" y="0px"
	 viewBox="0 0 281 150" style="enable-background:new 0 0 281 150;" xml:space="preserve">
<style type="text/css">
	.st0{fill:#009A5F;}
	.st1{fill:#FFFFFF;}
</style>
<path class="st0" d="M147.1,98.4c-4.4-0.3-8.9-2.4-8.9-2.4l2-5.2c0,0,2.3,1.1,3.2,1.3c1.7,0.4,3.4,0.6,5.1,0.3
	c1.4-0.2,2.6-1,2.9-2.4c0.4-1.5-0.3-2.6-1.6-3.4c-1.7-1.1-3.8-1.6-5.6-2.4c-4.8-2.2-6.8-6.2-5.3-10.8c0.9-2.7,2.9-4.3,5.5-5.1
	c4.4-1.4,8.6-0.8,12.8,0.8c0.2,0.1,0.6,0.3,0.6,0.3l-2.1,4.8c0,0-4.9-1.1-6.5-1c-1.6,0.1-2.7,0.9-3.1,2.5c-0.3,1.5,0.6,2.6,1.8,3.3
	c1.1,0.6,2.2,1,3.3,1.4c1.4,0.6,2.8,1.1,4,1.8c5.6,3.4,5.4,11.5-0.4,14.6C152.4,98.2,149.8,98.6,147.1,98.4z M101.5,98.3
	c-7.4,0.1-12.8-5.1-13.3-12.5c-0.2-2.9-0.3-5.8,0.6-8.6c2.6-9.3,11.6-11.6,18.9-8.5c0.3,0.1,1.2,0.6,1.2,0.6l-2.5,5.2
	c0,0-1.1-0.3-2.2-0.5c-4.1-1.1-7.5,1.4-8.3,6.3c-0.3,2.1-0.3,4.2,0.2,6.3c1.3,4.8,4.6,6.7,9.3,5c0.4-0.2,1-0.2,1-0.2l2,5.6
	C108.5,97,104.7,98.4,101.5,98.3L101.5,98.3z"/>
<path class="st1" d="M54.4,54.9c-1.7-0.1-7.6,0-7.6,0v10.9c0,2.6,0,2.6-2.6,2.2c-6.7-0.9-12.5,2.5-14.6,8.6c-1.4,4-1.4,8.2-0.3,12.3
	c1.4,4.9,4.6,8,9.6,9.1c4.5,1,8.8,0.5,13.2-0.7c1.6-0.4,2.2-1.1,2.2-2.9C54.3,88,54.4,60.2,54.4,54.9L54.4,54.9z M45.2,92.5
	c-4.5,0.7-7.5-1.1-8.5-5.5c-0.8-3.1-0.8-6.2,0.5-9.1c1.5-3.5,5.1-5.2,8.8-4.1c1,0.3,1,1,1,1.8v7.6c0,2.4,0,4.8,0,7.2
	C46.9,91.7,46.6,92.2,45.2,92.5z M27.3,86.1c0-2.9,0-5.8,0-8.7c0-0.6-0.1-1.1-0.2-1.7c-0.5-4.2-2.7-6.7-6.8-7.7
	C16.1,67,12,67.4,7.9,68.5c-1.9,0.5-3.1,1.3-3.1,1.3l2,4.6c0,0,0.5-0.1,0.9-0.2c2.9-1,6-1.7,9.1-1c2.1,0.5,3.1,1.8,3.2,3.9
	c0.1,1.2-0.2,1.7-1.6,1.7c-3.4,0.2-6.8,0.6-9.9,1.9c-4.2,1.7-6.1,4.5-5.9,8.8c0.1,3.9,2.2,6.7,6.4,8c5.6,1.7,11.3,1.2,16.9-0.6
	c0.9-0.3,1.3-0.8,1.3-1.9C27.2,92.1,27.3,89.1,27.3,86.1L27.3,86.1z M20.2,93.1c-2.9,0.4-8.2,0-9.6-1.8c-1.6-2-0.8-5.3,1.6-6.5
	c2.2-1.1,6.1-1.3,7.9-1.2C20.2,84.8,20.3,90,20.2,93.1z"/>
<path class="st0" d="M135,86.1c0-2.9,0-5.8,0-8.7c0-0.6-0.1-1.1-0.2-1.7c-0.5-4.2-2.7-6.7-6.8-7.7c-4.2-1.1-8.3-0.6-12.4,0.4
	c-1.1,0.3-2.1,0.7-3.1,1.3l2,4.6c0,0,0.5-0.1,0.9-0.2c2.9-1,6-1.7,9.1-1c2.1,0.5,3.1,1.8,3.2,3.9c0.1,1.2-0.2,1.7-1.6,1.7
	c-3.4,0.2-6.8,0.6-9.9,1.9c-4.2,1.7-6.1,4.5-5.9,8.8c0.1,3.9,2.2,6.7,6.4,8c5.7,1.7,11.3,1.2,16.9-0.6c0.9-0.3,1.3-0.8,1.3-1.9
	C135,95,135,86.1,135,86.1z M127.9,93.1c-3,0.4-8.2,0-9.6-1.8c-1.6-2-0.9-5.3,1.6-6.5c2.2-1.1,6.1-1.3,7.9-1.2
	C127.9,84.8,128,90,127.9,93.1z"/>
<path class="st1" d="M77.9,68.3c0,0.1-0.1,0.3-0.1,0.4c-1.3,4.7-3.1,10.3-4.5,15c-0.6,2.2-1.3,4.4-2,7.1c-1.7-5.6-5-17.3-6.6-22.5
	h-8.1c0,0.2,0.1,0.5,0.2,0.7c2.9,7.8,10.6,28.8,10.6,28.8h7.9c0,0,7.8-20.9,10.8-28.9c0.1-0.2,0.1-0.4,0.2-0.6L77.9,68.3L77.9,68.3
	L77.9,68.3z"/>
<path class="st0" d="M185.9,76.2c-0.1-3.4-1.8-5.9-4.9-7.4c-3.4-1.6-7-1.6-10.5-0.5c-1.5,0.5-1.7,0-1.6-1.3c0-2.2-0.2-10.7-0.1-12.4
	h-7.5V55c0,13.3,0,29.3,0,42.6c0,0.2,0,0.4,0,0.6h7.6c0-0.2,0-0.3,0-0.6c0-3.8,0-7.6,0-11.4v-10c0-0.7-0.1-1.4,0.6-1.9
	c3.2-2.3,8.5-0.3,8.9,3.6c0.6,4.8,0.3,19.5,0.6,20.3h7c0-0.2,0-0.4,0-0.6C185.9,90.9,186,82.9,185.9,76.2L185.9,76.2z"/>
<path class="st1" d="M270,75h-19.4l-5-10.1h31L270,75z M259,91.4h-2.2l-3.5-10.1h12.3L259,91.4z"/>
<path class="st0" d="M234.5,64.7l19.4,46h13.9l-33.2-72.5l-32.9,72.7l13.7-0.1L234.5,64.7z"/>
<path class="st1" d="M238.7,75h-39.4l-7.5-10.1h42.6L238.7,75z M245.7,91.4h-35.2l-7.4-10.1h38.2L245.7,91.4z"/>
</svg>
