 
<svg version="1.1" xmlns="http://www.w3.org/2000/svg" xmlns:xlink="http://www.w3.org/1999/xlink" x="0px" y="0px"
	 viewBox="0 0 315 67.5" style="enable-background:new 0 0 315 67.5;" xml:space="preserve">
<style type="text/css">
	.st0{fill:#FFCE00;}
	.st1{fill:#B7991A;}
	.st2{fill:#7F6700;}
	.st3{fill:#000;}
	.st4{opacity:0.56;fill:url(#SVGID_1_);enable-background:new    ;}
</style>
<path class="st0" d="M67.2,34v7.2l6.2,3.6V30.5L67.2,34z M73.2,44.4l-5.7-3.3v-7.2l5.7-3.3V44.4z"/>
<path class="st0" d="M61,16.1v7.2l6.2-3.6v-7.2L61,16.1z M67,19.5l-5.7,3.3v-6.6l5.7-3.3V19.5z"/>
<path class="st0" d="M54.8,12.5v7.2l6.2,3.6v-7.2L54.8,12.5z M60.8,22.8l-5.7-3.3v-6.6l5.7,3.3V22.8z"/>
<path class="st0" d="M42.4,19.7l6.2,3.6l6.2-3.6v-7.2L42.4,19.7z M54.6,19.5l-6.2,3.6l-5.7-3.3l11.9-6.9V19.5z"/>
<path class="st0" d="M36.2,37.6v7.2l6.2-3.6V34L36.2,37.6z M42.1,41.1l-5.7,3.3v-6.6l5.7-3.3V41.1z"/>
<path class="st0" d="M42.4,41.2l-6.2,3.6l18.7,10.8v-7.2L42.4,41.2z M54.6,55.2L36.7,44.8l5.7-3.3l12.2,7
	C54.6,48.5,54.6,55.2,54.6,55.2z"/>
<path class="st0" d="M67.2,41.2l-12.4,7.2v7.2l18.7-10.8L67.2,41.2z M55,48.5l12.2-7l5.7,3.3L55,55.2V48.5z"/>
<path class="st0" d="M36.2,30.5L29.9,34l6.2,3.6l6.2-3.6L36.2,30.5z M30.4,34l5.7-3.3l5.7,3.3l-5.7,3.3L30.4,34z"/>
<polygon class="st1" points="79.7,19.7 54.8,34 42.4,26.9 29.9,19.7 54.8,5.3 67.2,12.5 61,16.1 54.8,12.5 42.4,19.7 48.6,23.3 
	54.8,26.9 61,23.3 67.2,19.7 73.5,16.1 "/>
<path class="st0" d="M54.8,34v7.2l6.2-3.6l12.4-7.2v14.4L61,52l-6.2,3.6v7.2l24.9-14.4V19.7L54.8,34z"/>
<polygon class="st2" points="54.8,34 54.8,41.2 48.6,37.6 42.4,34 36.2,30.5 29.9,26.9 29.9,19.7 42.4,26.9 "/>
<polygon class="st2" points="54.8,55.6 54.8,62.8 29.9,48.4 29.9,34 36.2,37.6 36.2,44.8 48.6,52 "/>
<path class="st0" d="M91.3,43.8c1.6,1,4,1.8,6.5,1.8c3.7,0,5.9-2,5.9-4.8c0-2.6-1.5-4.1-5.3-5.6c-4.6-1.6-7.4-4-7.4-8
	c0-4.4,3.6-7.6,9.1-7.6c2.9,0,5,0.7,6.2,1.4l-1,3c-0.9-0.5-2.8-1.3-5.3-1.3c-3.8,0-5.3,2.3-5.3,4.2c0,2.6,1.7,3.9,5.6,5.4
	c4.8,1.8,7.2,4.1,7.2,8.3c0,4.3-3.2,8.1-9.8,8.1c-2.7,0-5.7-0.8-7.2-1.8L91.3,43.8z"/>
<path class="st0" d="M112.4,20.1h15.1v3H116v9.3h10.6v3H116v12.7h-3.6V20.1z"/>
<path class="st0" d="M156.7,33.9c0,9.7-5.9,14.8-13.1,14.8c-7.4,0-12.6-5.8-12.6-14.3c0-8.9,5.5-14.8,13.1-14.8
	C151.8,19.7,156.7,25.6,156.7,33.9z M134.9,34.4c0,6,3.3,11.4,9,11.4c5.8,0,9-5.3,9-11.7c0-5.6-2.9-11.4-9-11.4
	C137.9,22.7,134.9,28.2,134.9,34.4z"/>
<path class="st0" d="M161.4,19.9h7c3.9,0,6.4,0.7,8.1,2.3c1.4,1.3,2.2,3.2,2.2,5.3c0,3.7-2.3,6.2-5.3,7.2v0.1
	c2.2,0.8,3.3,2.8,4.1,5.7c1.1,3.9,2.2,7.7,2.2,7.7H176c0,0-0.8-3.1-1.9-6.7c-1.1-3.8-2.3-5.3-5.6-5.5h-3.4v12.2h-3.6V19.9H161.4z
	 M165.1,33.3h3.7c3.9,0,6.3-2.1,6.3-5.3c0-3.6-2.6-5.2-6.5-5.3H165v10.6H165.1z"/>
<path class="st3" d="M213.2,19.9h7c3.9,0,6.4,0.7,8.1,2.3c1.4,1.3,2.2,3.2,2.2,5.3c0,3.7-2.3,6.2-5.3,7.2v0.1
	c2.2,0.8,3.3,2.8,4.1,5.7c1.1,3.9,2.2,7.7,2.2,7.7h-3.8c0,0-0.8-3.1-1.9-6.7c-1.1-3.8-2.3-5.3-5.6-5.5h-3.4v12.2h-3.6V19.9z
	 M216.9,33.3h3.7c3.9,0,6.3-2.1,6.3-5.3c0-3.6-2.6-5.2-6.5-5.3h-3.6v10.6H216.9z"/>
<path class="st0" d="M182.9,46.1c0-1.5,1-2.6,2.5-2.6s2.5,1.1,2.5,2.6s-1,2.6-2.5,2.6C183.9,48.7,182.9,47.6,182.9,46.1z"/>
<path class="st3" d="M197.9,23.2h-8.6v-3.1h20.8v3.1h-8.6v25h-3.7v-25H197.9z"/>
<path class="st3" d="M240.4,39.4l-2.9,8.8h-3.8l9.6-28.1h4.4l9.6,28.1h-3.9l-3-8.8H240.4z M249.7,36.6l-2.8-8.1
	c-0.6-1.8-1-3.5-1.5-5.1h-0.1c-0.4,1.7-0.9,3.4-1.4,5.1l-2.8,8.1H249.7z"/>
<path class="st3" d="M261.4,19.9c0,0,4.8,0,7.7,0c5.2,0,8.9,1.2,11.4,3.5s4,5.5,4,10.1s-1.4,8.3-4,10.9c-2.6,2.6-7,4-12.4,4h-6.6
	V19.9H261.4z M265,45.7h3.9c8.5-0.2,11.7-4.5,11.7-12.1c0-6.6-3.7-11.1-11.3-11.1H265V45.7z"/>
<path class="st3" d="M303.7,35.1h-10.9v10.1H305v3h-15.8V20.1h15.2v3h-11.6V32h10.9V35.1z"/>
<linearGradient id="SVGID_1_" gradientUnits="userSpaceOnUse" x1="6.3" y1="14.4" x2="54.8" y2="14.4" gradientTransform="matrix(1 0 0 -1 0 70)">
	<stop  offset="0" style="stop-color:#000000;stop-opacity:0.3"/>
	<stop  offset="0.9527" style="stop-color:#000000"/>
</linearGradient>
<polygon class="st4" points="54.8,62.8 6.3,52 29.9,48.4 "/>
</svg>
