<svg version="1.1" id="Слой_3" xmlns="http://www.w3.org/2000/svg" xmlns:xlink="http://www.w3.org/1999/xlink" x="0px" y="0px" viewBox="0 0 290 290" style="enable-background:new 0 0 290 290;" xml:space="preserve">
 <style>
 .st12{fill: #ffffff9c;}
 </style>
<g>
	<path class="st12" d="M149.7,247c0.7,0,1.4-0.1,2.1-0.1c24.7-1.6,47.7-12,65.4-29.7c17.7-17.7,28.1-40.7,29.7-65.4
		c0-0.7,0.1-1.4,0.1-2.1h-2.1h-58.1c0.6-3.1,1.1-6.2,1.5-9.4h56.6h2.1c0-0.7-0.1-1.4-0.1-2.1c-1.6-24.7-12-47.7-29.7-65.4
		c-17.7-17.7-40.7-28.1-65.4-29.7c-0.7,0-1.4-0.1-2.1-0.1v2.1v10.3l-1.8-1.6h-2.9h-2.9l-1.9,1.8V45.1V43c-0.7,0-1.4,0.1-2.1,0.1
		c-24.7,1.6-47.7,12-65.4,29.7c-17.7,17.7-28.1,40.7-29.7,65.4c0,0.7-0.1,1.4-0.1,2.1h2.1H101c0.4,3.2,0.9,6.4,1.5,9.4H45.1H43
		c0,0.7,0.1,1.4,0.1,2.1c1.6,24.7,12,47.7,29.7,65.4c17.7,17.7,40.7,28.1,65.4,29.7c0.7,0,1.4,0.1,2.1,0.1v-2.1v-30.5l3.3,12.9
		l1.4,1l1.4-1l3.2-12.9v30.5V247z M110.9,157l-3.6,3.5c-0.8-2.7-1.5-5.6-2.2-8.7h11l-2,2h-4C110.4,154.9,110.6,155.9,110.9,157z
		 M113.8,166.3c6.2,17.1,15.6,27.7,22.4,33.6v-46.2h-9.1l2.1-2h9v57c-4.3-3.4-10.1-8.9-15.8-16.8c-4.1-5.7-8.4-13.1-12-22.5
		L113.8,166.3z M102.2,112.3c0-0.4,0-0.8,0.1-1.1c0.9,0.1,1.7,0.1,2.6,0.1c3.4,0,6.8-0.9,9.7-2.4l5.3,5c-2.6,1.7-5.9,2.7-9.3,2.7
		c-1,0-2.1-0.1-3.1-0.3c-0.1,0.6-0.1,1.3-0.1,2c-0.3,6.4-0.2,12.3,0.2,17.8h24.5l-2,2h-27.1C102.1,130.3,101.8,121.7,102.2,112.3z
		 M186.4,138.2h-27.1l-2-2h24.5c0.4-5.5,0.5-11.5,0.2-17.8c0-0.7-0.1-1.3-0.1-2c-1,0.2-2,0.3-3.1,0.3c-3.5,0-6.7-1-9.4-2.6l5.3-5
		c2.9,1.5,6.3,2.3,9.8,2.3c0.9,0,1.7-0.1,2.6-0.1c0,0.4,0,0.7,0.1,1.1v0C187.5,121.7,187.2,130.3,186.4,138.2z M175.2,153.8l-2-2h11
		c-0.6,3-1.4,5.9-2.2,8.6l-3.6-3.5c0.3-1,0.5-2.1,0.8-3.1H175.2z M162.2,153.8h-8.4v45.5c6.7-6,15.7-16.5,21.7-33l3.4,3.2
		c-3.6,9.3-7.9,16.7-11.9,22.4c-5.4,7.5-10.9,12.9-15.2,16.4v-56.5h8.3L162.2,153.8z M150.6,149.7l0-6.9l7.3,6.9H150.6z
		 M151.8,130.9v-0.3l2-1.9v4.1L151.8,130.9z M163,105.8c-0.2-0.6-0.3-1.1-0.4-1.7h-8.8v10.7l-2,1.9V96.7h12.9
		c0.4,1.9,1.1,3.7,2.1,5.3L163,105.8z M138.2,117.5l-2-1.9v-11.4h-9.5c-0.1,0.6-0.2,1.1-0.4,1.7l-3.9-3.8c1-1.6,1.8-3.4,2.2-5.2
		h13.6V117.5z M137.7,130.7l-1.5,1.5v-2.9L137.7,130.7z M139.5,149.7h-8.1l8.1-7.6L139.5,149.7z M244.8,151.8
		c-3.4,49.7-43.2,89.6-93,93v-33.7c4.5-3.5,10.7-9.2,16.9-17.8c4.8-6.7,8.8-14.1,11.9-22.1l6,5.7l13.7,9.8l1.7-0.3l0.3-1.7
		l-9.8-13.7l-8.9-8.7c0.1-0.3,0.2-0.5,0.2-0.8c0.9-3.1,1.7-6.3,2.4-9.6H244.8z M184.6,149.7H171l-9.6-9.4h24.7
		C185.7,143.6,185.2,146.7,184.6,149.7z M244.8,138.2h-56.2c0.9-8.3,1.1-17,0.7-26c0-0.8-0.1-1.6-0.2-2.4l-0.1-1.2l-1.1,0.2
		c-1.1,0.2-2.2,0.3-3.4,0.3c-2.9,0-5.7-0.6-8.1-1.7l2.5-2.3l1.6,1.6l0.4-0.3l-0.5-1.8l3.4-3.4l0.8-5l10.4-10.4l4.2,0.1l3.4-3.4
		l-0.2-4.2l-2-2l-2-2l-4.2-0.2l-3.4,3.4l0.1,4.2L180.2,92l-5,0.8l-3.4,3.4l-1.8-0.5l-0.3,0.4l1.6,1.6l-2.9,2.8
		c-0.9-1.5-1.5-3.2-1.7-5l-0.1-0.9h-14.7v-5.3h0.7l0.1-0.5l-0.8-0.5V45.2C201.6,48.6,241.4,88.4,244.8,138.2z M193.8,79.5l2.2-2.2
		l2.3,0.9l0.9,2.3l-2.2,2.2l-2.4-0.8L193.8,79.5z M148.1,64.3l1.7-1.6v18.5l-1.7-2.3V64.3z M145.1,56.4l2.3,1l0,3.1l-2.3,1.1
		l-2.3-1.1l0-3.1L145.1,56.4z M142.1,64.3v14.6l-1.8,2.4V62.6L142.1,64.3z M45.2,138.2c3.4-49.7,43.2-89.6,93-93v43.1l-0.7,0.4
		l0.1,0.5h0.6v5.3h-15.4l-0.1,0.9c-0.2,1.7-0.9,3.4-1.8,4.9l-2.8-2.8l1.6-1.6l-0.3-0.4l-1.8,0.5l-3.4-3.4l-5-0.8L98.7,81.6l0.1-4.2
		L95.4,74l-4.2,0.2l-2,2l-2,2l-0.2,4.2l3.4,3.4l4.2-0.1l10.4,10.4l0.8,5l3.4,3.4l-0.5,1.8l0.4,0.3l1.6-1.6l2.4,2.3
		c-2.5,1.1-5.2,1.8-8,1.8c-1.1,0-2.3-0.1-3.4-0.3l-1.1-0.2l-0.1,1.2c-0.1,0.8-0.1,1.6-0.2,2.4c-0.4,9-0.2,17.7,0.7,26H45.2z
		 M95.6,79.5l-0.8,2.4l-2.4,0.8l-2.2-2.2l0.9-2.3l2.3-0.9L95.6,79.5z M103.2,140.3h24.7l-9.6,9.4h-13.6
		C104.1,146.7,103.6,143.6,103.2,140.3z M45.2,151.8h57.7c0.7,3.3,1.5,6.5,2.4,9.6c0.1,0.3,0.2,0.5,0.2,0.8l-8.9,8.7l-9.8,13.7
		l0.3,1.7l1.7,0.3l13.7-9.8l6-5.7c3.2,8,7.2,15.4,11.9,22.1c6.5,9,13,14.9,17.6,18.3v33.2C88.4,241.4,48.6,201.6,45.2,151.8z"></path>
	<path class="st12" d="M145,4.5C67.4,4.5,4.5,67.4,4.5,145S67.4,285.5,145,285.5S285.5,222.6,285.5,145S222.6,4.5,145,4.5z
		 M145,280.7C70.1,280.7,9.3,219.9,9.3,145S70.1,9.3,145,9.3S280.7,70.1,280.7,145S219.9,280.7,145,280.7z"></path>
	<path class="st12" d="M49.4,84.8c0.5-1,0.7-2.6,0.4-3.6c-0.2-0.6-0.6-1.1-1-1.5c-0.1-0.1-0.2-0.2-0.3-0.3c-0.1-0.1-0.2-0.1-0.3-0.2
		c-0.2-0.1-0.3-0.2-0.5-0.3c-0.1-0.1-0.2-0.1-0.3-0.2c-0.1-0.1-0.2-0.1-0.3-0.2c-0.2-0.1-0.4-0.2-0.7-0.3c-0.2-0.1-0.3-0.1-0.4-0.2
		c-1-0.3-2-0.4-2.8-0.3c-0.1,0-0.2,0-0.3,0.1c-0.9-2.4-3-3.5-5.3-4.1c-0.7-0.2-2.1,0.3-2.6,0.9c-2.1,2.9-4,5.9-6,9
		c5.3,3.2,10.3,6.3,15.5,9.5C46.2,90.3,47.9,87.7,49.4,84.8z M32.3,82.9c1.3-2,2.4-3.8,3.6-5.7c1-1.5,2.1-0.7,3.1,0
		c1,0.6,2,1.4,1.1,2.8c-1.1,1.8-2.2,3.7-3.4,5.6C35.3,84.7,33.8,83.9,32.3,82.9z M38.7,86.8c1.2-2,2.3-3.8,3.6-5.6
		c1-1.4,1.8-1.4,3.7-0.2c1.3,0.8,2,1.8,1.1,3.3c-1.1,1.8-2.2,3.6-3.4,5.6C41.9,88.8,40.4,87.9,38.7,86.8z"></path>
	<path class="st12" d="M264.1,175.4c-1.6-0.7-3.2-1.4-5.1-0.3c-0.4-0.5-0.7-0.9-1.1-1.3c-2.1-2.1-5.8-2.1-6.8,0.1
		c-0.6,1.4-0.6,3-0.9,4.5c-0.1,0.4-0.1,0.9-0.4,1.2c-3.5,4.2-2.4,7.8,2.7,9.2c0.1,0,0.2,0.1,0.3,0.1c6.1,2.2,6.3-0.2,7.4-4.4
		c0.7-2.5-0.2-3.9-2.7-4.6c-1.4-0.4-2.8-0.7-4.2-1.2c-0.5-0.2-1.2-1.1-1.1-1.6c0.1-0.8,0.5-2,1.1-2.3c1.5-0.8,3.6,0.8,3.7,2.5
		c0,0.4,0.5,1,0.9,1.2c0.2,0.1,1-0.3,1.1-0.6c0.8-1.8,2.1-1,3.2-0.7c1.4,0.4,1.1,1.4,0.9,2.4c-0.5,2-1,4.1-1.7,6
		c-0.6,1.6,0.2,1.9,1.7,1.9c0.8-2.9,1.7-5.8,2.4-8.7C265.9,177.4,265.5,176.1,264.1,175.4z M252.6,181.1c1.6,0.4,3.1,0.8,4.7,1.3
		c0.9,0.3,1.3,0.8,0.9,1.9c-0.3,0.7-0.3,1.5-0.7,2.1c-0.3,0.5-0.8,0.8-1.2,1.2c-2-0.6-3.8-1.1-5.6-1.7c-0.4-0.1-0.6-0.9-0.6-1.4
		c0-0.7,0.3-1.5,0.5-2.2C251,181.2,251.6,180.8,252.6,181.1z"></path>
	<path class="st12" d="M109.1,252.2c-0.6-0.2-1.3-0.1-1.9-0.2c-0.4,0-0.8,0-1.1-0.2c-1.5-0.8-2.9-1.8-4.5-2.4c-2-0.8-3.4-0.1-4.3,1.9
		c-0.7,1.6-1.3,3.2-1.9,4.9c-0.8,2.3-0.1,3.6,2.2,4.6c0.9,0.4,1.7,0.7,2.6,1c2.2,0.8,3.5,0.2,4.5-2c0.6-1.4,1.2-2.9,1.7-4.4
		c0.4-1.1,1.1-1.5,2.3-1c1.8,0.7,2,1.1,1.4,3c-0.6,1.9-1.9,2.1-3.6,1.6c-0.2,0.6-0.4,1.1-0.5,1.6c2.2,1.4,2.3,1.7,1.2,3.8
		c-0.9,1.8-2.1,0.7-3.1,0.3c-2.2-0.8-4.4-1.6-6.7-2.5c-0.3,0.7-0.4,1.2-0.7,2c3,1.1,5.8,2.2,8.7,3.2c1.9,0.6,3.2,0,3.9-1.9
		c0.5-1.3,0.6-2.8,0.9-4.2c-0.2,0-0.3-0.1-0.5-0.1c0.1-0.1,0.2-0.3,0.4-0.3c2.2-1.1,2.9-3.1,2.8-5.2
		C112.8,253.3,110.8,252.8,109.1,252.2z M104.2,254.4c-0.6,1.4-1.1,2.8-1.6,4.2c-0.4,1-1.1,1.3-2.1,0.9c-0.7-0.3-1.4-0.5-2.1-0.9
		c-0.5-0.3-0.7-0.8-1.1-1.2c0.8-2,1.4-3.8,2.2-5.4c0.2-0.4,1.1-0.6,1.6-0.5c0.7,0,1.3,0.4,2,0.7
		C104.4,252.6,104.7,253.3,104.2,254.4z"></path>
	<path class="st12" d="M157.8,28.1c2,0.3,3.9,0.5,5.7,0.9c2.2,0.4,2.5,0.7,2.3,3.1c-0.1,1.3-0.3,2.6-0.5,4c0.9,0.2,1.6,0.3,2.5,0.5
		c0-2.9,1.7-5.5-0.1-8.2c2-1.2,1.8-3.2,2.1-5.1c0.6-3-0.4-4.6-3.4-5.2c-3-0.6-6.1-1-9.3-1.5c-0.9,5.9-1.8,11.8-2.8,17.8
		c0.8,0.1,1.6,0.3,2.4,0.4C157.1,32.4,157.5,30.2,157.8,28.1z M159.2,19.3c2.4,0.4,4.7,0.7,6.9,1.3c0.5,0.1,0.9,1,1.2,1.6
		c0.2,0.4,0,1-0.1,1.6c-0.4,2.8-0.9,3.2-3.8,2.7c-1.7-0.3-3.4-0.5-5.2-0.8C158.5,23.5,158.8,21.5,159.2,19.3z"></path>
	<path class="st12" d="M85.9,40.6c1.7-0.7,3.3-1.5,5-2c0.6-0.2,1.6-0.3,2.1,0.1c2.2,1.7,2,4-0.4,5.4c-0.7,0.4-1.3,0.7-2,1
		c-3.3,1.7-3.4,1.6-5.4-1.4c-0.1-0.1-0.2-0.1-0.4-0.2c-0.6,0.3-1.2,0.7-1.8,1c1.6,3.7,3.4,4.9,6.1,3.9c2.3-0.9,4.4-2.1,6.5-3.4
		c1.8-1.1,2.1-2.6,1.4-4.6c-0.3-0.8-0.7-1.6-1.1-2.3c-1.4-2.3-2.8-2.8-5.3-1.9c-1.6,0.6-3.2,1.3-4.8,2c-2.1,0.9-2.5,0.7-3.5-1.1
		c-0.9-1.9-0.7-2.5,1.2-3.7c0.7-0.4,1.4-0.8,2.2-1.1c3-1.5,3-1.5,5,1.1c0.6-0.3,1.3-0.7,1.9-1c-1-2.7-2.3-4.1-4.2-3.5
		c-2.9,1-5.6,2.6-8.4,4.1c-0.3,0.2-0.6,0.6-0.6,1c-0.5,2.5,0.5,4.5,2.1,6.2C82.5,41.6,84.3,41.2,85.9,40.6z"></path>
	<path class="st12" d="M219.8,63.7c2,1.4,3.7,1.1,5.6-0.6c1.2-1.1,2.3-2.4,3.5-3.7c-1.9-1.7-3.7-3.2-5.6-4.8c-0.5,0.6-1,1.1-1.5,1.7
		c1.2,1.1,2.4,2.1,3.6,3.2c-0.3,0.4-0.6,0.7-0.8,1c-1.7,1.9-2.7,2-4.7,0.5c-1-0.8-2.1-1.7-3-2.6c-1.4-1.4-1.6-2.6-0.3-4.1
		c1.7-2.1,3.5-4.1,5.2-6.1c1.1-1.3,2.4-1.3,3.7-0.3c1.1,0.8,2.2,1.7,3.2,2.7c2,1.9,2,2.5,0.5,4.9c0.7,0.6,1.2,1,1.8,1.5
		c2.3-2.3,2.7-4.4,0.9-6.4c-1.8-2-3.9-3.7-6-5.2c-1.5-1.1-3.5-1.1-4.8,0.3c-2.6,2.7-5,5.5-7.3,8.4c-1.2,1.5-1,3.4,0.4,4.8
		C215.9,60.5,217.8,62.2,219.8,63.7z"></path>
	<path class="st12" d="M238.5,85.8c1.1,2.3,2.5,4.6,3.9,6.7c1.2,1.7,3.1,2.2,5,1.2c3.1-1.6,6.2-3.4,9.1-5.4c1.7-1.1,2.2-3,1.3-4.8
		c-1.2-2.4-2.5-4.7-4.1-6.9c-0.6-0.8-1.8-1.2-2.4-1.6c-0.9,0.1-1.5,0-2,0.3c-3.4,2-6.8,3.9-10.1,6.1
		C237.8,82.5,237.7,84.3,238.5,85.8z M241.9,82.5c2.5-1.5,5-3,7.5-4.4c0.6-0.3,1.8-0.3,2.2,0c2.2,1.6,3.1,4.1,4.2,6.7
		c-0.4,0.6-0.7,1.4-1.3,1.8c-2.4,1.6-4.9,3-7.5,4.4c-1.2,0.7-2.5,0.5-3.2-0.7c-1-1.5-1.9-3.2-2.8-4.8
		C240.3,84.4,240.7,83.3,241.9,82.5z"></path>
	<path class="st12" d="M146.1,258.5c-1.8-0.3-3.7-0.7-4.8,0.2c-2.2-0.3-3.7-0.7-5.3-0.8c-2.6-0.1-3.7,1-3.9,3.6
		c-0.2,2.8-0.3,5.6-0.3,8.4c-0.1,2,0.8,3.1,2.4,3.5c3.3,0.8,5.8,0.4,6.7-1.3c0.2-0.4,0.4-1,0.4-1.5c0.1-2.7,0.3-5.5,0.3-8.2
		c0-1.4,0.4-2.3,1.9-2.2c2.1,0.1,2.5,0.5,2.3,2.4c-0.2,3.6-0.4,7.3-0.5,11.1c1.1-0.1,2.3,0.6,2.4-1.1c0.2-3.8,0.4-7.7,0.5-11.5
		C148.3,259.9,147.5,258.8,146.1,258.5z M139.4,263.3c-0.1,2.2-0.3,4.4-0.3,6.6c0,2.2-1.6,1.7-2.8,1.7c-1.4,0.1-2.1-0.3-2-1.9
		c0.1-0.9,0-1.9,0-3.2c0.1-1.4,0.2-3.1,0.3-4.9c0-1.1,0.6-1.5,1.6-1.5C139.3,260,139.6,260.3,139.4,263.3z"></path>
	<path class="st12" d="M66.8,64.3c-1.5-1.8-2.9-3.5-4.4-5.2c1.6-1.4,3-2.7,4.5-3.9c1.6-1.3,2.3-1.2,3.7,0.3c0.9,1,1.8,2.1,2.7,3.1
		c0.7-0.7,1.3-1.2,2-1.8c-2.2-1.8-3.1-4.8-6.3-5.1c0.3-2.7-1.8-4-3.2-5.7c-1.4-1.5-2.9-1.8-4.5-0.5c-2.8,2.1-5.4,4.4-8.1,6.7
		c4.1,4.7,7.9,9.1,11.9,13.7C65.6,65.4,66.1,64.9,66.8,64.3z M56.5,52.5c1.7-1.4,3.3-2.8,4.9-4.2c1.2-1,2.2-0.8,3.1,0.4
		c0.3,0.4,0.6,0.7,0.9,1.1c1.4,1.6,1.4,2.2-0.2,3.7c-1.4,1.3-2.9,2.6-4.6,4C59.3,55.7,57.9,54.1,56.5,52.5z"></path>
	<path class="st12" d="M227.1,71.1c1.8-1.5,3.5-2.9,5.2-4.3c1.4,1.7,2.7,3.2,3.9,4.7c1.1,1.3,0.9,2.4-0.4,3.5
		c-1.1,0.9-2.1,1.8-3.3,2.8c0.6,0.7,1.1,1.3,1.7,2c1.9-2.1,4.8-2.9,5.2-6c3,0,4.6-2.2,6.4-4c1-1.1,0.9-2.4,0.1-3.6
		c-2.1-2.8-4.3-5.6-6.6-8.4c-4.8,4-9.3,7.8-13.9,11.6C226.2,70,226.6,70.5,227.1,71.1z M239.1,61.1c1.5,1.9,3,3.6,4.3,5.5
		c0.3,0.5-0.1,1.4-0.2,2.2c0,0-0.1,0.1-0.1,0.1c-3.5,3.1-3.4,2.9-6.1-0.2c-1-1.1-1.8-2.2-2.8-3.5C235.8,63.9,237.4,62.6,239.1,61.1z
		"></path>
	<path class="st12" d="M114.5,37.6c-0.3-0.8-0.5-1.5-0.7-2.2c-3.4,1.1-6.5,2.2-9.8,3.2c-0.6-1.9-1.2-3.6-1.8-5.4
		c3.3-1.1,6.4-2.2,9.5-3.3c-0.3-0.8-0.5-1.5-0.7-2.2c-3.3,1.1-6.3,2.1-9.5,3.2c-0.6-1.7-1.1-3.2-1.6-4.9c3.4-1.2,6.5-2.2,9.8-3.3
		c-0.3-0.8-0.5-1.5-0.8-2.2c-4.1,1.4-8,2.7-12.1,4.1c2,5.8,3.8,11.4,5.8,17.1C106.5,40.3,110.5,39,114.5,37.6z"></path>
	<path class="st12" d="M62.4,68.4c-0.7-0.6-1.2-1-1.8-1.5c-2.2,2.6-4.4,5.2-6.7,7.8c-1.5-1.3-2.9-2.5-4.4-3.7
		c2.2-2.6,4.3-5.1,6.4-7.7c-0.6-0.5-1.1-0.9-1.8-1.5c-2.2,2.6-4.3,5.1-6.5,7.6c-1.4-1.2-2.6-2.2-3.9-3.3c2.3-2.7,4.4-5.3,6.6-7.9
		c-0.6-0.5-1.2-1-1.8-1.5c-2.8,3.3-5.5,6.5-8.3,9.8c4.7,4,9.2,7.8,13.8,11.6C56.9,74.9,59.6,71.8,62.4,68.4z"></path>
	<path class="st12" d="M117.2,33.6c0.4,1.7,1.8,2.6,3.6,2.5c1.7-0.1,3.5-0.2,5.2-0.6c4.6-1,5.8-3.2,4.2-7.6c-0.7,0.1-1.3,0.2-2.1,0.3
		c0,0.5,0,1,0,1.4c0.3,2.3-0.2,3.1-2.5,3.6c-1.1,0.2-2.3,0.4-3.4,0.5c-1.6,0.2-2.7-0.5-3-2.2c-0.4-2.3-0.9-4.6-1.3-6.9
		c-0.5-3.3,0.1-4.1,3.5-4.7c0.2,0,0.5,0,0.7-0.1c4.1-0.8,4.2,0,4.9,2.8c0,0.1,0.2,0.2,0.3,0.2c0.7-0.1,1.4-0.2,2-0.3
		c0-3.7-1.7-5.6-5.1-5.3c-2,0.1-3.9,0.5-5.8,1.1c-2,0.5-3.3,2.1-3.1,4.1C115.6,26.2,116.4,30,117.2,33.6z"></path>
	<path class="st12" d="M20.5,121.1c2.6,0.8,5.3,1.5,7.9,2.1c3.2,0.7,5-0.3,6.1-3.4c0.6-1.6,1-3.2,1.3-4.9c0.5-2.9-0.5-4.4-3.3-5.3
		c-0.6-0.2-1.3-0.4-2.1-0.6c-0.2,0.4-0.3,0.8-0.4,1.2c-0.1,0.4-0.1,0.8-0.2,1.1c4.1,1.6,4.2,1.7,3,5.9c-0.2,0.6-0.3,1.3-0.5,1.8
		c-0.6,1.4-1.6,2.1-3.2,1.7c-2.5-0.7-5.1-1.3-7.6-2c-2.3-0.7-2.8-1.6-2.3-3.9c0.1-0.5,0.2-1,0.4-1.5c1-3.7,1.2-3.8,4.9-3.5
		c0.2-0.7,0.4-1.4,0.5-2.1c-3.5-1.6-5.8-0.7-7.1,2.7c-0.5,1.4-0.8,2.8-1.2,4.2C16.1,118.1,17.2,120,20.5,121.1z"></path>
	<path class="st12" d="M250,98.2c-2.4,1.3-3.2,3-2.5,5.7c0.5,1.7,1.2,3.4,1.9,5c1.2,2.6,3,3.6,5.7,2.7c4.4-1.4,8.6-3.1,13-4.8
		c-0.3-0.8-0.5-1.5-0.8-2.3c-0.6,0.2-0.9,0.3-1.3,0.4c-3.6,1.3-7.2,2.7-10.8,4c-1.9,0.7-2.8,0.3-3.6-1.5c-0.4-1-0.8-1.9-1.1-2.9
		c-1.1-3.1-0.9-3.7,2.2-4.8c3.7-1.4,7.3-2.8,11.1-4.3c-0.3-0.8-0.6-1.5-0.9-2.3c-3.5,1.3-6.9,2.6-10.3,3.9
		C251.7,97.4,250.8,97.8,250,98.2z"></path>
	<path class="st12" d="M139.8,34.2c1.4,0.2,2.8,0.1,4.2,0c4-0.2,5.6-1.9,5.7-5.9c0-3.5,0-7-0.1-10.5c0-2.1-0.1-2.1-2.5-1.7
		c0,1.6,0,3.2,0,4.8c0,2.6,0.1,5.1,0.1,7.7c0,2.2-0.8,2.9-3,3c-1.3,0-2.6,0.1-3.8,0c-1.9-0.1-2.7-0.7-2.8-2.6
		c-0.1-2.4-0.1-4.9-0.1-7.3c0-1.8,0-3.7,0-5.5H135c0,4.5-0.1,8.8,0,13.2C135.2,32.5,136.7,33.9,139.8,34.2z"></path>
	<path class="st12" d="M252.8,120c2.3-0.4,4.4-0.9,6.6-1.3c0.6,2.5,1.2,4.9,1.8,7.2c0.5,1.7,1.8,2.6,3.6,2.4c1.6-0.2,3.2-0.5,4.8-1
		c1.5-0.4,2.5-1.5,2.2-3.1c-0.5-3.4-1.1-6.7-1.6-10.2c-6.1,1.3-11.9,2.5-17.7,3.7C252.6,118.5,252.7,119.2,252.8,120z M268.2,116.9
		c0.4,2.1,0.8,4.2,1.2,6.2c0.2,1.2-0.3,1.8-1.5,2.1c-4.2,1.1-4.3,1-5.2-3.1c-0.3-1.2-0.5-2.5-0.8-3.8
		C264.1,117.7,266.1,117.3,268.2,116.9z"></path>
	<path class="st12" d="M178.5,257.8c-0.8-3.5-2.6-4.4-5.8-3.1c-0.8,0.3-1.4,1-2.1,1.6c-0.2-0.1-0.4-0.2-0.7-0.3
		c-1.8-0.6-3.5-0.1-4.9,1c-1.3,1-1.1,2.4-0.7,3.9c0.8,3.1,1.6,6.3,2.4,9.5c0.5,1.8,0.7,1.9,2.6,0.8c-0.1-0.6-0.2-1.2-0.4-1.8
		c-0.7-3-1.5-6.1-2.3-9.1c-0.4-1.5,0.4-2.1,1.7-2.4c1.3-0.3,1.8,0.5,2,1.6c0.5,2.1,1,4.3,1.6,6.3c2.2,0,2.4-0.1,1.9-2
		c-0.4-1.6-0.8-3.3-1.2-4.9c-0.3-1.3,0.1-2.1,1.5-2.4c1.4-0.3,1.9,0.4,2.2,1.6c0.1,0.6,0.2,1.1,0.4,1.7c0.7,3.1,1.5,6.2,2.2,9.2
		c2.2-0.1,2.3-0.2,1.9-2C179.9,263.9,179.2,260.9,178.5,257.8z"></path>
	<path class="st12" d="M124.6,260.8c-0.9,0-1.8,0.2-2.5,0.3c-0.9-0.5-1.8-0.9-2.6-1.5c-0.5-0.3-0.7-1-1.1-1.4
		c0.5-0.2,1.1-0.6,1.5-0.5c1.7,0.2,3.3,0.7,5,0.9c0.4,0.1,0.9-0.4,1.3-0.6c-0.3-0.5-0.4-1.3-0.8-1.4c-2.1-0.5-4.2-1-6.3-1.2
		c-0.8-0.1-2.4,0.6-2.5,1.3c-0.5,1.9-1.3,3.6-2.3,5.2c-0.2,0.3-0.2,0.7-0.3,1c-0.3,1.7-0.6,3.3-0.9,5c-0.4,2-0.2,2.2,2,1.9
		c0.4-2.2,0.9-4.4,1.3-6.6c0.2-1.5,1-1.8,2.3-1.6c1.3,0.2,1.8,1,1.5,2.2c-0.2,1.2-0.4,2.4-0.7,3.6c0.8,0.2,1.4,0.3,2.2,0.5
		c0.3-1.3,0.5-2.6,0.8-3.8c0.3-1.1,0.9-1.6,2.2-1.3c1.2,0.3,1.9,0.7,1.5,2.1c-0.6,2.3-1,4.5-1.5,6.9c2,1,2.2,0.9,2.6-1
		c0.4-1.7,0.7-3.4,1.1-5.1C129.2,262.6,127.9,260.9,124.6,260.8z"></path>
	<path class="st12" d="M51,208.8c-1.5,0.9-3.1,1.3-4.6,2c-2.5,1.2-4.6,3.1-7,4.8c0.6,0.7,1,1.3,1.4,1.9c2-1.5,3.9-2.8,5.8-4.2
		c1-0.8,1.8-0.8,2.6,0.4c0.7,1.1,0.9,2-0.4,2.8c-1,0.7-1.9,1.4-2.9,2.2c0.5,0.7,0.9,1.2,1.3,1.8c0.9-0.6,1.8-1.2,2.6-1.8
		c1.1-0.9,2.1-1.1,3.1,0.3c1,1.4,0.3,2.1-0.8,2.8c-1.9,1.3-3.7,2.6-5.6,3.9c0.5,0.7,0.9,1.2,1.4,1.9c2.3-1.6,4.4-3,6.5-4.6
		c1.1-0.8,1.8-2,1.2-3.4c-0.7-1.8-1.7-3.3-3.5-3.6c-0.3-1.1-0.7-2-0.9-2.9c-0.1-0.6,0.1-1.2,0.1-1.8c0.5,0.3,1.3,0.4,1.6,0.8
		c1.2,1.5,2.3,3.1,3.5,4.8c0.6-0.4,1-0.7,1.7-1.2c-1.5-2.1-2.8-4.2-4.5-6C53.3,208.9,51.7,208.4,51,208.8z"></path>
	<path class="st12" d="M251.9,207.5c-1.5-1.1-3.2-2-4.8-2.8c-0.5-0.3-1.3-0.5-1.7-0.3c-1.4,0.7-2.4,0-3.5-0.6
		c-1.3-0.7-2.4-0.3-3.2,0.8c-0.5,0.7-1,1.5-1.3,2.2c-0.9,1.8-0.3,2.9,1.9,3.8c0.2-0.6,0.8-1.5,0.6-1.8c-1-1.1-0.5-2,0.3-2.5
		c0.5-0.3,1.5,0.1,2.6,0.2c-0.8,1.4-1.3,2.2-1.8,3.1c-0.9,1.9-0.6,3.4,1.2,4.5c1.3,0.9,2.7,1.7,4,2.4c1.6,0.8,3,0.5,4-0.9
		c1-1.4,1.8-2.8,2.6-4.3C253.7,209.8,253.2,208.4,251.9,207.5z M250.7,210.5c-0.6,1.4-1.7,2.7-2.6,4c0,0.1-0.2,0-0.8,0.1
		c-1.3-0.9-2.9-1.9-4.4-3c-0.2-0.2,0-1,0.2-1.4c1.8-4,2.1-4,6.1-1.5C249.9,209,250.9,210.1,250.7,210.5z"></path>
	<path class="st12" d="M73.7,231.8c-1.9-1.7-4.1-3-5.6-5.5c-0.6,0.8-1,1.3-1.4,1.7c0.2,0,0.3,0,0.5,0c0.3,0.9,1,2,0.8,2.8
		c-0.3,1-1.4,1.8-2.2,2.7c0.6,0.5,1.1,0.9,1.7,1.4c1-1.1,1.8-2.1,2.7-3.2c1.9,1.3,1.9,1.3,0.7,2.6c-1.7,1.9-3.4,3.7-5.1,5.5
		c-1.5,1.6-1.7,1.6-3.3,0.1c-0.2-0.2-0.4-0.4-0.6-0.6c-1.1-0.9-1.1-1.8-0.1-2.8c0.8-0.8,1.5-1.6,2.3-2.5c-0.6-0.6-1.1-1-1.7-1.5
		c-1.1,1.2-2.2,2.2-3.1,3.3c-1.2,1.5-1,2.8,0.4,4.4c2.9,3.1,4.5,3.8,6.3,2.7c0.2-0.1,0.4-0.3,0.6-0.4c2.3-2.5,4.7-5,6.9-7.6
		C74.5,234,74.7,232.7,73.7,231.8z"></path>
	<path class="st12" d="M257.7,194.7c-3.2-1.5-6.3-2.9-9.6-4.3c-1.4-0.6-2.7-0.2-3.1,1.3c-0.6,2.2-1.5,4.3-2.8,6.2
		c-0.1,0.1,0,0.3,0,0.6c0.5,0.2,1,0.4,1.7,0.7c1-4.4,3.4-1.3,5.4-1.1c0.3-0.6,0.5-1.2,0.8-1.9c-1.2-0.5-2.3-0.9-3.2-1.5
		c-0.3-0.2-0.6-1-0.4-1.4c0.1-0.3,1-0.7,1.3-0.6c2.8,1.2,5.6,2.4,8.3,3.7c0.5,0.2,0.7,1.3,0.8,2c0,0.6-0.5,1.2-0.7,1.8
		c-0.5,1.3-1.3,1.5-2.5,0.9c-1-0.5-2-1-3.2-1.5c-0.4,0.8-0.6,1.4-0.8,1.9c5.2,3.6,7.3,3,9.3-2.7c0.1-0.3,0.2-0.5,0.2-0.8
		C259.5,196.6,259.1,195.4,257.7,194.7z"></path>
	<path class="st12" d="M37.1,196.1c3.2-1.2,3.5-1.6,3.4-4.9c3-1.4,3.6-3,1.6-5.5c-0.7,1.2-1.4,2.3-2.3,3.7c-2.1-3.6-2.8-3.9-6.3-2.6
		c-1,0.4-2.1,0.7-3.1,1.2c-2.3,1-3,2.3-2.2,4.7c0.3,0.9,0.6,1.8,1,2.6c0.9,2.2,2.4,2.8,4.6,2C35,197,36.1,196.6,37.1,196.1z
		 M31.4,194.8c-0.2-0.2-0.3-0.5-0.4-0.8c-1.4-3.2-1.4-3.2,1.8-4.4c0.5-0.2,1-0.3,1.5-0.5c2.5-1,2.6-0.9,3.5,1.5
		c0.8,2.2,0.7,2.5-1.5,3.3c-1.3,0.5-2.6,1-4,1.5C32,195.2,31.7,195.1,31.4,194.8z"></path>
	<path class="st12" d="M161.6,264.6c-0.3-1.9-1.4-2.8-3.4-2.8c-1.5,0-2.9,0.2-4.4,0.3c-0.2-1.5-0.4-2.7-0.6-4
		c-2.2-0.1-2.3,0.1-2.1,1.8c0.3,2.7,0.5,5.3,0.9,8c0.9,6,1.1,6.1,7.1,5.3c0.2,0,0.4,0,0.5-0.1c1.6-0.5,2.6-1.4,2.5-3.1
		C161.9,268.2,161.8,266.4,161.6,264.6z M156.5,271.3c-1.5,0.4-2-0.5-2.2-2c-0.1-0.7-0.1-1.4-0.1-2.1c0-0.9-0.3-2.6,0-2.7
		c1.2-0.4,2.6-0.5,3.9-0.4c0.4,0,0.9,0.9,1.1,1.5c0.2,0.8,0.1,1.6,0.2,2.4C160,270.9,159.7,271.2,156.5,271.3z"></path>
	<path class="st12" d="M39.5,175.3c-0.7-2.4-2-3.2-4.5-2.6c-3.4,0.9-6.9,1.8-10.3,2.7c-0.4,0.1-0.7,0.3-1.1,0.5
		c0.2,0.7,0.4,1.3,0.6,2c3.8-1,7.5-1.9,11.2-2.9c1.5-0.4,2,0.3,2.2,1.4c0.2,1.2,1.3,2.8-0.9,3.4c-1.1,0.3-2.3,0.5-3.4,0.8
		c-2.6,0.7-5.2,1.3-7.9,2c0.2,0.8,0.4,1.3,0.6,2.2c3.2-0.8,6.2-1.6,9.3-2.3C40.5,181.3,41,180.4,39.5,175.3z"></path>
	<path class="st12" d="M206.2,254.4c-0.9-1.7-1.7-3.4-2.7-5.1c-0.8-1.3-1.9-1.8-3.4-1.4c-0.4,0.1-1.1-0.2-1.3-0.5
		c-1.6-2.1-3-2.3-5.5-0.1c1,0.3,1.7,0.4,2.4,0.7c0.5,0.2,1,0.5,1.2,0.9c0.1,0.3-0.4,0.9-0.7,1.2c-1.7,1.4-1.9,2.4-1,4.4
		c0.7,1.4,1.4,2.7,2.1,4c1,1.9,2.3,2.6,4,2c3.3-1.4,5.7-2.5,5.3-4.7C206.4,255.3,206.4,254.8,206.2,254.4z M200.9,258.2
		c-0.4,0.2-1.3-0.5-1.7-1c-0.5-0.6-0.8-1.4-1.2-2.1c-1.5-2.9-1.1-4.1,2.1-4.9c0.3-0.1,0.8-0.1,0.9,0.1c1.1,1.8,2.2,3.6,3.5,5.8
		C203.3,257,202.1,257.8,200.9,258.2z"></path>
	<path class="st12" d="M255.9,160c-1.6-0.2-2.6,0.8-3,2.3c-0.2,1.1-0.4,2.2-0.5,3.3c-0.3,2.2,0.7,3.6,2.9,4c1.6,0.2,3.1,0.5,4.7,0.6
		c2.4,0.3,4.8,0.5,7.3,0.8c0.1-0.8,0.1-1.5,0.2-2.3c-3.8-0.5-7.5-1-11.1-1.4c-1.7-0.2-2.1-0.7-1.8-2.4c0.1-0.5,0-1,0.3-1.3
		c0.4-0.5,1.1-1.2,1.7-1.2c3.3,0.4,6.7,0.9,10,1.4c1.6,0.3,2.2-0.3,1.8-2.2C264.1,161.1,260,160.5,255.9,160z"></path>
	<path class="st12" d="M241.5,218.1c-2.8-2-3.7-2-6.3,0.3c-0.4-0.3-0.7-0.6-1.1-1c0.6-0.8,1.1-1.5,1.7-2.3c-0.6-0.4-1.1-0.8-1.6-1.1
		c-0.6,0.7-1.1,1.3-1.6,2c-1.4-1.1-1.8,0.1-2.4,1c0.3,0.4,0.6,0.8,0.8,1.1c-0.6,0.8-1.1,1.5-1.7,2.3c0.6,0.4,1,0.7,1.5,1.1
		c0.7-0.8,1.3-1.4,1.9-2.1c1,0.8,1.9,1.4,2.7,2.1c2.8-3,2.8-3,5.9-0.6c0.2,0.1,0.4,0.3,0.6,0.4c1,0.7,1.1,1.6,0.3,2.5
		c-0.4,0.4-0.7,0.9-1.1,1.4c-0.7,1-1.5,1-2.4,0.3c-0.9-0.7-1.7-1.4-2.7-2.1c-0.5,0.6-0.9,1.1-1.4,1.7c1,0.8,1.8,1.6,2.7,2.2
		c2.1,1.6,3.5,1.5,5.3-0.5C246.2,222.5,246.1,221.3,241.5,218.1z"></path>
	<path class="st12" d="M213.8,241.1c-3-4.4-3.9-4.6-8.2-1.3c-0.1,0.1-0.3,0.2-0.4,0.3c-1.5,1.3-1.8,2.6-0.7,4.3
		c2.2,3.3,4.6,6.6,7,10.1c0.7-0.5,1.3-0.9,1.9-1.4c-0.4-0.6-0.7-1.1-1.1-1.6c-1.8-2.6-3.7-5.3-5.5-7.8c-0.8-1.1-0.7-1.9,0.5-2.5
		c0.4-0.2,0.7-0.4,1-0.7c1-0.8,1.9-0.7,2.6,0.4c1.1,1.7,2.2,3.3,3.3,4.9c1,1.5,2.1,3,3.2,4.6c0.7-0.5,1.2-0.9,1.7-1.2
		c0-0.2,0-0.4-0.1-0.5C217.3,246.2,215.6,243.6,213.8,241.1z"></path>
	<path class="st12" d="M190.1,252c-0.4-0.9-1.6-1.9-2.4-1.9c-2.2,0-4.5,0.7-5.8,2.5c-1.2,1.6-0.2,3.3,0.8,4.9
		c1.5-0.2,2.4-0.7,1.4-2.3c-0.7-1.3-0.3-2,1.1-2.5c1.3-0.5,2.5-1.2,3.2,0.8c0.8,2.3,1.8,4.5,2.6,6.8c0.8,2.1,0.7,2.3-1.3,3.1
		c-0.3,0.1-0.7,0.2-1,0.4c-1.3,0.6-2,0.1-2.4-1.1c-0.3-0.9-0.7-1.7-1-2.6c-0.8,0.3-1.4,0.6-2,0.8c1.6,6,3.1,6.3,7.8,4.2
		c0.3-0.1,0.7-0.3,1-0.4c1.5-0.9,2.2-2.2,1.6-3.8C192.6,257.9,191.5,254.9,190.1,252z"></path>
	<path class="st12" d="M47.1,206.2c1.5-0.8,3-1.7,2.5-3.7c-0.5-2.1-1.2-4.6-3.5-5.2c-1.2-0.3-2.8,0.7-4.1,1.3
		c-0.1,0.1,0.2,1.3,0.4,2.2c0.8-0.4,1.2-0.6,1.6-0.8c1.3-0.8,2.1-0.4,2.8,1c0.7,1.3,1,2.3-0.6,3.1c-2.3,1.1-4.5,2.4-6.8,3.5
		c-1.1,0.6-2,0.5-2.6-0.8c-0.2-0.5-0.5-1-0.8-1.5c-0.6-1-0.3-1.7,0.6-2.1c0.9-0.5,1.8-1,2.8-1.5c-0.4-0.7-0.8-1.3-1.1-1.9
		c-1,0.5-1.8,0.8-2.5,1.2c-2.4,1.2-2.9,2.7-1.7,5.1c0.4,0.7,0.7,1.5,1.1,2.2c1.2,2.2,2.7,2.7,4.9,1.6
		C42.5,208.7,44.8,207.4,47.1,206.2z"></path>
	<path class="st12" d="M197.3,40.8c-0.8,1.9-1.8,3.6-2.8,5.5c0.8,0.4,1.5,0.7,2.2,1.1c1-1.9,1.8-3.7,2.9-5.4c0.6-1,1.5-1.9,2.5-2.4
		c3-1.6,6.1-3,9.3-4.6c-1.4-1.4-2.7-1.5-4.2-0.6c-2.2,1.3-4.5,2.3-6.9,3.4c-0.4-2.8-1-5.3-1.2-7.8c-0.1-1.9-1.1-2.5-2.9-3
		c0.6,3.5,1.2,6.9,1.6,10.3C197.9,38.5,197.7,39.8,197.3,40.8z"></path>
	<path class="st12" d="M34.1,101.1c1.9,0.6,3.7,1.5,5.7,2.3c0.3-0.8,0.6-1.5,0.8-2.2c-1.8-0.8-3.5-1.6-5.2-2.2
		c-1.5-0.5-2.5-1.5-3.3-2.9c-1.6-2.9-3.3-5.7-5-8.6c-1.3,1.5-1.3,2.8-0.2,4.3c1.4,2,2.6,4.3,4,6.6c-2.8,0.6-5.3,1.3-7.9,1.8
		c-1.7,0.3-2.3,1.3-2.5,3c3.5-0.8,6.9-1.7,10.3-2.4C31.9,100.6,33.1,100.8,34.1,101.1z"></path>
	<path class="st12" d="M225.2,233.7c-0.4-0.4-0.9-0.7-1.5-0.9c-1-0.4-2-0.6-3.3-1c-0.3,0.2-0.7,0.7-1.5,1.4c1.2,0.7,2.1,1.4,3.1,1.7
		c1.1,0.4,4.6,3.3,4.8,4.4c0,0.2,0.1,0.4,0,0.5c-0.9,0.9-1.8,2-2.9,2.6c-0.4,0.2-1.5-0.6-2-1.1c-2.5-2.7-4.9-5.5-7.4-8.3
		c-0.6,0.5-1.1,1-1.8,1.5c2.9,3.3,5.7,6.5,8.6,9.6c1.2,1.3,2.7,1.2,4.1,0.2c1-0.8,2-1.6,2.9-2.6c1.3-1.3,1.4-2.7,0.2-4.2
		C227.5,236.2,226.4,234.9,225.2,233.7z"></path>
	<path class="st12" d="M81.8,242c-0.3-0.2-0.8-0.5-1.5-1c-0.5,1-1.4,1.9-1.2,2.6c0.6,2.3-1,3.6-2.1,5.1c-1.2,1.7-1.5,1.7-3.2,0.6
		c-2.3-1.6-2.3-1.8-0.7-4.1c0.4-0.5,0.7-1,1.1-1.6c1.7-2.3,3.4-4.7,5.1-7.1c-0.7-0.5-1.2-0.9-1.9-1.3c-2,2.7-3.8,5.3-5.7,7.8
		c-3.3,4.5-3.2,5.4,1.5,8.5c2.2,1.4,3.6,1.1,5.3-0.9C80.7,248.1,82,245.4,81.8,242z"></path>
	<path class="st12" d="M183.7,41.4c1.8-4.9,3.6-9.7,5.4-14.6c1.8,0.6,3.5,1.2,5.3,1.8c0.3-0.8,0.5-1.4,0.8-2.2
		c-4.3-1.6-8.5-3.1-12.7-4.7c-0.3,0.8-0.5,1.4-0.8,2.2c1.8,0.7,3.5,1.3,5.2,2c-1.8,5-3.6,9.7-5.4,14.7
		C182.2,40.9,182.9,41.1,183.7,41.4z"></path>
	<path class="st12" d="M92.2,247.4c-0.4-0.3-0.9-1.1-0.8-1.5c0.7-1.6-0.3-1.9-1.4-2.2c-1.7,2.4-1.5,3.9,0.9,5.4
		c0.9,0.6,1.2,1.2,0.6,2.2c-1,1.7-1.9,3.4-2.9,5.2c-0.5,0.9-1.3,1.1-2.2,0.6c-0.6-0.3-1.1-0.6-1.7-0.9c-1.1-0.6-1.3-1.4-0.6-2.4
		c0.8-1.3,1.5-2.7,2.3-4.2c-0.7-0.4-1.3-0.7-2-1.1c-0.5,0.9-0.9,1.6-1.4,2.4c-2.7,4.9-2.3,5.9,2.7,8.3c2.1,1,3.5,0.6,4.7-1.4
		c1-1.7,2-3.4,2.9-5.2C94.7,250.2,94.4,249.1,92.2,247.4z"></path>
	<path class="st12" d="M30.8,168.8c3.1,1.5,5.6,0.5,6.7-3c-1.1-0.3-2.1-0.6-2.8,0.6c-0.2,0.3-0.8,0.5-1.2,0.6
		c-2.3,0.5-2.4-1.2-2.5-2.7c-1.4-0.3-2.3-0.2-1.9,1.6c0.1,0.6-0.2,1.6-0.6,1.9c-2.7,1.6-4.6,0.5-4.7-2.5c0-0.1,0-0.2,0-0.4
		c-0.2-1.1,0.2-1.6,1.4-1.7c1-0.1,1.9-0.3,3-0.5c-0.1-0.7-0.1-1.3-0.2-1.9c-3.3-0.4-5.4,0.2-6.1,1.9c-0.7,1.6,0.2,6.5,1.4,7.4
		C24.7,171.3,28.4,170.6,30.8,168.8z"></path>
	<path class="st12" d="M178.8,20.9c-0.8-0.2-1.5-0.4-2.4-0.6c-1.6,5.9-3.1,11.6-4.7,17.4c0.9,0.2,1.5,0.4,2.4,0.7
		C175.7,32.4,177.2,26.7,178.8,20.9z"></path>
	<circle class="st12" cx="23.6" cy="144.6" r="6.4"></circle>
	<circle class="st12" cx="265.7" cy="144.6" r="6.4"></circle>
</g>
</svg>