<svg version="1.1" id="Слой_2" xmlns="http://www.w3.org/2000/svg" xmlns:xlink="http://www.w3.org/1999/xlink" x="0px" y="0px"
	 viewBox="0 0 120 49.1" style="enable-background:new 0 0 120 49.1;" xml:space="preserve">
<style type="text/css">
	.st0{fill:#6C6BBD;}
	.st1{fill:#EB001B;}
	.st2{fill:#0099DF;}
	.st3{fill:#231F20;}
</style>
<g transform="translate(-1837.7 -1267.9)">
	<g transform="matrix(3.1437 0 0 3.1437 -1661.1 -866.42)">
		<path class="st0" d="M1135.2,692.2h-6v-10.9h6V692.2z"/>
		<g transform="matrix(1.25 0 0 -1.25 1137.3 698.59)">
			<path class="st1" d="M-6.2,9.5c0,1.8,0.8,3.3,2.1,4.3C-5,14.6-6.2,15-7.5,15c-3.1,0-5.5-2.5-5.5-5.5S-10.6,4-7.5,4
				C-6.2,4-5,4.4-4.1,5.1C-5.4,6.1-6.2,7.7-6.2,9.5"/>
		</g>
		<g transform="matrix(1.25 0 0 -1.25 1176.6 698.59)">
			<path class="st2" d="M-26.6,9.5c0-3.1-2.5-5.5-5.5-5.5c-1.3,0-2.5,0.4-3.4,1.2c1.3,1,2.1,2.6,2.1,4.3s-0.8,3.3-2.1,4.3
				c0.9,0.7,2.1,1.2,3.4,1.2C-29.1,15-26.6,12.5-26.6,9.5"/>
		</g>
		<g transform="matrix(1.25 0 0 -1.25 1159.2 722.78)">
			<path class="st3" d="M-17.6,29.4c0.1,0,0.2,0,0.2,0l-0.1-0.3c-0.1,0-0.1,0-0.2,0c-0.2,0-0.3-0.1-0.3-0.4v-0.8h-0.3v1.5h0.3v-0.2
				C-17.9,29.3-17.8,29.4-17.6,29.4 M-18.8,29.1h-0.5v-0.7c0-0.1,0.1-0.2,0.2-0.2c0.1,0,0.2,0,0.3,0.1l0.1-0.3
				c-0.1-0.1-0.3-0.1-0.4-0.1c-0.4,0-0.5,0.2-0.5,0.5v0.7h-0.3v0.3h0.3v0.4h0.3v-0.4h0.5V29.1z M-22.8,28.8c0,0.2,0.2,0.4,0.4,0.4
				c0.2,0,0.3-0.1,0.4-0.4H-22.8z M-21.7,28.6c0,0.5-0.3,0.8-0.7,0.8c-0.4,0-0.7-0.3-0.7-0.8c0-0.5,0.3-0.8,0.8-0.8
				c0.2,0,0.4,0.1,0.6,0.2l-0.2,0.2c-0.1-0.1-0.3-0.2-0.4-0.2c-0.2,0-0.4,0.1-0.4,0.4h1.1C-21.7,28.6-21.7,28.6-21.7,28.6 M-20.3,29
				c-0.1,0.1-0.3,0.1-0.5,0.1c-0.2,0-0.3-0.1-0.3-0.2c0-0.1,0.1-0.1,0.2-0.1l0.2,0c0.3,0,0.5-0.2,0.5-0.4c0-0.3-0.2-0.5-0.7-0.5
				c-0.2,0-0.5,0.1-0.6,0.2l0.2,0.2c0.1-0.1,0.3-0.2,0.5-0.2c0.2,0,0.3,0.1,0.3,0.2c0,0.1-0.1,0.1-0.3,0.2l-0.2,0
				c-0.3,0-0.5,0.2-0.5,0.4c0,0.3,0.2,0.5,0.6,0.5c0.2,0,0.4-0.1,0.6-0.2L-20.3,29z M-16.4,29.1c-0.1,0-0.1,0-0.2,0
				c-0.1,0-0.1-0.1-0.1-0.1s-0.1-0.1-0.1-0.1s0-0.1,0-0.2c0-0.1,0-0.1,0-0.2s0.1-0.1,0.1-0.1c0,0,0.1-0.1,0.1-0.1c0.1,0,0.1,0,0.2,0
				c0.1,0,0.1,0,0.2,0c0.1,0,0.1,0.1,0.1,0.1c0,0,0.1,0.1,0.1,0.1c0,0.1,0,0.1,0,0.2c0,0.1,0,0.1,0,0.2c0,0.1-0.1,0.1-0.1,0.1
				c0,0-0.1,0.1-0.1,0.1C-16.3,29.1-16.3,29.1-16.4,29.1 M-16.4,29.4c0.1,0,0.2,0,0.3-0.1c0.1,0,0.2-0.1,0.3-0.2
				c0.1-0.1,0.1-0.2,0.2-0.2c0-0.1,0.1-0.2,0.1-0.3c0-0.1,0-0.2-0.1-0.3c0-0.1-0.1-0.2-0.2-0.2c-0.1-0.1-0.2-0.1-0.3-0.2
				c-0.1,0-0.2-0.1-0.3-0.1c-0.1,0-0.2,0-0.3,0.1c-0.1,0-0.2,0.1-0.3,0.2c-0.1,0.1-0.1,0.2-0.2,0.2c0,0.1-0.1,0.2-0.1,0.3
				c0,0.1,0,0.2,0.1,0.3c0,0.1,0.1,0.2,0.2,0.2c0.1,0.1,0.2,0.1,0.3,0.2C-16.6,29.4-16.5,29.4-16.4,29.4 M-24.7,28.6
				c0,0.3,0.2,0.5,0.4,0.5c0.3,0,0.4-0.2,0.4-0.5c0-0.3-0.2-0.5-0.4-0.5C-24.5,28.2-24.7,28.4-24.7,28.6 M-23.5,28.6v0.7h-0.3v-0.2
				c-0.1,0.1-0.3,0.2-0.5,0.2c-0.4,0-0.7-0.3-0.7-0.8c0-0.4,0.3-0.8,0.7-0.8c0.2,0,0.4,0.1,0.5,0.2v-0.2h0.3V28.6z M-25.3,27.9v0.9
				c0,0.3-0.2,0.6-0.6,0.6c-0.2,0-0.4-0.1-0.5-0.3c-0.1,0.2-0.3,0.3-0.5,0.3c-0.2,0-0.3,0-0.4-0.2v0.2h-0.3v-1.5h0.3v0.8
				c0,0.3,0.1,0.4,0.4,0.4c0.2,0,0.3-0.1,0.3-0.4v-0.8h0.3v0.8c0,0.3,0.1,0.4,0.4,0.4c0.2,0,0.3-0.1,0.3-0.4v-0.8H-25.3z"/>
		</g>
	</g>
</g>
</svg>
