<?xml version="1.0" encoding="utf-8"?>
<!-- Generator: Adobe Illustrator 22.0.1, SVG Export Plug-In . SVG Version: 6.00 Build 0)  -->
<svg version="1.1" id="Слой_1" xmlns="http://www.w3.org/2000/svg" xmlns:xlink="http://www.w3.org/1999/xlink" x="0px" y="0px"
	 viewBox="0 0 120 49.1" style="enable-background:new 0 0 120 49.1;" xml:space="preserve">
<style type="text/css">
	.st0{fill:#FF5F00;}
	.st1{fill:#EB001B;}
	.st2{fill:#F79E1B;}
	.st3{fill:#231F20;}
</style>
<path class="st0" d="M70.1,41.6H51v-34h18.9v34H70.1z"/>
<path class="st1" d="M52.3,24.5c0-6.9,3.3-13.1,8.3-17c-3.8-2.9-8.3-4.7-13.5-4.7c-12,0-21.7,9.7-21.7,21.7s9.7,21.7,21.7,21.7
	c5,0,9.7-1.8,13.4-4.7C55.6,37.5,52.3,31.5,52.3,24.5"/>
<path class="st2" d="M95.5,24.5c0,12-9.7,21.7-21.7,21.7c-5,0-9.7-1.8-13.4-4.7c5-3.9,8.3-10.1,8.3-17s-3.3-13.1-8.3-17
	c3.7-2.9,8.3-4.7,13.4-4.7C86,2.9,95.5,12.6,95.5,24.5"/>
<path class="st3" d="M40.5,25.6c0-1,0.6-1.9,1.8-1.9c1,0,1.8,0.8,1.8,1.9c0,1-0.8,1.9-1.8,1.9C41.2,27.4,40.5,26.6,40.5,25.6
	 M45.1,25.6v-2.9h-1.3v0.8c-0.4-0.5-1-0.9-1.8-0.9c-1.6,0-2.9,1.3-2.9,3s1.3,3,2.9,3c0.8,0,1.4-0.4,1.8-0.9v0.8h1.3V25.6z
	 M87.3,25.6c0-1,0.6-1.9,1.8-1.9c1,0,1.8,0.8,1.8,1.9c0,1-0.8,1.9-1.8,1.9S87.3,26.6,87.3,25.6 M92,25.6v-5.2h-1.3v3
	c-0.4-0.5-1-0.9-1.8-0.9c-1.6,0-2.9,1.3-2.9,3s1.3,3,2.9,3c0.8,0,1.4-0.4,1.8-0.9v0.8H92V25.6z M60.6,23.7c0.8,0,1.3,0.5,1.5,1.4h-3
	C59.2,24.3,59.7,23.7,60.6,23.7 M60.8,22.5c-1.6,0-2.9,1.3-2.9,3c0,1.9,1.3,3,2.9,3c0.9,0,1.6-0.3,2.4-0.8l-0.6-1
	c-0.5,0.4-1.1,0.6-1.6,0.6c-0.8,0-1.5-0.4-1.8-1.4h4.3c0-0.1,0-0.3,0-0.5C63.4,23.8,62.3,22.5,60.8,22.5 M75.7,25.6
	c0-1,0.6-1.9,1.8-1.9c1,0,1.8,0.8,1.8,1.9c0,1-0.8,1.9-1.8,1.9C76.5,27.4,75.7,26.6,75.7,25.6 M80.4,25.6v-2.9h-1.3v0.8
	c-0.4-0.5-1-0.9-1.8-0.9c-1.6,0-2.9,1.3-2.9,3s1.3,3,2.9,3c0.8,0,1.4-0.4,1.8-0.9v0.8h1.3V25.6z M68.7,25.6c0,1.8,1.3,3,3,3
	c0.9,0,1.4-0.3,2-0.6l-0.6-1c-0.5,0.4-1,0.5-1.5,0.5c-1,0-1.8-0.8-1.8-1.9c0-1.1,0.8-1.9,1.8-1.9c0.5,0,1,0.1,1.5,0.5l0.6-1
	c-0.6-0.5-1.3-0.6-2-0.6C69.9,22.5,68.7,23.8,68.7,25.6 M84.8,22.5c-0.8,0-1.1,0.4-1.5,0.9v-0.8H82v5.8h1.3v-3.3
	c0-1,0.4-1.5,1.3-1.5c0.3,0,0.5,0,0.8,0.1l0.4-1.1C85.4,22.7,85.1,22.5,84.8,22.5 M51.3,23.2c-0.6-0.4-1.4-0.6-2.4-0.6
	c-1.5,0-2.4,0.8-2.4,1.9c0,0.9,0.8,1.5,2,1.6l0.6,0.1c0.6,0.1,1,0.3,1,0.6c0,0.5-0.5,0.8-1.3,0.8c-0.9,0-1.5-0.3-1.9-0.6l-0.6,1
	c0.6,0.5,1.5,0.8,2.5,0.8c1.6,0,2.6-0.8,2.6-1.9c0-1-0.8-1.5-2-1.8l-0.6-0.1c-0.5-0.1-1-0.1-1-0.5c0-0.4,0.4-0.6,1.1-0.6
	s1.4,0.3,1.8,0.5L51.3,23.2z M67.4,22.5c-0.8,0-1.1,0.4-1.5,0.9v-0.8h-1.3v5.8h1.3v-3.3c0-1,0.4-1.5,1.3-1.5c0.3,0,0.5,0,0.8,0.1
	l0.4-1.1C68.1,22.7,67.7,22.5,67.4,22.5 M56.8,22.7h-2.1v-1.8h-1.3v1.8h-1.1v1.1h1.1v2.6c0,1.4,0.5,2.1,2,2.1c0.5,0,1.1-0.1,1.5-0.5
	l-0.4-1c-0.4,0.3-0.8,0.4-1.1,0.4c-0.6,0-0.9-0.4-0.9-1v-2.6h2L56.8,22.7z M38.1,28.5v-3.7c0-1.4-0.9-2.3-2.3-2.3
	c-0.8,0-1.5,0.3-2,1c-0.4-0.6-1-1-1.9-1c-0.6,0-1.3,0.1-1.6,0.9v-0.8H29v5.8h1.3v-3.1c0-1,0.5-1.5,1.4-1.5c0.9,0,1.3,0.5,1.3,1.5
	v3.1h1.3v-3.1c0-1,0.6-1.5,1.4-1.5c0.9,0,1.3,0.5,1.3,1.5v3.1H38.1z"/>
</svg>
