<svg version="1.1" id="Слой_1" xmlns="http://www.w3.org/2000/svg" xmlns:xlink="http://www.w3.org/1999/xlink" x="0px" y="0px"
	 viewBox="0 0 150 80" style="enable-background:new 0 0 150 80;" xml:space="preserve">
<style type="text/css">
	.st0{fill:#0099DE;}
	.st1{fill:#FFFFFF;}
	.st2{fill:#FFFFFF;}
	.st3{fill:#3598DB;}
</style>
<circle class="st0" cx="24.2" cy="40" r="23.2"/>
<path class="st1" d="M25.8,24.7h-9.7V57h6.2V45.2H26c7.7,0,12.2-3.9,12.2-10.4C38.2,28,34.1,24.7,25.8,24.7z M22.3,30.2h3
	c5.6,0,6.6,1.6,6.6,4.4c0,2.6-0.8,4.9-6.4,4.9h-3.2C22.3,39.6,22.3,30.2,22.3,30.2z"/>
<g>
	<path class="st2" d="M58.6,30.1h-6.2v21.5h3.3v-8.2h3c5.1,0,8-2.5,8-6.7C66.8,32.3,64,30.1,58.6,30.1z M55.6,33h2.6
		c3.7,0,5.2,1,5.2,3.7c0,2.7-1.5,4-5,4h-2.7L55.6,33L55.6,33z"/>
	<path class="st2" d="M73.1,30.1l-7.3,21.5h3.4l2-6.3h7.1l2,6.3h3.5l-7.3-21.5C76.5,30.1,73.1,30.1,73.1,30.1z M72.1,42.5l0.9-2.7
		c0.7-2,1.2-4.1,1.8-6.1c0.7,2.3,1.2,4.3,1.8,6.1l0.9,2.7H72.1z"/>
	<path class="st2" d="M92.4,36.2c-0.5,1-0.9,2.1-1.4,3.1c-0.1,0.3-0.3,0.6-0.4,0.9c-0.6-1.2-1.1-2.5-1.7-3.8L86,30h-3.6l6.5,13.2
		v8.3h3.3v-8.3l6.4-13.1h-3.5L92.4,36.2z"/>
	<polygon class="st3" points="103.6,41.7 111.4,41.7 111.4,38.9 103.6,38.9 103.6,33 112.8,33 112.8,30.1 100.3,30.1 100.3,51.6 
		113.2,51.6 113.2,48.7 103.6,48.7 	"/>
	<polygon class="st3" points="120.2,41.7 128.2,41.7 128.2,38.9 120.2,38.9 120.2,33 129.6,33 129.6,30.1 116.9,30.1 116.9,51.6 
		129.9,51.6 129.9,48.7 120.2,48.7 	"/>
	<path class="st3" d="M143.6,42.4c2.8-0.9,4.5-3,4.5-6.1c0-4.1-2.6-6.1-7.6-6.1h-6.8v21.5h3.3v-8.8h3.2l5,8.8h3.8L143.6,42.4z
		 M136.9,33h3.1c3.3,0,4.7,1,4.7,3.4c0,2.5-1.6,3.7-4.7,3.7h-3.1V33z"/>
</g>
</svg>
