<?xml version="1.0" encoding="utf-8"?>
<!-- Generator: Adobe Illustrator 22.0.1, SVG Export Plug-In . SVG Version: 6.00 Build 0)  -->
<svg version="1.1" id="Слой_1" xmlns="http://www.w3.org/2000/svg" xmlns:xlink="http://www.w3.org/1999/xlink" x="0px" y="0px"
	 viewBox="0 0 120 49.1" style="enable-background:new 0 0 120 49.1;" xml:space="preserve">
<style type="text/css">
	.st0{fill:#FFFFFF;}
	.st1{fill:#F7B600;}
	.st2{fill:#1A1F71;}
</style>
<path id="path4147" class="st0" d="M98.5,47.5h-73V1.1h73V47.5L98.5,47.5z"/>
<path id="path4149" class="st1" d="M26.7,39.9h70.6v6.3H26.7V39.9z"/>
<path id="path4151" class="st2" d="M26.7,8.6h70.6V2.3H26.7V8.6z"/>
<path id="path4163" class="st2" d="M60.6,17.3L57,33.9h-4.3l3.5-16.5H60.6z M78.6,28l2.3-6.2l1.3,6.2H78.6z M83.3,33.9h4l-3.5-16.5
	h-3.6c-0.8,0-1.5,0.5-1.8,1.2l-6.4,15.3h4.5l0.9-2.5h5.5C82.8,31.4,83.3,33.9,83.3,33.9z M72.2,28.5c0-4.4-6-4.6-6-6.6
	c0-0.6,0.6-1.2,1.8-1.4c0.6-0.1,2.3-0.1,4.2,0.7l0.7-3.5c-1-0.4-2.4-0.7-4-0.7c-4.2,0-7.2,2.2-7.2,5.5c0,2.4,2.1,3.7,3.7,4.5
	c1.7,0.8,2.2,1.3,2.2,2.1c0,1.1-1.3,1.6-2.6,1.6c-2.2,0-3.4-0.6-4.4-1L60,33.3c1,0.5,2.8,0.9,4.8,0.9C69.2,34.1,72.1,31.9,72.2,28.5
	 M54.4,17.3l-6.9,16.5H43l-3.4-13.2c-0.2-0.8-0.4-1.1-1-1.5c-1-0.6-2.7-1.1-4.2-1.4l0.1-0.5h7.3c0.9,0,1.8,0.6,2,1.7l1.8,9.6
	l4.4-11.3H54.4z"/>
</svg>
